<?xml version="1.0" encoding="us-ascii" standalone="no"?><svg xmlns="http://www.w3.org/2000/svg" xmlns:xlink="http://www.w3.org/1999/xlink" contentStyleType="text/css" height="810px" preserveAspectRatio="none" style="width:930px;height:810px;background:#FFFFFF;" version="1.1" viewBox="0 0 930 810" width="930px" zoomAndPan="magnify"><defs/><g><text fill="#000000" font-family="Noto Sans CJK JP" font-size="14" font-weight="bold" lengthAdjust="spacing" textLength="144" x="386" y="26.2399">Vizshare Screen Flow</text><ellipse cx="585" cy="57.2719" fill="#222222" rx="10" ry="10" style="stroke:#222222;stroke-width:1.0;"/><rect fill="#ADD8E6" height="50.5438" rx="12.5" ry="12.5" style="stroke:#181818;stroke-width:0.5;" width="178" x="496" y="128.2719"/><text fill="#000000" font-family="Noto Sans CJK JP" font-size="14" lengthAdjust="spacing" textLength="87" x="541.5" y="149.5118">Home Screen</text><text fill="#000000" font-family="Noto Sans CJK JP" font-size="14" lengthAdjust="spacing" textLength="168" x="501" y="169.7838">(Entry point &amp; navigation)</text><rect fill="#ADD8E6" height="50.5438" rx="12.5" ry="12.5" style="stroke:#181818;stroke-width:0.5;" width="173" x="113.5" y="259.2719"/><text fill="#000000" font-family="Noto Sans CJK JP" font-size="14" lengthAdjust="spacing" textLength="97" x="151.5" y="280.5118">Explore Screen</text><text fill="#000000" font-family="Noto Sans CJK JP" font-size="14" lengthAdjust="spacing" textLength="163" x="118.5" y="300.7838">(Browse public datasets)</text><rect fill="#FFFFE0" height="50.5438" rx="12.5" ry="12.5" style="stroke:#181818;stroke-width:0.5;" width="214" x="7" y="390.2719"/><text fill="#000000" font-family="Noto Sans CJK JP" font-size="14" lengthAdjust="spacing" textLength="138" x="45" y="411.5118">Public Dataset Detail</text><text fill="#000000" font-family="Noto Sans CJK JP" font-size="14" lengthAdjust="spacing" textLength="204" x="12" y="431.7838">(View graphs &amp; dataset details)</text><rect fill="#ADD8E6" height="50.5438" rx="12.5" ry="12.5" style="stroke:#181818;stroke-width:0.5;" width="269" x="321.5" y="259.2719"/><text fill="#000000" font-family="Noto Sans CJK JP" font-size="14" lengthAdjust="spacing" textLength="140" x="386" y="280.5118">Anonymous Datasets</text><text fill="#000000" font-family="Noto Sans CJK JP" font-size="14" lengthAdjust="spacing" textLength="259" x="326.5" y="300.7838">(Browse anonymously shared datasets)</text><rect fill="#FFFFE0" height="50.5438" rx="12.5" ry="12.5" style="stroke:#181818;stroke-width:0.5;" width="201" x="301.5" y="390.2719"/><text fill="#000000" font-family="Noto Sans CJK JP" font-size="14" lengthAdjust="spacing" textLength="175" x="314.5" y="411.5118">Anonymous Dataset Detail</text><text fill="#000000" font-family="Noto Sans CJK JP" font-size="14" lengthAdjust="spacing" textLength="191" x="306.5" y="431.7838">(View shared dataset details)</text><rect fill="#ADD8E6" height="50.5438" rx="12.5" ry="12.5" style="stroke:#181818;stroke-width:0.5;" width="151" x="625.5" y="259.2719"/><text fill="#000000" font-family="Noto Sans CJK JP" font-size="14" lengthAdjust="spacing" textLength="85" x="658.5" y="280.5118">Login Screen</text><text fill="#000000" font-family="Noto Sans CJK JP" font-size="14" lengthAdjust="spacing" textLength="141" x="630.5" y="300.7838">(User authentication)</text><rect fill="#ADD8E6" height="50.5438" rx="12.5" ry="12.5" style="stroke:#181818;stroke-width:0.5;" width="150" x="713" y="390.2719"/><text fill="#000000" font-family="Noto Sans CJK JP" font-size="14" lengthAdjust="spacing" textLength="95" x="740.5" y="411.5118">Signup Screen</text><text fill="#000000" font-family="Noto Sans CJK JP" font-size="14" lengthAdjust="spacing" textLength="140" x="718" y="431.7838">(Create new account)</text><rect fill="#90EE90" height="50.5438" rx="12.5" ry="12.5" style="stroke:#181818;stroke-width:0.5;" width="315" x="460.5" y="521.2719"/><text fill="#000000" font-family="Noto Sans CJK JP" font-size="14" lengthAdjust="spacing" textLength="141" x="547.5" y="542.5118">Dataset Management</text><text fill="#000000" font-family="Noto Sans CJK JP" font-size="14" lengthAdjust="spacing" textLength="305" x="465.5" y="562.7838">(Manage personal datasets &amp; upload CSV files)</text><rect fill="#FFFFE0" height="50.5438" rx="12.5" ry="12.5" style="stroke:#181818;stroke-width:0.5;" width="238" x="499" y="652.2719"/><text fill="#000000" font-family="Noto Sans CJK JP" font-size="14" lengthAdjust="spacing" textLength="142" x="547" y="673.5118">Private Dataset Detail</text><text fill="#000000" font-family="Noto Sans CJK JP" font-size="14" lengthAdjust="spacing" textLength="228" x="504" y="693.7838">(View and manage owned dataset)</text><!--link *start* to home--><g id="link_*start*_home"><path d="M585,67.3319 C585,81.1919 585,102.1419 585,122.0819 " fill="none" id="*start*-to-home" style="stroke:#181818;stroke-width:1.0;"/><polygon fill="#181818" points="585,128.0819,589,119.0819,585,123.0819,581,119.0819,585,128.0819" style="stroke:#181818;stroke-width:1.0;"/></g><!--link home to explore--><g id="link_home_explore"><path d="M495.81,169.6619 C450.22,178.6319 394.31,191.7419 346,209.2719 C309.22,222.6119 275.0565,240.1751 246.4665,256.2951 " fill="none" id="home-to-explore" style="stroke:#181818;stroke-width:1.0;"/><polygon fill="#181818" points="241.24,259.2419,251.0443,258.3059,245.5954,256.7862,247.1151,251.3373,241.24,259.2419" style="stroke:#181818;stroke-width:1.0;"/><text fill="#000000" font-family="Noto Sans CJK JP" font-size="13" lengthAdjust="spacing" textLength="99" x="347" y="225.3519">Browse datasets</text></g><!--link home to anonymousDatasets--><g id="link_home_anonymousDatasets"><path d="M498.51,179.3719 C484.73,186.8919 472.06,196.6419 463,209.2719 C452.78,223.5219 451.0191,237.4734 451.9891,253.1334 " fill="none" id="home-to-anonymousDatasets" style="stroke:#181818;stroke-width:1.0;"/><polygon fill="#181818" points="452.36,259.1219,455.7959,249.8918,452.0509,254.1315,447.8112,250.3864,452.36,259.1219" style="stroke:#181818;stroke-width:1.0;"/><text fill="#000000" font-family="Noto Sans CJK JP" font-size="13" lengthAdjust="spacing" textLength="174" x="464" y="225.3519">Browse anonymous datasets</text></g><!--link explore to publicDatasetView--><g id="link_explore_publicDatasetView"><path d="M130.38,310.3519 C117.87,317.9819 106.45,327.7819 99,340.2719 C90.01,355.3419 92.1229,369.3149 98.4229,384.5949 " fill="none" id="explore-to-publicDatasetView" style="stroke:#181818;stroke-width:1.0;"/><polygon fill="#181818" points="100.71,390.1419,100.9774,380.2967,98.8041,385.5194,93.5814,383.3461,100.71,390.1419" style="stroke:#181818;stroke-width:1.0;"/><text fill="#000000" font-family="Noto Sans CJK JP" font-size="13" lengthAdjust="spacing" textLength="86" x="100" y="356.3519">Select dataset</text></g><!--link publicDatasetView to explore--><g id="link_publicDatasetView_explore"><path d="M162.03,390.0319 C173.24,382.0219 183.96,372.0919 191,360.2719 C199.87,345.3919 201.9657,331.8619 201.9257,316.5319 " fill="none" id="publicDatasetView-to-explore" style="stroke:#181818;stroke-width:1.0;"/><polygon fill="#181818" points="201.91,310.5319,197.9335,319.5423,201.923,315.5319,205.9335,319.5214,201.91,310.5319" style="stroke:#181818;stroke-width:1.0;"/><text fill="#000000" font-family="Noto Sans CJK JP" font-size="13" lengthAdjust="spacing" textLength="30" x="200" y="356.3519">Back</text></g><!--link anonymousDatasets to anonymousDatasetView--><g id="link_anonymousDatasets_anonymousDatasetView"><path d="M408.86,310.3219 C398.09,318.3319 388.05,328.3119 382,340.2719 C374.09,355.9319 376.9138,369.6627 384.0938,384.6227 " fill="none" id="anonymousDatasets-to-anonymousDatasetView" style="stroke:#181818;stroke-width:1.0;"/><polygon fill="#181818" points="386.69,390.0319,386.4019,380.1873,384.5265,385.5242,379.1896,383.6488,386.69,390.0319" style="stroke:#181818;stroke-width:1.0;"/><text fill="#000000" font-family="Noto Sans CJK JP" font-size="13" lengthAdjust="spacing" textLength="86" x="383" y="356.3519">Select dataset</text></g><!--link anonymousDatasetView to anonymousDatasets--><g id="link_anonymousDatasetView_anonymousDatasets"><path d="M447.89,389.9919 C458.37,381.9819 468.14,372.0619 474,360.2719 C481.76,344.6619 479.3028,331.0066 472.6628,316.0366 " fill="none" id="anonymousDatasetView-to-anonymousDatasets" style="stroke:#181818;stroke-width:1.0;"/><polygon fill="#181818" points="470.23,310.5519,470.2227,320.4008,472.2573,315.1225,477.5356,317.1571,470.23,310.5519" style="stroke:#181818;stroke-width:1.0;"/><text fill="#000000" font-family="Noto Sans CJK JP" font-size="13" lengthAdjust="spacing" textLength="30" x="479" y="356.3519">Back</text></g><!--link home to login--><g id="link_home_login"><path d="M615.58,179.2819 C626.01,188.2519 637.45,198.7819 647,209.2719 C661.19,224.8619 671.7567,239.2064 681.9067,254.2664 " fill="none" id="home-to-login" style="stroke:#181818;stroke-width:1.0;"/><polygon fill="#181818" points="685.26,259.2419,683.547,249.5432,682.4656,255.0957,676.913,254.0143,685.26,259.2419" style="stroke:#181818;stroke-width:1.0;"/><text fill="#000000" font-family="Noto Sans CJK JP" font-size="13" lengthAdjust="spacing" textLength="34" x="664" y="225.3519">Login</text></g><!--link home to signup--><g id="link_home_signup"><path d="M674.13,178.0219 C750.7,203.5019 855.29,252.8719 898,340.2719 C909.44,363.6919 894.8005,378.4435 868.7905,390.4135 " fill="none" id="home-to-signup" style="stroke:#181818;stroke-width:1.0;"/><polygon fill="#181818" points="863.34,392.9219,873.188,392.793,867.8821,390.8316,869.8435,385.5257,863.34,392.9219" style="stroke:#181818;stroke-width:1.0;"/><text fill="#000000" font-family="Noto Sans CJK JP" font-size="13" lengthAdjust="spacing" textLength="43" x="879" y="290.8519">Signup</text></g><!--link login to signup--><g id="link_login_signup"><path d="M665.33,310.3719 C648.94,324.7819 635.44,343.4119 647,360.2719 C655.35,372.4519 677.8944,382.5651 706.9344,392.1851 " fill="none" id="login-to-signup" style="stroke:#181818;stroke-width:1.0;"/><polygon fill="#181818" points="712.63,394.0719,705.3444,387.4447,707.8836,392.4996,702.8287,395.0388,712.63,394.0719" style="stroke:#181818;stroke-width:1.0;"/><text fill="#000000" font-family="Noto Sans CJK JP" font-size="13" lengthAdjust="spacing" textLength="92" x="648" y="356.3519">Create account</text></g><!--link signup to login--><g id="link_signup_login"><path d="M774.99,390.0319 C766.9,375.2419 755.98,356.2819 745,340.2719 C738.05,330.1419 733.5521,324.1552 726.0321,315.0152 " fill="none" id="signup-to-login" style="stroke:#181818;stroke-width:1.0;"/><polygon fill="#181818" points="722.22,310.3819,724.8493,319.8733,725.3968,314.243,731.0271,314.7905,722.22,310.3819" style="stroke:#181818;stroke-width:1.0;"/><text fill="#000000" font-family="Noto Sans CJK JP" font-size="13" lengthAdjust="spacing" textLength="131" x="758" y="356.3519">Already have account</text></g><!--link login to datasetManagement--><g id="link_login_datasetManagement"><path d="M665.61,310.3119 C654.65,318.9619 643.08,329.3019 634,340.2719 C617.89,359.7219 613.19,365.7819 607,390.2719 C595.59,435.4019 603.1489,484.2314 610.2089,515.2614 " fill="none" id="login-to-datasetManagement" style="stroke:#181818;stroke-width:1.0;"/><polygon fill="#181818" points="611.54,521.1119,613.4437,511.4488,610.4307,516.2365,605.643,513.2236,611.54,521.1119" style="stroke:#181818;stroke-width:1.0;"/><text fill="#000000" font-family="Noto Sans CJK JP" font-size="13" lengthAdjust="spacing" textLength="87" x="608" y="421.8519">Authenticated</text></g><!--link signup to datasetManagement--><g id="link_signup_datasetManagement"><path d="M755.62,441.3419 C725.47,464.2219 685.53,494.5254 655.32,517.4454 " fill="none" id="signup-to-datasetManagement" style="stroke:#181818;stroke-width:1.0;"/><polygon fill="#181818" points="650.54,521.0719,660.1277,518.8188,654.5233,518.0498,655.2923,512.4455,650.54,521.0719" style="stroke:#181818;stroke-width:1.0;"/><text fill="#000000" font-family="Noto Sans CJK JP" font-size="13" lengthAdjust="spacing" textLength="100" x="714" y="487.3519">Account created</text></g><!--link datasetManagement to privateDatasetView--><g id="link_datasetManagement_privateDatasetView"><path d="M575.93,572.5519 C565.92,580.6519 556.54,590.6319 551,602.2719 C542.03,621.1219 551.4187,635.0471 568.9887,648.3671 " fill="none" id="datasetManagement-to-privateDatasetView" style="stroke:#181818;stroke-width:1.0;"/><polygon fill="#181818" points="573.77,651.9919,569.0145,643.3672,569.7856,648.9713,564.1815,649.7423,573.77,651.9919" style="stroke:#181818;stroke-width:1.0;"/><text fill="#000000" font-family="Noto Sans CJK JP" font-size="13" lengthAdjust="spacing" textLength="86" x="552" y="618.3519">Select dataset</text></g><!--link privateDatasetView to datasetManagement--><g id="link_privateDatasetView_datasetManagement"><path d="M633.46,651.9819 C640.57,637.6619 646.7,619.2019 643,602.2719 C640.78,592.1019 639.1084,586.9556 634.6884,577.8856 " fill="none" id="privateDatasetView-to-datasetManagement" style="stroke:#181818;stroke-width:1.0;"/><polygon fill="#181818" points="632.06,572.4919,632.4069,582.3347,634.2504,576.9866,639.5984,578.8301,632.06,572.4919" style="stroke:#181818;stroke-width:1.0;"/><text fill="#000000" font-family="Noto Sans CJK JP" font-size="13" lengthAdjust="spacing" textLength="30" x="645" y="618.3519">Back</text></g><rect fill="#DDDDDD" height="70.8157" id="_legend" rx="7.5" ry="7.5" style="stroke:#000000;stroke-width:1.0;" width="259" x="12" y="719.8157"/><text fill="#000000" font-family="Noto Sans CJK JP" font-size="14" lengthAdjust="spacing" textLength="12" x="17" y="741.0557">1.</text><text fill="#000000" font-family="Noto Sans CJK JP" font-size="14" lengthAdjust="spacing" textLength="206" x="33" y="741.0557">LightBlue : Public / Site screens</text><text fill="#000000" font-family="Noto Sans CJK JP" font-size="14" lengthAdjust="spacing" textLength="12" x="17" y="761.3276">2.</text><text fill="#000000" font-family="Noto Sans CJK JP" font-size="14" lengthAdjust="spacing" textLength="233" x="33" y="761.3276">LightGreen : Authenticated screens</text><text fill="#000000" font-family="Noto Sans CJK JP" font-size="14" lengthAdjust="spacing" textLength="12" x="17" y="781.5995">3.</text><text fill="#000000" font-family="Noto Sans CJK JP" font-size="14" lengthAdjust="spacing" textLength="232" x="33" y="781.5995">LightYellow : Dataset detail / viewer</text><!--SRC=[bLJRRjim37tNLn0Pi1jGz3t01gHfkw7hWWB60WpR7ZYRiONAaY79oRAldop9bzXEs-KfbWuF3uz8caSkAzHOGaOxh8MzLT9ki2HOR9HLaA0qiBxx0dSF2rRmZ83AoXuTsgIQLvOhoPZbLX1i-LzJe2P8KaqauLQe0sE2Sf8P2DfPzkgUvuMz4ZN14XxgtuAdS0a9jmJ6nvW8-UG9bh2gRK7IyXGjPIFCTn8kWGDTeqL3racoo8KZt7Cwa6OXRPETCVRZ_I-ukFW8XIh9VRw13-T-xYvAQuGzYMJ6Ec6m-En8OzK_vTiRQVKHAiMbXTSWSSzpR7nwjm0qNW3qHdGSDtygeVI0vaghWo6eWfOi56a22KNm34_KtffoxKrnT5jd2kGQgy8uLTc9Pv4rf8gH7ZzqkikmaaeUIrMRDedfrM9x9uxWco4RAUy0RUnS3PCCep9EcK-B62UOgOFvDsYweVLn2L5_AxQ7J0LtuEwg3sCjOnCwzNC92GbARHl0s9H-BkcPu6VQU30zpPY-f9FlLSvbtuFV36d04vhWil2ucQTBU2xhgcTOQshEfTEFQQfgQGE12RWXGsTv85-25zCVnn1dW__ZLel7dLp5T34LY-T3qfLmaEm81UvxtBCBGVDzmxjoiI_oiUtRhoWnfzBPvxm87r2HDagYwBh6pMFjkWOpM2TRs751iPSZe2U1mNhi9pwAcvyLT5km38dLGVPJ4qS-n9wVbTxZgPZHVXwwFGiEPaFgtyWjvId8JyrKqdztVX8MnANh1sKCRBeT_FJZJGTsj2GmVPoER0USNHK-PAQcSoxvW7y0]--></g></svg>