<?xml version="1.0" encoding="us-ascii" standalone="no"?><svg xmlns="http://www.w3.org/2000/svg" xmlns:xlink="http://www.w3.org/1999/xlink" contentStyleType="text/css" height="657px" preserveAspectRatio="none" style="width:333px;height:657px;background:#FFFFFF;" version="1.1" viewBox="0 0 333 657" width="333px" zoomAndPan="magnify"><defs/><g><text fill="#000000" font-family="Noto Sans CJK JP" font-size="14" font-weight="bold" lengthAdjust="spacing" textLength="187" x="69" y="26.2399">Vizshare Screen Flow (MVP)</text><ellipse cx="139.25" cy="57.2719" fill="#222222" rx="10" ry="10" style="stroke:#222222;stroke-width:1.0;"/><rect fill="#FFE4E1" height="40" rx="12.5" ry="12.5" style="stroke:#181818;stroke-width:0.5;" width="95" x="91.75" y="128.2719"/><text fill="#000000" font-family="Noto Sans CJK JP" font-size="14" lengthAdjust="spacing" textLength="85" x="96.75" y="154.3759">Login Screen</text><rect fill="#ADD8E6" height="40" rx="12.5" ry="12.5" style="stroke:#181818;stroke-width:0.5;" width="97" x="90.75" y="248.2719"/><text fill="#000000" font-family="Noto Sans CJK JP" font-size="14" lengthAdjust="spacing" textLength="87" x="95.75" y="274.3759">Home Screen</text><rect fill="#ADD8E6" height="50.5438" rx="12.5" ry="12.5" style="stroke:#181818;stroke-width:0.5;" width="199" x="39.75" y="368.2719"/><text fill="#000000" font-family="Noto Sans CJK JP" font-size="14" lengthAdjust="spacing" textLength="189" x="44.75" y="389.5118">Dataset Management Screen</text><text fill="#000000" font-family="Noto Sans CJK JP" font-size="14" lengthAdjust="spacing" textLength="98" x="90.25" y="409.7838">(Upload &amp; List)</text><rect fill="#ADD8E6" height="50.5438" rx="12.5" ry="12.5" style="stroke:#181818;stroke-width:0.5;" width="211" x="33.75" y="499.2719"/><text fill="#000000" font-family="Noto Sans CJK JP" font-size="14" lengthAdjust="spacing" textLength="89" x="94.75" y="520.5118">Graph Screen</text><text fill="#000000" font-family="Noto Sans CJK JP" font-size="14" lengthAdjust="spacing" textLength="201" x="38.75" y="540.7838">(Graph View &amp; Dataset Details)</text><!--link *start* to login--><g id="link_*start*_login"><path d="M139.25,67.4619 C139.25,81.6719 139.25,103.2919 139.25,122.0119 " fill="none" id="*start*-to-login" style="stroke:#181818;stroke-width:1.0;"/><polygon fill="#181818" points="139.25,128.0119,143.25,119.0119,139.25,123.0119,135.25,119.0119,139.25,128.0119" style="stroke:#181818;stroke-width:1.0;"/></g><!--link login to home--><g id="link_login_home"><path d="M139.25,168.4919 C139.25,190.4319 139.25,220.1219 139.25,242.0619 " fill="none" id="login-to-home" style="stroke:#181818;stroke-width:1.0;"/><polygon fill="#181818" points="139.25,248.0619,143.25,239.0619,139.25,243.0619,135.25,239.0619,139.25,248.0619" style="stroke:#181818;stroke-width:1.0;"/><text fill="#000000" font-family="Noto Sans CJK JP" font-size="13" lengthAdjust="spacing" textLength="84" x="140.25" y="214.3519">Login success</text></g><!--link home to datasetManagement--><g id="link_home_datasetManagement"><path d="M139.25,288.3019 C139.25,309.6819 139.25,338.4619 139.25,361.9619 " fill="none" id="home-to-datasetManagement" style="stroke:#181818;stroke-width:1.0;"/><polygon fill="#181818" points="139.25,367.9619,143.25,358.9619,139.25,362.9619,135.25,358.9619,139.25,367.9619" style="stroke:#181818;stroke-width:1.0;"/><text fill="#000000" font-family="Noto Sans CJK JP" font-size="13" lengthAdjust="spacing" textLength="164" x="140.25" y="334.3519">Go to dataset management</text></g><!--link datasetManagement to graphView--><g id="link_datasetManagement_graphView"><path d="M97.18,419.5519 C87.17,427.6519 77.79,437.6319 72.25,449.2719 C63.28,468.1219 72.6687,482.0471 90.2387,495.3671 " fill="none" id="datasetManagement-to-graphView" style="stroke:#181818;stroke-width:1.0;"/><polygon fill="#181818" points="95.02,498.9919,90.2645,490.3672,91.0356,495.9713,85.4315,496.7423,95.02,498.9919" style="stroke:#181818;stroke-width:1.0;"/><text fill="#000000" font-family="Noto Sans CJK JP" font-size="13" lengthAdjust="spacing" textLength="86" x="73.25" y="465.3519">Select dataset</text></g><!--link graphView to datasetManagement--><g id="link_graphView_datasetManagement"><path d="M154.71,498.9819 C161.82,484.6619 167.95,466.2019 164.25,449.2719 C162.03,439.1019 160.3584,433.9556 155.9384,424.8856 " fill="none" id="graphView-to-datasetManagement" style="stroke:#181818;stroke-width:1.0;"/><polygon fill="#181818" points="153.31,419.4919,153.6569,429.3347,155.5004,423.9866,160.8484,425.8301,153.31,419.4919" style="stroke:#181818;stroke-width:1.0;"/><text fill="#000000" font-family="Noto Sans CJK JP" font-size="13" lengthAdjust="spacing" textLength="30" x="166.25" y="465.3519">Back</text></g><rect fill="#DDDDDD" height="70.8157" id="_legend" rx="7.5" ry="7.5" style="stroke:#000000;stroke-width:1.0;" width="301" x="12" y="566.8157"/><text fill="#000000" font-family="Noto Sans CJK JP" font-size="14" lengthAdjust="spacing" textLength="12" x="17" y="588.0557">1.</text><text fill="#000000" font-family="Noto Sans CJK JP" font-size="14" lengthAdjust="spacing" textLength="200" x="33" y="588.0557">LightBlue (Blue): Main screens</text><text fill="#000000" font-family="Noto Sans CJK JP" font-size="14" lengthAdjust="spacing" textLength="12" x="17" y="608.3276">2.</text><text fill="#000000" font-family="Noto Sans CJK JP" font-size="14" lengthAdjust="spacing" textLength="275" x="33" y="608.3276">MistyRose (Pink): User interaction screens</text><text fill="#000000" font-family="Noto Sans CJK JP" font-size="14" lengthAdjust="spacing" textLength="12" x="17" y="628.5995">3.</text><text fill="#000000" font-family="Noto Sans CJK JP" font-size="14" lengthAdjust="spacing" textLength="241" x="33" y="628.5995">LightYellow (Yellow): Display screens</text><!--SRC=[TPBTQY9148Nl-oaA0raDv0Ka29k82OcAh4HOTdDHp9GpXJtTGtUPOCA- -_QFEWQJcncQyzMfKztbDsnQTDX0IMlSQfbO8tDi27fpAnQMQ3pSFJx1uwAdQYu9g6bb5sXVE6w5hL5AM3J1YjzzZOvWMJWY0nDjtw0_Moq6Iccgo9IWQItgOifLBRTwIz2Fty4GPiW6V2hpwcB6NdQ_h0_wWiqcwC-U7B0HSbZ4bXsRl7wJJhtoF_1Zzgt6tH7BlMC4fVvSlS3rzGYqhJXazu8IXft6qpvv3z1d6MvkOkkVgUbeT80VR4EdR1tFtLW7R8o2dYHCPx2YXepiY_wQ_dEhBPPm2TCmx22vb1a_eSyjxnssTUUIZokcj-1qQ3ScGTO-crQHIC29cSh3nLj8qOUGn_VReY3lbVe1Stpb2jDThvrj4gSI7AlEemxXtaBObxq2pL6ARfDeyOLqxXFTkyn3M9AcGWwrqUiMYmsOBbwVry1DgrCzbGFLbNyNDLg4bp-kVhxS3mL9gPpTclBEQki-FpyS5_ChShzp0JlPIVLF_GS0]--></g></svg>