<?xml version="1.0" encoding="us-ascii" standalone="no"?><svg xmlns="http://www.w3.org/2000/svg" xmlns:xlink="http://www.w3.org/1999/xlink" contentStyleType="text/css" height="799px" preserveAspectRatio="none" style="width:602px;height:799px;background:#FFFFFF;" version="1.1" viewBox="0 0 602 799" width="602px" zoomAndPan="magnify"><defs/><g><!--cluster Authentication--><g id="cluster_Authentication"><path d="M13,6.532 L117,6.532 A3.75,3.75 0 0 1 119.5,9.032 L126.5,32.8039 L202,32.8039 A2.5,2.5 0 0 1 204.5,35.3039 L204.5,208.032 A2.5,2.5 0 0 1 202,210.532 L13,210.532 A2.5,2.5 0 0 1 10.5,208.032 L10.5,9.032 A2.5,2.5 0 0 1 13,6.532 " fill="none" style="stroke:#000000;stroke-width:1.5;"/><line style="stroke:#000000;stroke-width:1.5;" x1="10.5" x2="126.5" y1="32.8039" y2="32.8039"/><text fill="#000000" font-family="Noto Sans CJK JP" font-size="14" font-weight="bold" lengthAdjust="spacing" textLength="103" x="14.5" y="24.7719">Authentication</text></g><!--cluster Climate Domain--><g id="cluster_Climate Domain"><path d="M231,26.532 L342,26.532 A3.75,3.75 0 0 1 344.5,29.032 L351.5,52.8039 L593,52.8039 A2.5,2.5 0 0 1 595.5,55.3039 L595.5,790.032 A2.5,2.5 0 0 1 593,792.532 L231,792.532 A2.5,2.5 0 0 1 228.5,790.032 L228.5,29.032 A2.5,2.5 0 0 1 231,26.532 " fill="none" style="stroke:#000000;stroke-width:1.5;"/><line style="stroke:#000000;stroke-width:1.5;" x1="228.5" x2="351.5" y1="52.8039" y2="52.8039"/><text fill="#000000" font-family="Noto Sans CJK JP" font-size="14" font-weight="bold" lengthAdjust="spacing" textLength="110" x="232.5" y="44.7719">Climate Domain</text></g><!--class User--><g id="elem_User"><rect codeLine="4" fill="#F1F1F1" height="149.3596" id="User" rx="2.5" ry="2.5" style="stroke:#181818;stroke-width:0.5;" width="162" x="26.5" y="45.532"/><ellipse cx="75.25" cy="61.532" fill="#ADD1B2" rx="11" ry="11" style="stroke:#181818;stroke-width:1.0;"/><path d="M79.3594,67.532 L71.6406,67.532 L71.6406,55.1414 L79.3594,55.1414 L79.3594,57.2976 L74.0938,57.2976 L74.0938,59.9695 L78.8594,59.9695 L78.8594,62.1257 L74.0938,62.1257 L74.0938,65.3757 L79.3594,65.3757 L79.3594,67.532 Z " fill="#000000"/><text fill="#000000" font-family="Noto Sans CJK JP" font-size="14" lengthAdjust="spacing" textLength="56" x="95.75" y="67.636">&#12518;&#12540;&#12470;&#12540;</text><line style="stroke:#181818;stroke-width:0.5;" x1="27.5" x2="187.5" y1="77.532" y2="77.532"/><ellipse cx="37.5" cy="93.1679" fill="none" rx="3" ry="3" style="stroke:#038048;stroke-width:1.0;"/><text fill="#000000" font-family="Noto Sans CJK JP" font-size="14" lengthAdjust="spacing" textLength="48" x="46.5" y="97.7719">id &#171;PK&#187;</text><text fill="#000000" font-family="Noto Sans CJK JP" font-size="14" lengthAdjust="spacing" textLength="136" x="46.5" y="118.0438">username &#171;UNIQUE&#187;</text><text fill="#000000" font-family="Noto Sans CJK JP" font-size="14" lengthAdjust="spacing" textLength="37" x="46.5" y="138.3157">email</text><text fill="#000000" font-family="Noto Sans CJK JP" font-size="14" lengthAdjust="spacing" textLength="64" x="46.5" y="158.5876">password</text><text fill="#000000" font-family="Noto Sans CJK JP" font-size="14" lengthAdjust="spacing" textLength="38" x="46.5" y="178.8596">name</text><line style="stroke:#181818;stroke-width:0.5;" x1="27.5" x2="187.5" y1="186.8915" y2="186.8915"/></g><!--class Region--><g id="elem_Region"><rect codeLine="15" fill="#F1F1F1" height="108.8157" id="Region" rx="2.5" ry="2.5" style="stroke:#181818;stroke-width:0.5;" width="127" x="452" y="337.032"/><ellipse cx="471.95" cy="353.032" fill="#ADD1B2" rx="11" ry="11" style="stroke:#181818;stroke-width:1.0;"/><path d="M476.0594,359.032 L468.3406,359.032 L468.3406,346.6414 L476.0594,346.6414 L476.0594,348.7976 L470.7938,348.7976 L470.7938,351.4695 L475.5594,351.4695 L475.5594,353.6257 L470.7938,353.6257 L470.7938,356.8757 L476.0594,356.8757 L476.0594,359.032 Z " fill="#000000"/><text fill="#000000" font-family="Noto Sans CJK JP" font-size="14" lengthAdjust="spacing" textLength="84" x="487.05" y="359.136">&#22320;&#22495;&#12510;&#12473;&#12479;&#12540;</text><line style="stroke:#181818;stroke-width:0.5;" x1="453" x2="578" y1="369.032" y2="369.032"/><ellipse cx="463" cy="384.6679" fill="none" rx="3" ry="3" style="stroke:#038048;stroke-width:1.0;"/><text fill="#000000" font-family="Noto Sans CJK JP" font-size="14" lengthAdjust="spacing" textLength="48" x="472" y="389.2719">id &#171;PK&#187;</text><text fill="#000000" font-family="Noto Sans CJK JP" font-size="14" lengthAdjust="spacing" textLength="38" x="472" y="409.5438">name</text><text fill="#000000" font-family="Noto Sans CJK JP" font-size="14" lengthAdjust="spacing" textLength="101" x="472" y="429.8157">code &#171;UNIQUE&#187;</text><line style="stroke:#181818;stroke-width:0.5;" x1="453" x2="578" y1="437.8477" y2="437.8477"/></g><!--class IndicatorGroup--><g id="elem_IndicatorGroup"><rect codeLine="21" fill="#F1F1F1" height="108.8157" id="IndicatorGroup" rx="2.5" ry="2.5" style="stroke:#181818;stroke-width:0.5;" width="133" x="264" y="65.532"/><ellipse cx="286.65" cy="81.532" fill="#ADD1B2" rx="11" ry="11" style="stroke:#181818;stroke-width:1.0;"/><path d="M290.7594,87.532 L283.0406,87.532 L283.0406,75.1414 L290.7594,75.1414 L290.7594,77.2976 L285.4938,77.2976 L285.4938,79.9695 L290.2594,79.9695 L290.2594,82.1257 L285.4938,82.1257 L285.4938,85.3757 L290.7594,85.3757 L290.7594,87.532 Z " fill="#000000"/><text fill="#000000" font-family="Noto Sans CJK JP" font-size="14" lengthAdjust="spacing" textLength="84" x="302.35" y="87.636">&#25351;&#27161;&#12464;&#12523;&#12540;&#12503;</text><line style="stroke:#181818;stroke-width:0.5;" x1="265" x2="396" y1="97.532" y2="97.532"/><ellipse cx="275" cy="113.1679" fill="none" rx="3" ry="3" style="stroke:#038048;stroke-width:1.0;"/><text fill="#000000" font-family="Noto Sans CJK JP" font-size="14" lengthAdjust="spacing" textLength="48" x="284" y="117.7719">id &#171;PK&#187;</text><text fill="#000000" font-family="Noto Sans CJK JP" font-size="14" lengthAdjust="spacing" textLength="107" x="284" y="138.0438">name &#171;UNIQUE&#187;</text><text fill="#000000" font-family="Noto Sans CJK JP" font-size="14" lengthAdjust="spacing" textLength="75" x="284" y="158.3157">description</text><line style="stroke:#181818;stroke-width:0.5;" x1="265" x2="396" y1="166.3477" y2="166.3477"/></g><!--class Indicator--><g id="elem_Indicator"><rect codeLine="27" fill="#F1F1F1" height="230.4472" id="Indicator" rx="2.5" ry="2.5" style="stroke:#181818;stroke-width:0.5;" width="172" x="244.5" y="276.532"/><ellipse cx="284.7" cy="292.532" fill="#ADD1B2" rx="11" ry="11" style="stroke:#181818;stroke-width:1.0;"/><path d="M288.8094,298.532 L281.0906,298.532 L281.0906,286.1414 L288.8094,286.1414 L288.8094,288.2976 L283.5438,288.2976 L283.5438,290.9695 L288.3094,290.9695 L288.3094,293.1257 L283.5438,293.1257 L283.5438,296.3757 L288.8094,296.3757 L288.8094,298.532 Z " fill="#000000"/><text fill="#000000" font-family="Noto Sans CJK JP" font-size="14" lengthAdjust="spacing" textLength="84" x="304.3" y="298.636">&#25351;&#27161;&#12510;&#12473;&#12479;&#12540;</text><line style="stroke:#181818;stroke-width:0.5;" x1="245.5" x2="415.5" y1="308.532" y2="308.532"/><ellipse cx="255.5" cy="324.1679" fill="none" rx="3" ry="3" style="stroke:#038048;stroke-width:1.0;"/><text fill="#000000" font-family="Noto Sans CJK JP" font-size="14" lengthAdjust="spacing" textLength="48" x="264.5" y="328.7719">id &#171;PK&#187;</text><text fill="#000000" font-family="Noto Sans CJK JP" font-size="14" lengthAdjust="spacing" textLength="73" x="264.5" y="349.0438">group &#171;FK&#187;</text><text fill="#000000" font-family="Noto Sans CJK JP" font-size="14" lengthAdjust="spacing" textLength="38" x="264.5" y="369.3157">name</text><text fill="#000000" font-family="Noto Sans CJK JP" font-size="14" lengthAdjust="spacing" textLength="27" x="264.5" y="389.5876">unit</text><text fill="#000000" font-family="Noto Sans CJK JP" font-size="14" lengthAdjust="spacing" textLength="75" x="264.5" y="409.8596">description</text><text fill="#000000" font-family="Noto Sans CJK JP" font-size="14" lengthAdjust="spacing" textLength="128" x="264.5" y="430.1315">data_source_name</text><text fill="#000000" font-family="Noto Sans CJK JP" font-size="14" lengthAdjust="spacing" textLength="108" x="264.5" y="450.4034">data_source_url</text><text fill="#000000" font-family="Noto Sans CJK JP" font-size="14" lengthAdjust="spacing" textLength="90" x="264.5" y="470.6753">metadata_url</text><line style="stroke:#181818;stroke-width:0.5;" x1="245.5" x2="415.5" y1="478.7073" y2="478.7073"/><text fill="#000000" font-family="Noto Sans CJK JP" font-size="14" lengthAdjust="spacing" textLength="160" x="250.5" y="498.9472">&#171;UNIQUE(group, name)&#187;</text></g><!--class ClimateData--><g id="elem_ClimateData"><rect codeLine="39" fill="#F1F1F1" height="189.9034" id="ClimateData" rx="2.5" ry="2.5" style="stroke:#181818;stroke-width:0.5;" width="231" x="296" y="586.532"/><ellipse cx="372.25" cy="602.532" fill="#ADD1B2" rx="11" ry="11" style="stroke:#181818;stroke-width:1.0;"/><path d="M376.3594,608.532 L368.6406,608.532 L368.6406,596.1414 L376.3594,596.1414 L376.3594,598.2976 L371.0938,598.2976 L371.0938,600.9695 L375.8594,600.9695 L375.8594,603.1257 L371.0938,603.1257 L371.0938,606.3757 L376.3594,606.3757 L376.3594,608.532 Z " fill="#000000"/><text fill="#000000" font-family="Noto Sans CJK JP" font-size="14" lengthAdjust="spacing" textLength="70" x="392.75" y="608.636">&#27671;&#20505;&#12487;&#12540;&#12479;</text><line style="stroke:#181818;stroke-width:0.5;" x1="297" x2="526" y1="618.532" y2="618.532"/><ellipse cx="307" cy="634.1679" fill="none" rx="3" ry="3" style="stroke:#038048;stroke-width:1.0;"/><text fill="#000000" font-family="Noto Sans CJK JP" font-size="14" lengthAdjust="spacing" textLength="48" x="316" y="638.7719">id &#171;PK&#187;</text><text fill="#000000" font-family="Noto Sans CJK JP" font-size="14" lengthAdjust="spacing" textLength="76" x="316" y="659.0438">region &#171;FK&#187;</text><text fill="#000000" font-family="Noto Sans CJK JP" font-size="14" lengthAdjust="spacing" textLength="93" x="316" y="679.3157">indicator &#171;FK&#187;</text><text fill="#000000" font-family="Noto Sans CJK JP" font-size="14" lengthAdjust="spacing" textLength="28" x="316" y="699.5876">year</text><text fill="#000000" font-family="Noto Sans CJK JP" font-size="14" lengthAdjust="spacing" textLength="36" x="316" y="719.8596">value</text><text fill="#000000" font-family="Noto Sans CJK JP" font-size="14" lengthAdjust="spacing" textLength="78" x="316" y="740.1315">updated_at</text><line style="stroke:#181818;stroke-width:0.5;" x1="297" x2="526" y1="748.1635" y2="748.1635"/><text fill="#000000" font-family="Noto Sans CJK JP" font-size="14" lengthAdjust="spacing" textLength="219" x="302" y="768.4034">&#171;UNIQUE(region, indicator, year)&#187;</text></g><g id="elem_GMN12"><path d="M6,377.032 L6,405.856 A0,0 0 0 0 6,405.856 L209,405.856 A0,0 0 0 0 209,405.856 L209,387.032 L199,377.032 L111.5,377.032 L107.5,194.672 L103.5,377.032 L6,377.032 A0,0 0 0 0 6,377.032 " fill="#FEFFDD" style="stroke:#181818;stroke-width:0.5;"/><path d="M199,377.032 L199,387.032 L209,387.032 L199,377.032 " fill="#FEFFDD" style="stroke:#181818;stroke-width:0.5;"/><text fill="#000000" font-family="Noto Sans CJK JP" font-size="13" lengthAdjust="spacing" textLength="182" x="12" y="397.112">&#29694;&#22312;&#12399;&#35469;&#35388;&#23554;&#29992;&#12456;&#12531;&#12486;&#12451;&#12486;&#12451;&#12290;</text></g><!--link IndicatorGroup to Indicator--><g id="link_IndicatorGroup_Indicator"><path codeLine="49" d="M330.5,182.602 C330.5,211.762 330.5,223.022 330.5,258.342 " fill="none" id="IndicatorGroup-Indicator" style="stroke:#181818;stroke-width:1.0;"/><line style="stroke:#181818;stroke-width:1.0;" x1="326.5" x2="334.5" y1="178.602" y2="178.602"/><line style="stroke:#181818;stroke-width:1.0;" x1="326.5" x2="334.5" y1="181.602" y2="181.602"/><line style="stroke:#181818;stroke-width:1.0;" x1="330.5" x2="330.5" y1="182.602" y2="174.602"/><line style="stroke:#181818;stroke-width:1.0;" x1="330.5" x2="336.5" y1="268.342" y2="276.342"/><line style="stroke:#181818;stroke-width:1.0;" x1="330.5" x2="324.5" y1="268.342" y2="276.342"/><line style="stroke:#181818;stroke-width:1.0;" x1="330.5" x2="330.5" y1="268.342" y2="276.342"/><ellipse cx="330.5" cy="262.342" fill="none" rx="4" ry="4" style="stroke:#181818;stroke-width:1.0;"/><text fill="#000000" font-family="Noto Sans CJK JP" font-size="13" lengthAdjust="spacing" textLength="36" x="331.5" y="242.612">group</text></g><!--link Region to ClimateData--><g id="link_Region_ClimateData"><path codeLine="51" d="M493.3427,453.8863 C479.1427,493.2063 468.3527,523.0817 451.5927,569.5017 " fill="none" id="Region-ClimateData" style="stroke:#181818;stroke-width:1.0;"/><line style="stroke:#181818;stroke-width:1.0;" x1="490.9391" x2="498.4635" y1="448.7655" y2="451.4828"/><line style="stroke:#181818;stroke-width:1.0;" x1="489.9201" x2="497.4445" y1="451.5871" y2="454.3045"/><line style="stroke:#181818;stroke-width:1.0;" x1="493.3427" x2="496.06" y1="453.8863" y2="446.362"/><line style="stroke:#181818;stroke-width:1.0;" x1="448.1968" x2="451.1234" y1="578.9074" y2="588.4696"/><line style="stroke:#181818;stroke-width:1.0;" x1="448.1968" x2="439.8366" y1="578.9074" y2="584.3944"/><line style="stroke:#181818;stroke-width:1.0;" x1="448.1968" x2="445.48" y1="578.9074" y2="586.432"/><ellipse cx="450.2343" cy="573.264" fill="none" rx="4" ry="4" style="stroke:#181818;stroke-width:1.0;"/><text fill="#000000" font-family="Noto Sans CJK JP" font-size="13" lengthAdjust="spacing" textLength="39" x="464.5" y="552.612">region</text></g><!--link Indicator to ClimateData--><g id="link_Indicator_ClimateData"><path codeLine="52" d="M364.7961,514.4731 C372.2161,540.8531 372.9862,543.6044 380.1362,569.0244 " fill="none" id="Indicator-ClimateData" style="stroke:#181818;stroke-width:1.0;"/><line style="stroke:#181818;stroke-width:1.0;" x1="359.8625" x2="367.5636" y1="511.7056" y2="509.5395"/><line style="stroke:#181818;stroke-width:1.0;" x1="360.6748" x2="368.3759" y1="514.5936" y2="512.4274"/><line style="stroke:#181818;stroke-width:1.0;" x1="364.7961" x2="362.63" y1="514.4731" y2="506.772"/><line style="stroke:#181818;stroke-width:1.0;" x1="382.8439" x2="390.7859" y1="578.6508" y2="584.7274"/><line style="stroke:#181818;stroke-width:1.0;" x1="382.8439" x2="379.2341" y1="578.6508" y2="587.9766"/><line style="stroke:#181818;stroke-width:1.0;" x1="382.8439" x2="385.01" y1="578.6508" y2="586.352"/><ellipse cx="381.2193" cy="572.875" fill="none" rx="4" ry="4" style="stroke:#181818;stroke-width:1.0;"/><text fill="#000000" font-family="Noto Sans CJK JP" font-size="13" lengthAdjust="spacing" textLength="56" x="376.5" y="552.612">indicator</text></g><!--SRC=[TLDFIzn05B_dKpnoghX-0Gb2yHygBDgov-Kr6TV1pKoOJ1JH1Kr0BnKlWXIa7WebwC45eL2G-c66g1-ZCxFPxRYDbp3lpPlVd_TUqbtA4XGOGqIsCUlB5Sva6sC2VfjB3f-HfR2ulW7hcxxd9HZkOa_VVSpa3c6IXYWfPpuSUW0cbWVWg-AdAXvL_aj_VS0KEYaHjW9WbaOG19iR2mispFGDCsH1q6clRNMMwpo9aVRjAS4qtUSYie4frOU1Dt2aBFPfZ9B04jUFh1H7ItKzh6vkLF5TvRzL_ZHMz8dqjEncJJK9GCYZAM435_hvwzbp-KtbGrNS6R_5bOLUOv7f2XUhWcV9-nJJbYEIXe8cfftlC4sRc30ra_GiVn2i_6SiOrGsSEeO9NPJdecGT2VLRZ8Jewd4HABDZnDZCnyiQyjopJJqR7XL7MidPtP1dgoDUdvB6gxPY1WDot529ywTv051OGzxsCzgeuaMIQ8kohSYHuYjVpWj-zeHF3N5ewEvENxeT7n-r5vJMkzINUAwcQ-bktZDTHCXPhCPrzlyXKl9O-3Rzk_nNYx-LDUbEhb_lJr_BH-hOVvoMQgyLCM3AavL_gF-7kSUOH4O2Eyl]--></g></svg>