<?xml version="1.0" encoding="us-ascii" standalone="no"?><svg xmlns="http://www.w3.org/2000/svg" xmlns:xlink="http://www.w3.org/1999/xlink" contentStyleType="text/css" height="844px" preserveAspectRatio="none" style="width:704px;height:844px;background:#FFFFFF;" version="1.1" viewBox="0 0 704 844" width="704px" zoomAndPan="magnify"><defs/><g><!--cluster Authentication--><g id="cluster_Authentication"><path d="M130.5,6.532 L234.5,6.532 A3.75,3.75 0 0 1 237,9.032 L244,32.8039 L319.5,32.8039 A2.5,2.5 0 0 1 322,35.3039 L322,208.032 A2.5,2.5 0 0 1 319.5,210.532 L130.5,210.532 A2.5,2.5 0 0 1 128,208.032 L128,9.032 A2.5,2.5 0 0 1 130.5,6.532 " fill="none" style="stroke:#000000;stroke-width:1.5;"/><line style="stroke:#000000;stroke-width:1.5;" x1="128" x2="244" y1="32.8039" y2="32.8039"/><text fill="#000000" font-family="Noto Sans CJK JP" font-size="14" font-weight="bold" lengthAdjust="spacing" textLength="103" x="132" y="24.7719">Authentication</text></g><!--cluster Dataset Domain--><g id="cluster_Dataset Domain"><path d="M8.5,262.532 L119.5,262.532 A3.75,3.75 0 0 1 122,265.032 L129,288.8039 L337.5,288.8039 A2.5,2.5 0 0 1 340,291.3039 L340,835.032 A2.5,2.5 0 0 1 337.5,837.532 L8.5,837.532 A2.5,2.5 0 0 1 6,835.032 L6,265.032 A2.5,2.5 0 0 1 8.5,262.532 " fill="none" style="stroke:#000000;stroke-width:1.5;"/><line style="stroke:#000000;stroke-width:1.5;" x1="6" x2="129" y1="288.8039" y2="288.8039"/><text fill="#000000" font-family="Noto Sans CJK JP" font-size="14" font-weight="bold" lengthAdjust="spacing" textLength="110" x="10" y="280.7719">Dataset Domain</text></g><!--class User--><g id="elem_User"><rect codeLine="4" fill="#F1F1F1" height="149.3596" id="User" rx="2.5" ry="2.5" style="stroke:#181818;stroke-width:0.5;" width="162" x="144" y="45.532"/><ellipse cx="205.75" cy="61.532" fill="#ADD1B2" rx="11" ry="11" style="stroke:#181818;stroke-width:1.0;"/><path d="M209.8594,67.532 L202.1406,67.532 L202.1406,55.1414 L209.8594,55.1414 L209.8594,57.2976 L204.5938,57.2976 L204.5938,59.9695 L209.3594,59.9695 L209.3594,62.1257 L204.5938,62.1257 L204.5938,65.3757 L209.8594,65.3757 L209.8594,67.532 Z " fill="#000000"/><text fill="#000000" font-family="Noto Sans CJK JP" font-size="14" lengthAdjust="spacing" textLength="30" x="226.25" y="67.636">User</text><line style="stroke:#181818;stroke-width:0.5;" x1="145" x2="305" y1="77.532" y2="77.532"/><ellipse cx="155" cy="93.1679" fill="none" rx="3" ry="3" style="stroke:#038048;stroke-width:1.0;"/><text fill="#000000" font-family="Noto Sans CJK JP" font-size="14" lengthAdjust="spacing" textLength="48" x="164" y="97.7719">id &#171;PK&#187;</text><text fill="#000000" font-family="Noto Sans CJK JP" font-size="14" lengthAdjust="spacing" textLength="136" x="164" y="118.0438">username &#171;UNIQUE&#187;</text><text fill="#000000" font-family="Noto Sans CJK JP" font-size="14" lengthAdjust="spacing" textLength="37" x="164" y="138.3157">email</text><text fill="#000000" font-family="Noto Sans CJK JP" font-size="14" lengthAdjust="spacing" textLength="64" x="164" y="158.5876">password</text><text fill="#000000" font-family="Noto Sans CJK JP" font-size="14" lengthAdjust="spacing" textLength="38" x="164" y="178.8596">name</text><line style="stroke:#181818;stroke-width:0.5;" x1="145" x2="305" y1="186.8915" y2="186.8915"/></g><!--class Dataset--><g id="elem_Dataset"><rect codeLine="15" fill="#F1F1F1" height="210.1753" id="Dataset" rx="2.5" ry="2.5" style="stroke:#181818;stroke-width:0.5;" width="109" x="170.5" y="301.532"/><ellipse cx="197.2" cy="317.532" fill="#ADD1B2" rx="11" ry="11" style="stroke:#181818;stroke-width:1.0;"/><path d="M201.3094,323.532 L193.5906,323.532 L193.5906,311.1414 L201.3094,311.1414 L201.3094,313.2976 L196.0438,313.2976 L196.0438,315.9695 L200.8094,315.9695 L200.8094,318.1257 L196.0438,318.1257 L196.0438,321.3757 L201.3094,321.3757 L201.3094,323.532 Z " fill="#000000"/><text fill="#000000" font-family="Noto Sans CJK JP" font-size="14" lengthAdjust="spacing" textLength="51" x="213.8" y="323.636">Dataset</text><line style="stroke:#181818;stroke-width:0.5;" x1="171.5" x2="278.5" y1="333.532" y2="333.532"/><ellipse cx="181.5" cy="349.1679" fill="none" rx="3" ry="3" style="stroke:#038048;stroke-width:1.0;"/><text fill="#000000" font-family="Noto Sans CJK JP" font-size="14" lengthAdjust="spacing" textLength="48" x="190.5" y="353.7719">id &#171;PK&#187;</text><text fill="#000000" font-family="Noto Sans CJK JP" font-size="14" lengthAdjust="spacing" textLength="75" x="190.5" y="374.0438">owner &#171;FK&#187;</text><text fill="#000000" font-family="Noto Sans CJK JP" font-size="14" lengthAdjust="spacing" textLength="38" x="190.5" y="394.3157">name</text><text fill="#000000" font-family="Noto Sans CJK JP" font-size="14" lengthAdjust="spacing" textLength="73" x="190.5" y="414.5876">source_file</text><text fill="#000000" font-family="Noto Sans CJK JP" font-size="14" lengthAdjust="spacing" textLength="41" x="190.5" y="434.8596">status</text><text fill="#000000" font-family="Noto Sans CJK JP" font-size="14" lengthAdjust="spacing" textLength="52" x="190.5" y="455.1315">schema</text><text fill="#000000" font-family="Noto Sans CJK JP" font-size="14" lengthAdjust="spacing" textLength="83" x="190.5" y="475.4034">parse_result</text><text fill="#000000" font-family="Noto Sans CJK JP" font-size="14" lengthAdjust="spacing" textLength="71" x="190.5" y="495.6753">created_at</text><line style="stroke:#181818;stroke-width:0.5;" x1="171.5" x2="278.5" y1="503.7073" y2="503.7073"/></g><!--class DataPoint--><g id="elem_DataPoint"><rect codeLine="26" fill="#F1F1F1" height="230.4472" id="DataPoint" rx="2.5" ry="2.5" style="stroke:#181818;stroke-width:0.5;" width="301" x="22.5" y="591.532"/><ellipse cx="135.75" cy="607.532" fill="#ADD1B2" rx="11" ry="11" style="stroke:#181818;stroke-width:1.0;"/><path d="M139.8594,613.532 L132.1406,613.532 L132.1406,601.1414 L139.8594,601.1414 L139.8594,603.2976 L134.5938,603.2976 L134.5938,605.9695 L139.3594,605.9695 L139.3594,608.1257 L134.5938,608.1257 L134.5938,611.3757 L139.8594,611.3757 L139.8594,613.532 Z " fill="#000000"/><text fill="#000000" font-family="Noto Sans CJK JP" font-size="14" lengthAdjust="spacing" textLength="66" x="156.25" y="613.636">DataPoint</text><line style="stroke:#181818;stroke-width:0.5;" x1="23.5" x2="322.5" y1="623.532" y2="623.532"/><ellipse cx="33.5" cy="639.1679" fill="none" rx="3" ry="3" style="stroke:#038048;stroke-width:1.0;"/><text fill="#000000" font-family="Noto Sans CJK JP" font-size="14" lengthAdjust="spacing" textLength="48" x="42.5" y="643.7719">id &#171;PK&#187;</text><text fill="#000000" font-family="Noto Sans CJK JP" font-size="14" lengthAdjust="spacing" textLength="84" x="42.5" y="664.0438">dataset &#171;FK&#187;</text><text fill="#000000" font-family="Noto Sans CJK JP" font-size="14" lengthAdjust="spacing" textLength="62" x="42.5" y="684.3157">raw_time</text><text fill="#000000" font-family="Noto Sans CJK JP" font-size="14" lengthAdjust="spacing" textLength="30" x="42.5" y="704.5876">time</text><text fill="#000000" font-family="Noto Sans CJK JP" font-size="14" lengthAdjust="spacing" textLength="38" x="42.5" y="724.8596">entity</text><text fill="#000000" font-family="Noto Sans CJK JP" font-size="14" lengthAdjust="spacing" textLength="42" x="42.5" y="745.1315">metric</text><text fill="#000000" font-family="Noto Sans CJK JP" font-size="14" lengthAdjust="spacing" textLength="36" x="42.5" y="765.4034">value</text><text fill="#000000" font-family="Noto Sans CJK JP" font-size="14" lengthAdjust="spacing" textLength="80" x="42.5" y="785.6753">order_index</text><line style="stroke:#181818;stroke-width:0.5;" x1="23.5" x2="322.5" y1="793.7073" y2="793.7073"/><text fill="#000000" font-family="Noto Sans CJK JP" font-size="14" lengthAdjust="spacing" textLength="289" x="28.5" y="813.9472">&#171;UNIQUE(dataset, entity, metric, raw_time)&#187;</text></g><g id="elem_GMN9"><path d="M359,682.532 L359,730.18 A0,0 0 0 0 359,730.18 L697,730.18 A0,0 0 0 0 697,730.18 L697,692.532 L687,682.532 L508.46,682.532 L279.52,461.152 L500.46,682.532 L359,682.532 A0,0 0 0 0 359,682.532 " fill="#FEFFDD" style="stroke:#181818;stroke-width:0.5;"/><path d="M687,682.532 L687,692.532 L697,692.532 L687,682.532 " fill="#FEFFDD" style="stroke:#181818;stroke-width:0.5;"/><text fill="#000000" font-family="Noto Sans CJK JP" font-size="13" lengthAdjust="spacing" textLength="317" x="365" y="702.612">status: UPLOADED / PROCESSING / PARSED / FAILED</text><text fill="#000000" font-family="Noto Sans CJK JP" font-size="13" lengthAdjust="spacing" textLength="246" x="365" y="721.436">schema and parse_result are JSONFields</text></g><!--link User to Dataset--><g id="link_User_Dataset"><path codeLine="38" d="M225,202.672 C225,235.182 225,247.992 225,283.392 " fill="none" id="User-Dataset" style="stroke:#181818;stroke-width:1.0;"/><line style="stroke:#181818;stroke-width:1.0;" x1="221" x2="229" y1="198.672" y2="198.672"/><line style="stroke:#181818;stroke-width:1.0;" x1="221" x2="229" y1="201.672" y2="201.672"/><line style="stroke:#181818;stroke-width:1.0;" x1="225" x2="225" y1="202.672" y2="194.672"/><line style="stroke:#181818;stroke-width:1.0;" x1="225" x2="231" y1="293.392" y2="301.392"/><line style="stroke:#181818;stroke-width:1.0;" x1="225" x2="219" y1="293.392" y2="301.392"/><line style="stroke:#181818;stroke-width:1.0;" x1="225" x2="225" y1="293.392" y2="301.392"/><ellipse cx="225" cy="287.392" fill="none" rx="4" ry="4" style="stroke:#181818;stroke-width:1.0;"/><text fill="#000000" font-family="Noto Sans CJK JP" font-size="13" lengthAdjust="spacing" textLength="38" x="226" y="242.612">owner</text></g><!--link Dataset to DataPoint--><g id="link_Dataset_DataPoint"><path codeLine="39" d="M205.4363,519.6432 C200.9463,545.4032 200.5718,547.5195 196.0018,573.7295 " fill="none" id="Dataset-DataPoint" style="stroke:#181818;stroke-width:1.0;"/><line style="stroke:#181818;stroke-width:1.0;" x1="202.1826" x2="210.0637" y1="515.0157" y2="516.3894"/><line style="stroke:#181818;stroke-width:1.0;" x1="201.6674" x2="209.5486" y1="517.9712" y2="519.3449"/><line style="stroke:#181818;stroke-width:1.0;" x1="205.4363" x2="206.81" y1="519.6432" y2="511.762"/><line style="stroke:#181818;stroke-width:1.0;" x1="194.2842" x2="198.8208" y1="583.5809" y2="592.4926"/><line style="stroke:#181818;stroke-width:1.0;" x1="194.2842" x2="186.9992" y1="583.5809" y2="590.4314"/><line style="stroke:#181818;stroke-width:1.0;" x1="194.2842" x2="192.91" y1="583.5809" y2="591.462"/><ellipse cx="195.3148" cy="577.6701" fill="none" rx="4" ry="4" style="stroke:#181818;stroke-width:1.0;"/><text fill="#000000" font-family="Noto Sans CJK JP" font-size="13" lengthAdjust="spacing" textLength="45" x="201" y="557.612">dataset</text></g><!--SRC=[RP5FRy8m3CNl_HHMJvi6sXrLI6Y5YJyg7HNdoclDY6WJbBXZqyPtNvgcZ4tS_FoI-ESNSn3oY1fhA6c7JSKp9Jd1cY1C52l8K1fuMYnXaOP1SCJYW6_McpIy9ycYG1PAXl0L0BIQFo7S6j8Xe86sS0x0WoWXYjBbUEnaOntP3ecYRJ9_sKvzdseKbQkEQCn9wTA9zgWjpi7v2Y56HaCCiRANFC8LXRSTI7_q9eiwIOiPHRE-uQS16DNeWlATgBncvCPqPR6th9vK6yer6HkUQnIQaAdCaHtpFwPK2VbBvTHjhj93Nv5fFEKiFDsbw5vtPKsiHU7ATwoQphSfaiw5BEd3wJxpEpzXu5yO-Ek3ovnxDzUjuFxo-tiuL5-NE4TTTjRjErS7kir6_Hhjrqd51A-AMTMWTlsbe8jr1DjqjPx4qnWU8TsidwPPDa-UMp7PPAuxcynNqpZeiWUKvP_i0JN18bidCq5LQGAoVZin-040]--></g></svg>