<?xml version="1.0" encoding="us-ascii" standalone="no"?><svg xmlns="http://www.w3.org/2000/svg" xmlns:xlink="http://www.w3.org/1999/xlink" contentStyleType="text/css" height="516px" preserveAspectRatio="none" style="width:679px;height:516px;background:#FFFFFF;" version="1.1" viewBox="0 0 679 516" width="679px" zoomAndPan="magnify"><defs/><g><!--cluster Vizshare App--><g id="cluster_Vizshare App"><rect fill="none" height="503" rx="2.5" ry="2.5" style="stroke:#181818;stroke-width:1.0;" width="301" x="135" y="7"/><text fill="#000000" font-family="Noto Sans CJK JP" font-size="14" font-weight="bold" lengthAdjust="spacing" textLength="88" x="241.5" y="25.2399">Vizshare App</text></g><!--cluster Data Handling--><g id="cluster_Data Handling"><path d="M193.5,54 L291.5,54 A3.75,3.75 0 0 1 294,56.5 L301,80.2719 L377.5,80.2719 A2.5,2.5 0 0 1 380,82.7719 L380,213.5 A2.5,2.5 0 0 1 377.5,216 L193.5,216 A2.5,2.5 0 0 1 191,213.5 L191,56.5 A2.5,2.5 0 0 1 193.5,54 " fill="none" style="stroke:#000000;stroke-width:1.5;"/><line style="stroke:#000000;stroke-width:1.5;" x1="191" x2="301" y1="80.2719" y2="80.2719"/><text fill="#000000" font-family="Noto Sans CJK JP" font-size="14" font-weight="bold" lengthAdjust="spacing" textLength="97" x="195" y="72.2399">Data Handling</text></g><!--cluster Sharing & Interaction--><g id="cluster_Sharing &amp; Interaction"><path d="M161.5,240 L308.5,240 A3.75,3.75 0 0 1 311,242.5 L318,266.2719 L409.5,266.2719 A2.5,2.5 0 0 1 412,268.7719 L412,483.5 A2.5,2.5 0 0 1 409.5,486 L161.5,486 A2.5,2.5 0 0 1 159,483.5 L159,242.5 A2.5,2.5 0 0 1 161.5,240 " fill="none" style="stroke:#000000;stroke-width:1.5;"/><line style="stroke:#000000;stroke-width:1.5;" x1="159" x2="318" y1="266.2719" y2="266.2719"/><text fill="#000000" font-family="Noto Sans CJK JP" font-size="14" font-weight="bold" lengthAdjust="spacing" textLength="146" x="163" y="258.2399">Sharing &amp; Interaction</text></g><!--cluster External Storage--><g id="cluster_External Storage"><rect fill="none" height="91" rx="2.5" ry="2.5" style="stroke:#181818;stroke-width:1.0;" width="145" x="528" y="54"/><text fill="#000000" font-family="Noto Sans CJK JP" font-size="14" font-weight="bold" lengthAdjust="spacing" textLength="115" x="543" y="72.2399">External Storage</text></g><g id="elem_Upload CSV"><ellipse cx="285.2714" cy="110.8057" fill="#F1F1F1" rx="67.2714" ry="17.8057" style="stroke:#181818;stroke-width:0.5;"/><text fill="#000000" font-family="Noto Sans CJK JP" font-size="14" lengthAdjust="spacing" textLength="76" x="244.2714" y="116.1757">Upload CSV</text></g><g id="elem_Visualize Data"><ellipse cx="285.5007" cy="182.1001" fill="#F1F1F1" rx="78.5007" ry="18.1001" style="stroke:#181818;stroke-width:0.5;"/><text fill="#000000" font-family="Noto Sans CJK JP" font-size="14" lengthAdjust="spacing" textLength="93" x="236.0007" y="187.4701">Visualize Data</text></g><g id="elem_Share Data"><ellipse cx="285.2631" cy="296.7848" fill="#F1F1F1" rx="64.2631" ry="17.7848" style="stroke:#181818;stroke-width:0.5;"/><text fill="#000000" font-family="Noto Sans CJK JP" font-size="14" lengthAdjust="spacing" textLength="72" x="246.2631" y="302.1547">Share Data</text></g><g id="elem_Comment"><ellipse cx="285.499" cy="368.243" fill="#F1F1F1" rx="58.999" ry="17.743" style="stroke:#181818;stroke-width:0.5;"/><text fill="#000000" font-family="Noto Sans CJK JP" font-size="14" lengthAdjust="spacing" textLength="65" x="249.999" y="373.6129">Comment</text></g><g id="elem_View Shared Visualizations"><ellipse cx="285.383" cy="444.9766" fill="#F1F1F1" rx="110.383" ry="24.4766" style="stroke:#181818;stroke-width:0.5;"/><text fill="#000000" font-family="Noto Sans CJK JP" font-size="14" lengthAdjust="spacing" textLength="176" x="194.383" y="450.3466">View Shared Visualizations</text></g><g id="elem_Store CSV"><ellipse cx="600.7432" cy="111.2227" fill="#F1F1F1" rx="56.7432" ry="17.7227" style="stroke:#181818;stroke-width:0.5;"/><text fill="#000000" font-family="Noto Sans CJK JP" font-size="14" lengthAdjust="spacing" textLength="62" x="566.7432" y="116.5926">Store CSV</text></g><!--entity generalUser--><g id="elem_generalUser"><ellipse cx="47" cy="265.5" fill="#F1F1F1" rx="8" ry="8" style="stroke:#181818;stroke-width:0.5;"/><path d="M47,273.5 L47,300.5 M34,281.5 L60,281.5 M47,300.5 L34,315.5 M47,300.5 L60,315.5 " fill="none" style="stroke:#181818;stroke-width:0.5;"/><text fill="#000000" font-family="Noto Sans CJK JP" font-size="14" lengthAdjust="spacing" textLength="82" x="6" y="333.2399">GeneralUser</text></g><!--link generalUser to Upload CSV--><g id="link_generalUser_Upload CSV"><path d="M58.62,256.71 C69.87,222.09 91.07,173.53 127,146 C152.9,126.15 181.9,117.8934 212.29,113.9434 " fill="none" id="generalUser-to-Upload CSV" style="stroke:#181818;stroke-width:1.0;"/><polygon fill="#181818" points="218.24,113.17,208.7995,110.3634,213.2817,113.8145,209.8306,118.2967,218.24,113.17" style="stroke:#181818;stroke-width:1.0;"/></g><!--link Upload CSV to Store CSV--><g id="link_Upload CSV_Store CSV"><path d="M353.26,111 C410,111 484.5,111 537.82,111 " fill="none" id="Upload CSV-to-Store CSV" style="stroke:#181818;stroke-width:1.0;stroke-dasharray:7.0,7.0;"/><polygon fill="#181818" points="543.82,111,534.82,107,538.82,111,534.82,115,543.82,111" style="stroke:#181818;stroke-width:1.0;"/><text fill="#000000" font-family="Noto Sans CJK JP" font-size="13" lengthAdjust="spacing" textLength="58" x="453" y="107.08">&#171;include&#187;</text></g><!--link generalUser to Visualize Data--><g id="link_generalUser_Visualize Data"><path d="M88.12,277.49 C133.98,255.19 202.8241,221.7137 245.6841,200.8737 " fill="none" id="generalUser-to-Visualize Data" style="stroke:#181818;stroke-width:1.0;"/><polygon fill="#181818" points="251.08,198.25,241.237,198.5882,246.5834,200.4364,244.7352,205.7828,251.08,198.25" style="stroke:#181818;stroke-width:1.0;"/></g><!--link generalUser to Share Data--><g id="link_generalUser_Share Data"><path d="M88.12,297 C124.49,297 172.72,297 214.98,297 " fill="none" id="generalUser-to-Share Data" style="stroke:#181818;stroke-width:1.0;"/><polygon fill="#181818" points="220.98,297,211.98,293,215.98,297,211.98,301,220.98,297" style="stroke:#181818;stroke-width:1.0;"/></g><!--link generalUser to Comment--><g id="link_generalUser_Comment"><path d="M88.01,316.51 C100.32,322.03 114.05,327.69 127,332 C162.27,343.72 197.3336,351.7878 228.6336,357.9678 " fill="none" id="generalUser-to-Comment" style="stroke:#181818;stroke-width:1.0;"/><polygon fill="#181818" points="234.52,359.13,226.4653,353.4624,229.6147,358.1615,224.9156,361.3109,234.52,359.13" style="stroke:#181818;stroke-width:1.0;"/></g><!--link generalUser to View Shared Visualizations--><g id="link_generalUser_View Shared Visualizations"><path d="M68.94,337.12 C82.62,359.61 102.49,386.39 127,403 C146.56,416.25 164.3298,423.7571 187.1898,429.9671 " fill="none" id="generalUser-to-View Shared Visualizations" style="stroke:#181818;stroke-width:1.0;"/><polygon fill="#181818" points="192.98,431.54,185.3434,425.3205,188.1549,430.2292,183.2462,433.0407,192.98,431.54" style="stroke:#181818;stroke-width:1.0;"/></g><!--SRC=[TP3DQiCm48JlUeh1XpOz90zGWY6uloc4WedlYxrnH6J9I38jANdtoZPndBevwB2xeszsnnsahibIXO9tr2Z_OhJVKCM8DiORfAGTalK7rf-HKBpp24qhoxr78ItdNXej1ENUMBooPajgwzY27CfBAKGh9LsgmCtaqUt9CbPr7U5703Nb1oh3w8ayuOrqeQGk-namszRAK84apHxwHYPTGqeU6Us7jdaARmnAWq50u0xlseSjkZq7ODhPd_-6HcAgYhKVyFo5JbFWR4KjmFLMfwjpdh-3WIQ5D6GGp7kNMLjnltFGtsFLHkGWB-iuCKe8ytbyVUcum68HZv5un78fTQwQWkDuolaRq4GmJc0o7DBuXtixcLy0]--></g></svg>