<?xml version="1.0" encoding="us-ascii" standalone="no"?><svg xmlns="http://www.w3.org/2000/svg" xmlns:xlink="http://www.w3.org/1999/xlink" contentStyleType="text/css" height="526px" preserveAspectRatio="none" style="width:415px;height:526px;background:#FFFFFF;" version="1.1" viewBox="0 0 415 526" width="415px" zoomAndPan="magnify"><defs/><g><!--cluster Vizshare App--><g id="cluster_Vizshare App"><rect fill="none" height="513" rx="2.5" ry="2.5" style="stroke:#181818;stroke-width:1.0;" width="301" x="108" y="7"/><text fill="#000000" font-family="Noto Sans CJK JP" font-size="14" font-weight="bold" lengthAdjust="spacing" textLength="88" x="214.5" y="25.2399">Vizshare App</text></g><!--cluster Data Handling--><g id="cluster_Data Handling"><path d="M166.5,54 L264.5,54 A3.75,3.75 0 0 1 267,56.5 L274,80.2719 L350.5,80.2719 A2.5,2.5 0 0 1 353,82.7719 L353,213.5 A2.5,2.5 0 0 1 350.5,216 L166.5,216 A2.5,2.5 0 0 1 164,213.5 L164,56.5 A2.5,2.5 0 0 1 166.5,54 " fill="none" style="stroke:#000000;stroke-width:1.5;"/><line style="stroke:#000000;stroke-width:1.5;" x1="164" x2="274" y1="80.2719" y2="80.2719"/><text fill="#000000" font-family="Noto Sans CJK JP" font-size="14" font-weight="bold" lengthAdjust="spacing" textLength="97" x="168" y="72.2399">Data Handling</text></g><!--cluster Sharing & Interaction--><g id="cluster_Sharing &amp; Interaction"><path d="M134.5,240 L281.5,240 A3.75,3.75 0 0 1 284,242.5 L291,266.2719 L382.5,266.2719 A2.5,2.5 0 0 1 385,268.7719 L385,493.5 A2.5,2.5 0 0 1 382.5,496 L134.5,496 A2.5,2.5 0 0 1 132,493.5 L132,242.5 A2.5,2.5 0 0 1 134.5,240 " fill="none" style="stroke:#000000;stroke-width:1.5;"/><line style="stroke:#000000;stroke-width:1.5;" x1="132" x2="291" y1="266.2719" y2="266.2719"/><text fill="#000000" font-family="Noto Sans CJK JP" font-size="14" font-weight="bold" lengthAdjust="spacing" textLength="146" x="136" y="258.2399">Sharing &amp; Interaction</text></g><g id="elem_Upload CSV"><ellipse cx="258.2714" cy="110.8057" fill="#F1F1F1" rx="67.2714" ry="17.8057" style="stroke:#181818;stroke-width:0.5;"/><text fill="#000000" font-family="Noto Sans CJK JP" font-size="14" lengthAdjust="spacing" textLength="76" x="217.2714" y="116.1757">Upload CSV</text></g><g id="elem_Visualize Data"><ellipse cx="258.5007" cy="182.1001" fill="#F1F1F1" rx="78.5007" ry="18.1001" style="stroke:#181818;stroke-width:0.5;"/><text fill="#000000" font-family="Noto Sans CJK JP" font-size="14" lengthAdjust="spacing" textLength="93" x="209.0007" y="187.4701">Visualize Data</text></g><g id="elem_Share Data"><ellipse cx="258.2631" cy="296.7848" fill="#F1F1F1" rx="64.2631" ry="17.7848" style="stroke:#181818;stroke-width:0.5;"/><text fill="#000000" font-family="Noto Sans CJK JP" font-size="14" lengthAdjust="spacing" textLength="72" x="219.2631" y="302.1547">Share Data</text></g><g id="elem_Browse Public Datasets"><ellipse cx="258.735" cy="373.147" fill="#F1F1F1" rx="101.235" ry="22.647" style="stroke:#181818;stroke-width:0.5;"/><text fill="#000000" font-family="Noto Sans CJK JP" font-size="14" lengthAdjust="spacing" textLength="154" x="178.735" y="378.517">Browse Public Datasets</text></g><g id="elem_View Shared Visualizations"><ellipse cx="258.383" cy="454.9766" fill="#F1F1F1" rx="110.383" ry="24.4766" style="stroke:#181818;stroke-width:0.5;"/><text fill="#000000" font-family="Noto Sans CJK JP" font-size="14" lengthAdjust="spacing" textLength="176" x="167.383" y="460.3466">View Shared Visualizations</text></g><!--entity generalUser--><g id="elem_generalUser"><ellipse cx="47" cy="265.5" fill="#F1F1F1" rx="8" ry="8" style="stroke:#181818;stroke-width:0.5;"/><path d="M47,273.5 L47,300.5 M34,281.5 L60,281.5 M47,300.5 L34,315.5 M47,300.5 L60,315.5 " fill="none" style="stroke:#181818;stroke-width:0.5;"/><text fill="#000000" font-family="Noto Sans CJK JP" font-size="14" lengthAdjust="spacing" textLength="82" x="6" y="333.2399">GeneralUser</text></g><!--link generalUser to Upload CSV--><g id="link_generalUser_Upload CSV"><path d="M51.16,256.72 C56.05,222.36 68.46,174.16 100,146 C124.55,124.08 153.7783,115.5872 184.6783,112.0772 " fill="none" id="generalUser-to-Upload CSV" style="stroke:#181818;stroke-width:1.0;"/><polygon fill="#181818" points="190.64,111.4,181.246,108.4414,185.6719,111.9643,182.149,116.3902,190.64,111.4" style="stroke:#181818;stroke-width:1.0;"/></g><!--link generalUser to Visualize Data--><g id="link_generalUser_Visualize Data"><path d="M88.05,270.22 C92.05,267.72 96.08,265.28 100,263 C141.59,238.8 185.793,216.5316 218.073,200.8516 " fill="none" id="generalUser-to-Visualize Data" style="stroke:#181818;stroke-width:1.0;"/><polygon fill="#181818" points="223.47,198.23,213.6268,198.5644,218.9725,200.4146,217.1223,205.7604,223.47,198.23" style="stroke:#181818;stroke-width:1.0;"/></g><!--link generalUser to Share Data--><g id="link_generalUser_Share Data"><path d="M88.39,297 C118.24,297 153.46,297 187.74,297 " fill="none" id="generalUser-to-Share Data" style="stroke:#181818;stroke-width:1.0;"/><polygon fill="#181818" points="193.74,297,184.74,293,188.74,297,184.74,301,193.74,297" style="stroke:#181818;stroke-width:1.0;"/></g><!--link generalUser to Browse Public Datasets--><g id="link_generalUser_Browse Public Datasets"><path d="M88.11,325.88 C92.03,328.13 96.03,330.21 100,332 C125.37,343.44 148.7099,350.7224 174.9899,357.1124 " fill="none" id="generalUser-to-Browse Public Datasets" style="stroke:#181818;stroke-width:1.0;"/><polygon fill="#181818" points="180.82,358.53,173.0199,352.5168,175.9616,357.3487,171.1297,360.2904,180.82,358.53" style="stroke:#181818;stroke-width:1.0;"/></g><!--link generalUser to View Shared Visualizations--><g id="link_generalUser_View Shared Visualizations"><path d="M56.58,337.03 C63.99,362.26 77.22,393.62 100,413 C117.13,427.58 133.0555,435.4856 154.8055,441.7656 " fill="none" id="generalUser-to-View Shared Visualizations" style="stroke:#181818;stroke-width:1.0;"/><polygon fill="#181818" points="160.57,443.43,153.0328,437.0904,155.7662,442.043,150.8136,444.7764,160.57,443.43" style="stroke:#181818;stroke-width:1.0;"/></g><!--SRC=[TO_1JiCm44Jl_efH3WWE_GKaA09QfAfIrDoNU9jQTMtBtgXIKVyT9r5B8FJWWsTsPzwclN618XsWUKkjbLVlP4K7Hh7oub6IIvWlFx1S5yhoLf35Q9gTG9l8jHZlbA9QVCGREuvaDuaZAA7v-IhLZP9hRCwjp2djA3AUGYZmfO10zPwQRBsG4Dx9QMjSCtZ0_IPOJnhpideOXCgabgmvCRg5JZpdDmugSq6Em1qMJZ95ptaDBFlwosuMdgC_9iQw_RIcxet4agvjV4I_ed5ffYul3SrdfKQdOZPx_8qyCV_YJmR6V1Fp5ki_DRUvlm40]--></g></svg>