<?xml version="1.0" encoding="us-ascii" standalone="no"?><svg xmlns="http://www.w3.org/2000/svg" xmlns:xlink="http://www.w3.org/1999/xlink" contentStyleType="text/css" height="517px" preserveAspectRatio="none" style="width:1685px;height:517px;background:#FFFFFF;" version="1.1" viewBox="0 0 1685 517" width="1685px" zoomAndPan="magnify"><defs/><g><!--cluster Vercel--><g id="cluster_Vercel"><path d="M825.5,57.532 L868.5,57.532 A3.75,3.75 0 0 1 871,60.032 L878,83.8039 L1001.5,83.8039 A2.5,2.5 0 0 1 1004,86.3039 L1004,160.032 A2.5,2.5 0 0 1 1001.5,162.532 L825.5,162.532 A2.5,2.5 0 0 1 823,160.032 L823,60.032 A2.5,2.5 0 0 1 825.5,57.532 " fill="none" style="stroke:#000000;stroke-width:1.5;"/><line style="stroke:#000000;stroke-width:1.5;" x1="823" x2="878" y1="83.8039" y2="83.8039"/><text fill="#000000" font-family="Noto Sans CJK JP" font-size="14" font-weight="bold" lengthAdjust="spacing" textLength="42" x="827" y="75.7719">Vercel</text></g><!--cluster Google Cloud--><g id="cluster_Google Cloud"><path d="M501.5,186.532 L593.5,186.532 A3.75,3.75 0 0 1 596,189.032 L603,212.8039 L1675.5,212.8039 A2.5,2.5 0 0 1 1678,215.3039 L1678,379.032 A2.5,2.5 0 0 1 1675.5,381.532 L501.5,381.532 A2.5,2.5 0 0 1 499,379.032 L499,189.032 A2.5,2.5 0 0 1 501.5,186.532 " fill="none" style="stroke:#000000;stroke-width:1.5;"/><line style="stroke:#000000;stroke-width:1.5;" x1="499" x2="603" y1="212.8039" y2="212.8039"/><text fill="#000000" font-family="Noto Sans CJK JP" font-size="14" font-weight="bold" lengthAdjust="spacing" textLength="91" x="503" y="204.7719">Google Cloud</text></g><!--cluster Neon--><g id="cluster_Neon"><path d="M1469.5,405.532 L1506.5,405.532 A3.75,3.75 0 0 1 1509,408.032 L1516,431.8039 L1650.5,431.8039 A2.5,2.5 0 0 1 1653,434.3039 L1653,508.032 A2.5,2.5 0 0 1 1650.5,510.532 L1469.5,510.532 A2.5,2.5 0 0 1 1467,508.032 L1467,408.032 A2.5,2.5 0 0 1 1469.5,405.532 " fill="none" style="stroke:#000000;stroke-width:1.5;"/><line style="stroke:#000000;stroke-width:1.5;" x1="1467" x2="1516" y1="431.8039" y2="431.8039"/><text fill="#000000" font-family="Noto Sans CJK JP" font-size="14" font-weight="bold" lengthAdjust="spacing" textLength="36" x="1471" y="423.7719">Neon</text></g><!--cluster GitHub--><g id="cluster_GitHub"><path d="M187.5,6.532 L237.5,6.532 A3.75,3.75 0 0 1 240,9.032 L247,32.8039 L374.5,32.8039 A2.5,2.5 0 0 1 377,35.3039 L377,109.032 A2.5,2.5 0 0 1 374.5,111.532 L187.5,111.532 A2.5,2.5 0 0 1 185,109.032 L185,9.032 A2.5,2.5 0 0 1 187.5,6.532 " fill="none" style="stroke:#000000;stroke-width:1.5;"/><line style="stroke:#000000;stroke-width:1.5;" x1="185" x2="247" y1="32.8039" y2="32.8039"/><text fill="#000000" font-family="Noto Sans CJK JP" font-size="14" font-weight="bold" lengthAdjust="spacing" textLength="49" x="189" y="24.7719">GitHub</text></g><!--entity Frontend--><g id="elem_Frontend"><rect fill="#F1F1F1" height="50.2719" rx="2.5" ry="2.5" style="stroke:#181818;stroke-width:0.5;" width="149" x="839" y="96.532"/><rect fill="#F1F1F1" height="10" style="stroke:#181818;stroke-width:0.5;" width="15" x="968" y="101.532"/><rect fill="#F1F1F1" height="2" style="stroke:#181818;stroke-width:0.5;" width="4" x="966" y="103.532"/><rect fill="#F1F1F1" height="2" style="stroke:#181818;stroke-width:0.5;" width="4" x="966" y="107.532"/><text fill="#000000" font-family="Noto Sans CJK JP" font-size="14" lengthAdjust="spacing" textLength="109" x="854" y="132.7719">Next.js Frontend</text></g><!--entity CloudBuild--><g id="elem_CloudBuild"><rect fill="#F1F1F1" height="50.2719" rx="2.5" ry="2.5" style="stroke:#181818;stroke-width:0.5;" width="117" x="515" y="225.532"/><rect fill="#F1F1F1" height="10" style="stroke:#181818;stroke-width:0.5;" width="15" x="612" y="230.532"/><rect fill="#F1F1F1" height="2" style="stroke:#181818;stroke-width:0.5;" width="4" x="610" y="232.532"/><rect fill="#F1F1F1" height="2" style="stroke:#181818;stroke-width:0.5;" width="4" x="610" y="236.532"/><text fill="#000000" font-family="Noto Sans CJK JP" font-size="14" lengthAdjust="spacing" textLength="77" x="530" y="261.7719">Cloud Build</text></g><!--entity ArtifactRegistry--><g id="elem_ArtifactRegistry"><rect fill="#F1F1F1" height="50.2719" rx="2.5" ry="2.5" style="stroke:#181818;stroke-width:0.5;" width="144" x="841.5" y="315.532"/><rect fill="#F1F1F1" height="10" style="stroke:#181818;stroke-width:0.5;" width="15" x="965.5" y="320.532"/><rect fill="#F1F1F1" height="2" style="stroke:#181818;stroke-width:0.5;" width="4" x="963.5" y="322.532"/><rect fill="#F1F1F1" height="2" style="stroke:#181818;stroke-width:0.5;" width="4" x="963.5" y="326.532"/><text fill="#000000" font-family="Noto Sans CJK JP" font-size="14" lengthAdjust="spacing" textLength="104" x="856.5" y="351.7719">Artifact Registry</text></g><!--entity CloudRun--><g id="elem_CloudRun"><rect fill="#F1F1F1" height="50.2719" rx="2.5" ry="2.5" style="stroke:#181818;stroke-width:0.5;" width="210" x="1124" y="294.532"/><rect fill="#F1F1F1" height="10" style="stroke:#181818;stroke-width:0.5;" width="15" x="1314" y="299.532"/><rect fill="#F1F1F1" height="2" style="stroke:#181818;stroke-width:0.5;" width="4" x="1312" y="301.532"/><rect fill="#F1F1F1" height="2" style="stroke:#181818;stroke-width:0.5;" width="4" x="1312" y="305.532"/><text fill="#000000" font-family="Noto Sans CJK JP" font-size="14" lengthAdjust="spacing" textLength="170" x="1139" y="330.7719">Cloud Run (DRF Backend)</text></g><!--entity Logging--><g id="elem_Logging"><rect fill="#F1F1F1" height="50.2719" rx="2.5" ry="2.5" style="stroke:#181818;stroke-width:0.5;" width="135" x="1492.5" y="313.532"/><rect fill="#F1F1F1" height="10" style="stroke:#181818;stroke-width:0.5;" width="15" x="1607.5" y="318.532"/><rect fill="#F1F1F1" height="2" style="stroke:#181818;stroke-width:0.5;" width="4" x="1605.5" y="320.532"/><rect fill="#F1F1F1" height="2" style="stroke:#181818;stroke-width:0.5;" width="4" x="1605.5" y="324.532"/><text fill="#000000" font-family="Noto Sans CJK JP" font-size="14" lengthAdjust="spacing" textLength="95" x="1507.5" y="349.7719">Cloud Logging</text></g><!--entity CloudStorage--><g id="elem_CloudStorage"><rect fill="#F1F1F1" height="50.2719" rx="2.5" ry="2.5" style="stroke:#181818;stroke-width:0.5;" width="204" x="1458" y="228.532"/><rect fill="#F1F1F1" height="10" style="stroke:#181818;stroke-width:0.5;" width="15" x="1642" y="233.532"/><rect fill="#F1F1F1" height="2" style="stroke:#181818;stroke-width:0.5;" width="4" x="1640" y="235.532"/><rect fill="#F1F1F1" height="2" style="stroke:#181818;stroke-width:0.5;" width="4" x="1640" y="239.532"/><text fill="#000000" font-family="Noto Sans CJK JP" font-size="14" lengthAdjust="spacing" textLength="164" x="1473" y="264.7719">Cloud Storage (CSV Files)</text></g><!--entity NeonPostgreSQL--><g id="elem_NeonPostgreSQL"><rect fill="#F1F1F1" height="50.2719" rx="2.5" ry="2.5" style="stroke:#181818;stroke-width:0.5;" width="154" x="1483" y="444.532"/><rect fill="#F1F1F1" height="10" style="stroke:#181818;stroke-width:0.5;" width="15" x="1617" y="449.532"/><rect fill="#F1F1F1" height="2" style="stroke:#181818;stroke-width:0.5;" width="4" x="1615" y="451.532"/><rect fill="#F1F1F1" height="2" style="stroke:#181818;stroke-width:0.5;" width="4" x="1615" y="455.532"/><text fill="#000000" font-family="Noto Sans CJK JP" font-size="14" lengthAdjust="spacing" textLength="114" x="1498" y="480.7719">Neon PostgreSQL</text></g><!--entity GitHubRepo--><g id="elem_GitHubRepo"><rect fill="#F1F1F1" height="50.2719" rx="2.5" ry="2.5" style="stroke:#181818;stroke-width:0.5;" width="160" x="201" y="45.532"/><rect fill="#F1F1F1" height="10" style="stroke:#181818;stroke-width:0.5;" width="15" x="341" y="50.532"/><rect fill="#F1F1F1" height="2" style="stroke:#181818;stroke-width:0.5;" width="4" x="339" y="52.532"/><rect fill="#F1F1F1" height="2" style="stroke:#181818;stroke-width:0.5;" width="4" x="339" y="56.532"/><text fill="#000000" font-family="Noto Sans CJK JP" font-size="14" lengthAdjust="spacing" textLength="120" x="216" y="81.7719">GitHub Repository</text></g><!--entity User--><g id="elem_User"><ellipse cx="573.5" cy="99.032" fill="#F1F1F1" rx="8" ry="8" style="stroke:#181818;stroke-width:0.5;"/><path d="M573.5,107.032 L573.5,134.032 M560.5,115.032 L586.5,115.032 M573.5,134.032 L560.5,149.032 M573.5,134.032 L586.5,149.032 " fill="none" style="stroke:#181818;stroke-width:0.5;"/><text fill="#000000" font-family="Noto Sans CJK JP" font-size="14" lengthAdjust="spacing" textLength="30" x="558.5" y="166.7719">User</text></g><!--entity Developer--><g id="elem_Developer"><ellipse cx="39.5" cy="39.032" fill="#F1F1F1" rx="8" ry="8" style="stroke:#181818;stroke-width:0.5;"/><path d="M39.5,47.032 L39.5,74.032 M26.5,55.032 L52.5,55.032 M39.5,74.032 L26.5,89.032 M39.5,74.032 L52.5,89.032 " fill="none" style="stroke:#181818;stroke-width:0.5;"/><text fill="#000000" font-family="Noto Sans CJK JP" font-size="14" lengthAdjust="spacing" textLength="67" x="6" y="106.7719">Developer</text></g><!--link Developer to GitHubRepo--><g id="link_Developer_GitHubRepo"><path d="M73.3,70.532 C106.03,70.532 151.57,70.532 194.99,70.532 " fill="none" id="Developer-to-GitHubRepo" style="stroke:#181818;stroke-width:1.0;"/><polygon fill="#181818" points="200.99,70.532,191.99,66.532,195.99,70.532,191.99,74.532,200.99,70.532" style="stroke:#181818;stroke-width:1.0;"/><text fill="#000000" font-family="Noto Sans CJK JP" font-size="13" lengthAdjust="spacing" textLength="64" x="104" y="66.612">Push Code</text></g><!--link GitHubRepo to CloudBuild--><g id="link_GitHubRepo_CloudBuild"><path d="M322.39,95.562 C377.74,129.852 471.4696,187.932 526.8796,222.262 " fill="none" id="GitHubRepo-to-CloudBuild" style="stroke:#181818;stroke-width:1.0;"/><polygon fill="#181818" points="531.98,225.422,526.4361,217.2817,527.7297,222.7886,522.2227,224.0822,531.98,225.422" style="stroke:#181818;stroke-width:1.0;"/><text fill="#000000" font-family="Noto Sans CJK JP" font-size="13" lengthAdjust="spacing" textLength="80" x="394" y="140.612">Trigger CI/CD</text></g><!--link CloudBuild to ArtifactRegistry--><g id="link_CloudBuild_ArtifactRegistry"><path d="M632.22,265.902 C690.01,281.292 773.2519,303.4585 835.4219,320.0085 " fill="none" id="CloudBuild-to-ArtifactRegistry" style="stroke:#181818;stroke-width:1.0;"/><polygon fill="#181818" points="841.22,321.552,833.5519,315.3714,836.3883,320.2657,831.4939,323.1021,841.22,321.552" style="stroke:#181818;stroke-width:1.0;"/><text fill="#000000" font-family="Noto Sans CJK JP" font-size="13" lengthAdjust="spacing" textLength="133" x="673" y="273.612">Push Container Image</text></g><!--link CloudBuild to CloudRun--><g id="link_CloudBuild_CloudRun"><path d="M632.41,247.932 C679.51,246.442 747.66,245.702 807,250.532 C915.89,259.392 1033.1727,279.7946 1118.0227,296.4746 " fill="none" id="CloudBuild-to-CloudRun" style="stroke:#181818;stroke-width:1.0;"/><polygon fill="#181818" points="1123.91,297.632,1115.8506,291.9711,1119.0039,296.6675,1114.3075,299.8208,1123.91,297.632" style="stroke:#181818;stroke-width:1.0;"/><text fill="#000000" font-family="Noto Sans CJK JP" font-size="13" lengthAdjust="spacing" textLength="83" x="872" y="248.612">Deploy Image</text></g><!--link ArtifactRegistry to CloudRun--><g id="link_ArtifactRegistry_CloudRun"><path d="M985.64,335.762 C1026.47,333.032 1072.4834,329.9532 1117.8434,326.9132 " fill="none" id="ArtifactRegistry-to-CloudRun" style="stroke:#181818;stroke-width:1.0;"/><polygon fill="#181818" points="1123.83,326.512,1114.5827,323.1228,1118.8412,326.8463,1115.1176,331.1049,1123.83,326.512" style="stroke:#181818;stroke-width:1.0;"/><text fill="#000000" font-family="Noto Sans CJK JP" font-size="13" lengthAdjust="spacing" textLength="64" x="1025" y="325.612">Pull Image</text></g><!--link GitHubRepo to Frontend--><g id="link_GitHubRepo_Frontend"><path d="M361.13,67.822 C434.16,66.072 545.55,65.282 642,72.532 C715.9,78.082 734.21,82.642 807,96.532 C817.35,98.512 822.3763,99.4953 833.0463,101.8953 " fill="none" id="GitHubRepo-to-Frontend" style="stroke:#181818;stroke-width:1.0;"/><polygon fill="#181818" points="838.9,103.212,830.9972,97.3345,834.0219,102.1147,829.2416,105.1395,838.9,103.212" style="stroke:#181818;stroke-width:1.0;"/><text fill="#000000" font-family="Noto Sans CJK JP" font-size="13" lengthAdjust="spacing" textLength="135" x="506" y="63.612">Deploy Next.js (Vercel)</text></g><!--link User to Frontend--><g id="link_User_Frontend"><path d="M588.59,130.152 C630.57,129.042 750.9521,125.8316 832.8721,123.6516 " fill="none" id="User-to-Frontend" style="stroke:#181818;stroke-width:1.0;"/><polygon fill="#181818" points="838.87,123.492,829.7668,119.7328,833.8718,123.625,829.9796,127.73,838.87,123.492" style="stroke:#181818;stroke-width:1.0;"/><text fill="#000000" font-family="Noto Sans CJK JP" font-size="13" lengthAdjust="spacing" textLength="85" x="697" y="120.612">HTTP Request</text></g><!--link Frontend to CloudRun--><g id="link_Frontend_CloudRun"><path d="M954.2,146.612 C1014.34,184.592 1122.8068,253.0984 1183.0468,291.1384 " fill="none" id="Frontend-to-CloudRun" style="stroke:#181818;stroke-width:1.0;"/><polygon fill="#181818" points="1188.12,294.342,1182.646,286.1545,1183.8924,291.6723,1178.3745,292.9187,1188.12,294.342" style="stroke:#181818;stroke-width:1.0;"/><text fill="#000000" font-family="Noto Sans CJK JP" font-size="13" lengthAdjust="spacing" textLength="72" x="1021" y="187.612">API Request</text></g><!--link CloudRun to NeonPostgreSQL--><g id="link_CloudRun_NeonPostgreSQL"><path d="M1285.07,344.642 C1345.89,372.372 1437.7808,414.2626 1498.5708,441.9826 " fill="none" id="CloudRun-to-NeonPostgreSQL" style="stroke:#181818;stroke-width:1.0;"/><polygon fill="#181818" points="1504.03,444.472,1497.5008,437.0984,1499.4807,442.3975,1494.1816,444.3774,1504.03,444.472" style="stroke:#181818;stroke-width:1.0;"/><text fill="#000000" font-family="Noto Sans CJK JP" font-size="13" lengthAdjust="spacing" textLength="62" x="1365" y="377.612">DB Access</text></g><!--link CloudRun to CloudStorage--><g id="link_CloudRun_CloudStorage"><path d="M1334.1,298.652 C1373.63,290.722 1412.687,282.8813 1451.947,275.0113 " fill="none" id="CloudRun-to-CloudStorage" style="stroke:#181818;stroke-width:1.0;"/><polygon fill="#181818" points="1457.83,273.832,1448.2194,271.6789,1452.9275,274.8147,1449.7917,279.5229,1457.83,273.832" style="stroke:#181818;stroke-width:1.0;"/><text fill="#000000" font-family="Noto Sans CJK JP" font-size="13" lengthAdjust="spacing" textLength="33" x="1379.5" y="277.612">Store</text></g><!--link CloudRun to Logging--><g id="link_CloudRun_Logging"><path d="M1334.1,325.542 C1385.87,328.532 1440.92,331.7164 1486.33,334.3364 " fill="none" id="CloudRun-to-Logging" style="stroke:#181818;stroke-width:1.0;stroke-dasharray:7.0,7.0;"/><polygon fill="#181818" points="1492.32,334.682,1483.5653,330.1702,1487.3283,334.394,1483.1045,338.1569,1492.32,334.682" style="stroke:#181818;stroke-width:1.0;"/><text fill="#000000" font-family="Noto Sans CJK JP" font-size="13" lengthAdjust="spacing" textLength="62" x="1365" y="323.612">Send Logs</text></g><!--SRC=[XLJ1RjD04BtxAqQva1uQxaXKIXo5fbIHIKBlnjcuIvrTurqZAiG1-q2g8i655Wu85N50e08I9sW57xD4mAc_mAmTnuuJcfnstxvvCtup4x57cMy7zWW6P6Y7dcnn9ZlsY42bmoM7diq4c5itOSkg61uPIa0meEwkX04DY2CfPuPXEv87S5kGO7fiall4upxU3TzszcmNzNP8u12l0WyD08UFVCu8avY6F92rkm9Q0MOcR501ExyOZme2DpXtFGAcnyF1Wao2GYEaNggGt9FhFAyUI3h48g5BN2fai9-mCpG3bsbtGmRLPhS53Im8QrlBy-3JieXjxhgKkGblUbv6ww5Z-WEhPcy7MjGZeY0zVPmpeaCuM-8ZPs1n8Ts0z6vj9meQow5vCwdS3EyigAGmckDpGJ5rQa-AQb1hN87h__lXsz-Zmz-llgl7XoewKF4J5H-h-5H5xoxEnof-hk9OHPzLz5x5NrLyS75-SAdSR8vWVNsZK0PS0oiKks3o0J4Ai6RbdKTM7sVLnN2pVTLi6eKdpIntFLTbqgOCmzeZxNqfB6ivqfl4z_Z-bBOWLo9ReUTDgIiyLF4BRPgsQ5pmQfokq2hJIdvakvINcwrSDTLRMrbEz3PfuuV9fpT_JfvUojP_0kMqc_s-XIDrBoH26ZEyv4xTQiyucA7Pq5drg9ofw9in8-ge-R7MtzM0kkCG8NGaRf7sBph1eLFnnry_NqzENwhuRFBiQFBZU5wfk6Aeeqz9SvAH_P9pQxMDR8CrJPUFLs7y0m00]--></g></svg>