<?xml version="1.0" encoding="UTF-8"?>
<svg version="1.1" xmlns="http://www.w3.org/2000/svg" width="1536" height="1024">
<path d="M0 0 C506.88 0 1013.76 0 1536 0 C1536 337.92 1536 675.84 1536 1024 C1029.12 1024 522.24 1024 0 1024 C0 686.08 0 348.16 0 0 Z " fill="#FDFDFD" transform="translate(0,0)"/>
<path d="M0 0 C0.02505615 0.55872803 0.0501123 1.11745605 0.07592773 1.69311523 C0.19343105 4.27472428 0.3154438 6.85610236 0.4375 9.4375 C0.47681641 10.31599609 0.51613281 11.19449219 0.55664062 12.09960938 C0.59853516 12.97294922 0.64042969 13.84628906 0.68359375 14.74609375 C0.72025146 15.53685303 0.75690918 16.3276123 0.79467773 17.14233398 C0.96468747 19.50852183 1.20888496 21.83714344 1.48852539 24.19165039 C2.05730262 29.18480322 2.29956009 34.167847 2.5 39.1875 C2.54060547 40.13004639 2.58121094 41.07259277 2.62304688 42.04370117 C2.79487814 46.03448241 2.95962131 50.02554858 3.125 54.01660156 C3.24752884 56.94867832 3.37369129 59.88058402 3.5 62.8125 C3.55317383 64.14414185 3.55317383 64.14414185 3.60742188 65.50268555 C3.81802718 70.38217031 4.18800119 75.19970367 4.78929138 80.04722595 C5.09606927 82.89033654 5.09533924 85.70548655 5.0625 88.5625 C5.05347656 89.59503906 5.04445313 90.62757813 5.03515625 91.69140625 C5.02355469 92.45324219 5.01195312 93.21507812 5 94 C-0.48915752 92.0372757 -5.35971689 89.01677612 -10.38085938 86.1015625 C-13.9587189 83.82043243 -13.9587189 83.82043243 -18 83 C-18.32572998 83.70793701 -18.65145996 84.41587402 -18.98706055 85.14526367 C-34.03154568 117.6353684 -53.1264622 147.10051063 -77.5859375 173.375 C-79.44689809 175.39856879 -81.23811876 177.44677749 -83.0234375 179.53515625 C-87.65418445 184.84290572 -92.62636576 189.81240958 -97.60498047 194.7902832 C-99.23827448 196.42575882 -100.8633847 198.06907708 -102.48828125 199.71289062 C-108.26536257 205.52022675 -114.13005479 210.95899174 -120.56591797 216.03955078 C-123.09863985 218.07944614 -125.48892039 220.22875378 -127.875 222.4375 C-133.0923321 227.17903766 -138.61475853 231.44609072 -144.24609375 235.67431641 C-145.98821321 236.991091 -147.7138775 238.32710328 -149.4375 239.66796875 C-182.34973053 265.07343241 -219.77195891 288.41082646 -258.41015625 303.91796875 C-260.66988689 304.86207944 -262.78386145 305.90284847 -264.9375 307.0625 C-269.37417126 309.35478015 -274.07558256 310.66046945 -278.8515625 312.0703125 C-281.36092962 312.81129187 -283.8368921 313.59332719 -286.3125 314.4375 C-287.38951172 314.79521484 -287.38951172 314.79521484 -288.48828125 315.16015625 C-290.4064853 315.80154641 -292.31966773 316.45797417 -294.23046875 317.12109375 C-302.63695464 319.91744813 -311.06503097 321.99263468 -319.75 323.75 C-320.77867187 323.96060059 -321.80734375 324.17120117 -322.8671875 324.38818359 C-344.11291079 328.53476738 -369.80766636 330.08513374 -388.875 318.125 C-395.51626431 313.40495858 -400.43967784 307.17443114 -402 299 C-403.60891934 274.57607696 -393.446928 253.57990281 -378 235 C-377.14580309 233.94639127 -376.29297829 232.89166889 -375.44140625 231.8359375 C-373.31060038 229.2098273 -371.16395941 226.59879759 -369 224 C-368.67 224.66 -368.34 225.32 -368 226 C-368.86546198 228.03221106 -369.81910405 230.02716683 -370.8125 232 C-375.82491169 242.62956911 -378.3636382 254.84267115 -375.34765625 266.52734375 C-372.23005757 273.49845496 -365.95081742 278.19009508 -359 281 C-320.41029924 289.6919294 -278.35008399 270.60164861 -245 253 C-243.84250244 252.39333496 -243.84250244 252.39333496 -242.66162109 251.77441406 C-230.25442852 245.23498954 -218.49730836 238.02735075 -207 230 C-206.35804688 229.55237305 -205.71609375 229.10474609 -205.0546875 228.64355469 C-201.00374474 225.80662354 -196.99256978 222.9183522 -193 220 C-191.98550781 219.26265625 -190.97101563 218.5253125 -189.92578125 217.765625 C-183.9989889 213.39606829 -178.31378544 208.81585354 -172.7277832 204.0246582 C-169.41820432 201.18637853 -166.05820378 198.43934296 -162.625 195.75 C-159.0587724 192.92577782 -155.83857194 189.95165623 -152.6796875 186.68359375 C-151.02021528 185.02026229 -149.2956315 183.51434159 -147.5 182 C-135.99593873 172.07183754 -125.00025199 160.91816721 -116.26171875 148.46875 C-115.84535156 147.9840625 -115.42898438 147.499375 -115 147 C-114.34 147 -113.68 147 -113 147 C-112.73832031 146.42507813 -112.47664063 145.85015625 -112.20703125 145.2578125 C-110.91714479 142.84501517 -109.44325252 140.97287989 -107.6875 138.875 C-76.5449334 101.26713429 -76.5449334 101.26713429 -61 57 C-63.91588402 55.37359266 -66.83284294 53.74912272 -69.75 52.125 C-70.9875 51.43470703 -70.9875 51.43470703 -72.25 50.73046875 C-73.04921875 50.28574219 -73.8484375 49.84101563 -74.671875 49.3828125 C-75.77160645 48.77010498 -75.77160645 48.77010498 -76.89355469 48.14501953 C-78.90821456 47.04989264 -80.94271369 46.01238002 -83 45 C-81.65669512 40.97008535 -80.08355165 40.72864377 -76.33203125 38.84765625 C-75.74986847 38.55177109 -75.16770569 38.25588593 -74.56790161 37.95103455 C-73.31105418 37.31333037 -72.05198515 36.67999004 -70.79098511 36.05053711 C-67.44165052 34.37791049 -64.10885313 32.67281906 -60.7734375 30.97265625 C-60.10350266 30.63231354 -59.43356781 30.29197083 -58.74333191 29.9413147 C-53.08526649 27.06152351 -47.49781 24.06439315 -41.9375 21 C-40.20060677 20.04671841 -38.46362556 19.0935971 -36.7265625 18.140625 C-35.8284082 17.64755859 -34.93025391 17.15449219 -34.00488281 16.64648438 C-28.58493822 13.67669998 -23.15819289 10.71986473 -17.7204895 7.78271484 C-16.45642428 7.09852926 -15.19360684 6.41203293 -13.93209839 5.72314453 C-12.17275021 4.76271708 -10.40873425 3.81085527 -8.64453125 2.859375 C-7.62721924 2.30733398 -6.60990723 1.75529297 -5.56176758 1.18652344 C-3 0 -3 0 0 0 Z " fill="#887F78" transform="translate(539,306)"/>
<path d="M0 0 C0.66 0 1.32 0 2 0 C2.0702356 21.66266583 2.12305926 43.32531274 2.15543652 64.98806953 C2.17087273 75.0475865 2.19189988 85.1070325 2.22631836 95.16650391 C2.25632043 103.93941132 2.27559856 112.71226731 2.28226548 121.4852246 C2.28615951 126.12583592 2.29524258 130.7663002 2.31719017 135.40686417 C2.3377265 139.78498023 2.34379958 144.1628903 2.33932304 148.54104996 C2.34014065 150.13806278 2.34600333 151.73508333 2.35761642 153.33205414 C2.49083504 172.61617211 -1.23988328 188.66753874 -15 203 C-27.9149479 214.16376852 -42.37381588 220.2696401 -59.3984375 220.0703125 C-60.22819092 220.06523682 -61.05794434 220.06016113 -61.9128418 220.05493164 C-63.94193455 220.04178417 -65.97097973 220.02161087 -68 220 C-68.28088814 202.19739955 -68.49220405 184.39537758 -68.62174606 166.5910368 C-68.68350653 158.32320065 -68.76763154 150.05674477 -68.90527344 141.78979492 C-69.02525037 134.58036063 -69.10238338 127.37192616 -69.12906194 120.16152126 C-69.14464824 116.34644352 -69.18100239 112.53422473 -69.26876068 108.72006798 C-69.82392204 83.635127 -69.82392204 83.635127 -65.40905762 77.79849243 C-62.62687028 74.93828433 -59.42943148 73.02569863 -56 71 C-53.48718617 68.53116739 -53.48718617 68.53116739 -51.4375 66.0625 C-48.63793741 62.86299989 -45.811374 59.70130946 -42.91601562 56.58789062 C-29.82853785 42.48951801 -17.91983345 27.16371128 -7.41796875 11.046875 C-6.96679688 10.35835449 -6.515625 9.66983398 -6.05078125 8.96044922 C-5.15235205 7.58609711 -4.26025185 6.20758371 -3.375 4.82470703 C-2.30140149 3.18171183 -1.15651908 1.58572085 0 0 Z " fill="#DE1C5D" transform="translate(514,434)"/>
<path d="M0 0 C10.56 0 21.12 0 32 0 C38.68432869 15.59676695 38.68432869 15.59676695 40.9765625 21.90234375 C43.65833565 29.17861799 46.54776496 36.35365189 49.52386475 43.5138855 C50.40570313 45.63639998 51.28362426 47.7605002 52.16064453 49.88500977 C54.8367082 56.36563433 57.51978025 62.84334278 60.20703125 69.31933594 C62.07225127 73.81505582 63.93225246 78.31290775 65.78936768 82.8119812 C66.51127891 84.55786834 67.23518724 86.30293107 67.96112061 88.04714966 C68.97626766 90.48651326 69.98492044 92.92846792 70.9921875 95.37109375 C71.2977356 96.10077362 71.60328369 96.83045349 71.91809082 97.58224487 C73.13426649 100.54746172 74 102.76193317 74 106 C74.66 106 75.32 106 76 106 C76.114646 105.14293457 76.22929199 104.28586914 76.34741211 103.40283203 C77.02435501 99.87300406 78.08845581 96.88153478 79.44140625 93.5546875 C79.80586601 92.65096657 79.80586601 92.65096657 80.1776886 91.72898865 C80.96702107 89.7753348 81.76473646 87.82522429 82.5625 85.875 C83.11731536 84.50570196 83.6715091 83.1361519 84.22509766 81.76635742 C85.32090393 79.05678543 86.41956557 76.34840381 87.52099609 73.64111328 C89.32290981 69.20503848 91.1020907 64.76022185 92.875 60.3125 C93.49458885 58.76293972 94.11439289 57.21346548 94.734375 55.6640625 C95.07662109 54.80844727 95.41886719 53.95283203 95.77148438 53.07128906 C102.84765625 35.38085938 109.92382812 17.69042969 117 0 C127.56 0 138.12 0 149 0 C145.63038549 10.10884354 145.63038549 10.10884354 143.7578125 14.2578125 C143.33830322 15.19657227 142.91879395 16.13533203 142.48657227 17.10253906 C142.03725342 18.09995117 141.58793457 19.09736328 141.125 20.125 C136.82449705 29.78791214 132.64280269 39.4926949 128.5625 49.25 C128.28912811 49.90323242 128.01575623 50.55646484 127.73410034 51.22949219 C124.82556162 58.18361273 121.93625792 65.14539205 119.0703125 72.1171875 C112.72429334 87.54798883 106.20297227 102.88913746 99.51831055 118.17626953 C99.1895694 118.93082428 98.86082825 119.68537903 98.52212524 120.46279907 C97.91697265 121.85167229 97.30971166 123.23963037 96.69955444 124.62631226 C93.91741914 131.01962358 91.51212831 137.46846639 89 144 C79.76 144 70.52 144 61 144 C57.61934252 137.23868505 54.47683655 130.59575029 51.625 123.625 C50.74500034 121.49470546 49.86477763 119.36450304 48.984375 117.234375 C48.50806641 116.07873047 48.03175781 114.92308594 47.54101562 113.73242188 C44.67017542 106.77255661 41.77080573 99.82450424 38.875 92.875 C38.5592804 92.11714203 38.24356079 91.35928406 37.91827393 90.57846069 C32.964848 78.69001953 27.99416293 66.8088884 23 54.9375 C22.67247742 54.15893646 22.34495483 53.38037292 22.00750732 52.57821655 C18.253168 43.65926027 14.4735302 34.75158601 10.65625 25.859375 C10.12898315 24.63106712 10.12898315 24.63106712 9.59106445 23.37794495 C7.9040633 19.4502296 6.21392092 15.5238988 4.51953125 11.59936523 C4.21446655 10.89100525 3.90940186 10.18264526 3.59509277 9.45281982 C3.02442619 8.12774299 2.45231503 6.80328705 1.87854004 5.47955322 C0 1.11283545 0 1.11283545 0 0 Z " fill="#23304D" transform="translate(590,431)"/>
<path d="M0 0 C0.94875 0.66 1.8975 1.32 2.875 2 C12.05340634 9.89826019 17.28400167 21.98678012 18.75 33.8125 C19.07394608 40.53438124 19 47.27031736 19 54 C-5.75 54 -30.5 54 -56 54 C-50.78167816 65.25469991 -50.78167816 65.25469991 -42 72 C-41.40445312 72.35835937 -40.80890625 72.71671875 -40.1953125 73.0859375 C-28.502131 77.95462873 -13.33224612 75.52422581 -2 71 C1.71417633 69.42415355 5.37555063 67.77227585 9 66 C10 67 10 67 10.11352539 69.22485352 C10.10567017 70.66235962 10.10567017 70.66235962 10.09765625 72.12890625 C10.09282227 73.68061523 10.09282227 73.68061523 10.08789062 75.26367188 C10.07532227 76.8965918 10.07532227 76.8965918 10.0625 78.5625 C10.05798828 79.65498047 10.05347656 80.74746094 10.04882812 81.87304688 C10.03699826 84.58208495 10.02051543 87.29101599 10 90 C5.2177708 92.1998386 0.54208657 94.33926568 -4.5625 95.6875 C-5.40941406 95.91824219 -6.25632812 96.14898438 -7.12890625 96.38671875 C-21.70000114 99.49918392 -38.18480203 99.90972704 -52 94 C-52.88816406 93.63777344 -53.77632812 93.27554688 -54.69140625 92.90234375 C-66.36973366 87.64263904 -74.23500154 78.70870466 -79.28515625 67.02734375 C-84.49719111 53.14726525 -85.10433478 36.44739762 -79.625 22.5 C-72.95740754 8.1770236 -63.09193624 -1.88774457 -48.125 -7.4375 C-31.38242585 -12.02724023 -14.26939884 -9.95076628 0 0 Z " fill="#243150" transform="translate(1381,479)"/>
<path d="M0 0 C8.97181967 7.07050689 13.97099323 16.00895103 15.76953125 27.39453125 C16.04353122 32.75991923 16.00280612 38.11823348 15.96484375 43.48828125 C15.96110809 45.04626279 15.95826373 46.6042467 15.95626831 48.16223145 C15.94867533 52.23928448 15.92906469 56.31619233 15.90686035 60.39318848 C15.88630794 64.56288693 15.8772466 68.73260911 15.8671875 72.90234375 C15.84581417 81.06647991 15.81066799 89.23047073 15.76953125 97.39453125 C7.18953125 97.39453125 -1.39046875 97.39453125 -10.23046875 97.39453125 C-10.72546875 92.93953125 -10.72546875 92.93953125 -11.23046875 88.39453125 C-12.96296875 89.75578125 -12.96296875 89.75578125 -14.73046875 91.14453125 C-26.15627979 99.71388953 -37.25327641 100.6245683 -51.23046875 99.39453125 C-61.14499016 97.26430275 -69.09980022 92.36213237 -74.890625 83.99609375 C-79.44976305 75.5381942 -79.7724722 65.54689018 -77.4609375 56.32421875 C-74.92038252 49.54265766 -71.29987473 44.72501699 -65.16796875 40.76953125 C-64.31074219 40.19976563 -63.45351562 39.63 -62.5703125 39.04296875 C-51.53225796 33.59494651 -40.5527748 34.029249 -28.54296875 34.20703125 C-26.76238114 34.22210861 -24.98178115 34.2357916 -23.20117188 34.24804688 C-18.87729368 34.28080333 -14.55402076 34.33241583 -10.23046875 34.39453125 C-10.52347328 32.94398959 -10.82449222 31.4950652 -11.12890625 30.046875 C-11.29567871 29.23984131 -11.46245117 28.43280762 -11.63427734 27.60131836 C-12.33122773 25.02157449 -13.47547552 23.38884174 -15.23046875 21.39453125 C-15.23046875 20.73453125 -15.23046875 20.07453125 -15.23046875 19.39453125 C-27.63498208 12.96256138 -39.66031155 13.08651756 -52.8828125 17.171875 C-56.8608329 18.6247576 -60.54687445 20.37948368 -64.2421875 22.44140625 C-66.23046875 23.39453125 -66.23046875 23.39453125 -69.23046875 23.39453125 C-69.23046875 16.13453125 -69.23046875 8.87453125 -69.23046875 1.39453125 C-49.41512579 -9.75159917 -19.66844892 -13.70580335 0 0 Z " fill="#25324F" transform="translate(1190.23046875,477.60546875)"/>
<path d="M0 0 C8.91 0 17.82 0 27 0 C27.33 18.48 27.66 36.96 28 56 C30.97 53.36 33.94 50.72 37 48 C46.24902249 41.88494381 57.30067582 41.63822565 68 43 C78.26430552 45.37754832 86.11004002 50.27761922 91.875 59.125 C96.08579005 66.47268733 97.12795507 73.01832855 97.11352539 81.47412109 C97.11367142 82.19676147 97.11381744 82.91940186 97.1139679 83.66394043 C97.11327561 86.03380416 97.10551546 88.40358763 97.09765625 90.7734375 C97.09578964 92.42395993 97.09436688 94.07448292 97.09336853 95.7250061 C97.0895625 100.05521187 97.07974866 104.38538374 97.06866455 108.71557617 C97.05840917 113.13980654 97.05386209 117.56404241 97.04882812 121.98828125 C97.03812458 130.6588714 97.02054338 139.32942757 97 148 C88.42 148 79.84 148 71 148 C70.970271 145.25345093 70.970271 145.25345093 70.93994141 142.45141602 C70.87191584 136.37247068 70.7951224 130.29368443 70.71247292 124.214921 C70.66272406 120.53272259 70.61639397 116.85054992 70.578125 113.16821289 C70.54099936 109.60839375 70.4945694 106.04880204 70.44193649 102.48917961 C70.41463837 100.48371249 70.39674717 98.47812434 70.37905884 96.47254944 C70.30800563 82.86173011 70.30800563 82.86173011 63.76953125 71.44140625 C59.76969627 68.18326252 55.61233619 67.17589122 50.5625 66.625 C43.1484712 67.40542408 37.24724544 69.50869664 32 75 C27.16580716 82.34992363 27.39573049 89.41647249 27.390625 98 C27.37562316 99.44590082 27.35889183 100.89178462 27.34051514 102.33764648 C27.29705338 106.11872194 27.2768901 109.89956632 27.26177979 113.68084717 C27.24213164 117.54908797 27.20017068 121.417082 27.16015625 125.28515625 C27.08508375 132.85673536 27.03671982 140.42811996 27 148 C18.09 148 9.18 148 0 148 C0 99.16 0 50.32 0 0 Z " fill="#23304E" transform="translate(997,427)"/>
<path d="M0 0 C0 41.58 0 83.16 0 126 C-23.43 126 -46.86 126 -71 126 C-71.88239381 108.38331963 -71.88239381 108.38331963 -72.07421875 100.78320312 C-72.20506459 95.62383037 -72.35843133 90.4731587 -72.65966797 85.32055664 C-74.23892602 57.59614133 -74.23892602 57.59614133 -68.88345337 49.99655151 C-63.77470515 45.14706683 -58.0182201 42.05353574 -51.61140442 39.23214722 C-47.93213873 37.49614763 -45.08152129 35.25862888 -41.9375 32.6875 C-40.94621094 31.90632812 -39.95492188 31.12515625 -38.93359375 30.3203125 C-37.96550781 29.55460938 -36.99742187 28.78890625 -36 28 C-34.93032957 27.18234617 -33.85866347 26.3672974 -32.78515625 25.5546875 C-22.63683863 17.86647662 -12.88667982 9.7379278 -3.48828125 1.14453125 C-2 0 -2 0 0 0 Z " fill="#FD781C" transform="translate(435,528)"/>
<path d="M0 0 C1.36047565 0.00933313 2.72096817 0.01644689 4.08146667 0.0214386 C7.65097992 0.04046994 11.21946528 0.08953445 14.78857422 0.1449585 C18.43507992 0.19623621 22.0817528 0.21897063 25.72851562 0.24414062 C32.87541885 0.29765912 40.02162646 0.38292307 47.16796875 0.48828125 C50.561859 7.77196486 50.74569204 14.55444391 50.8828125 22.515625 C50.89503908 23.18107393 50.90726566 23.84652287 50.91986275 24.53213692 C50.98206822 28.05028472 51.02514235 31.56809412 51.0534668 35.08666992 C51.08672216 38.69767353 51.19004062 42.30315833 51.3089819 45.9122076 C51.38780647 48.71177149 51.41256589 51.51003428 51.42331123 54.31060982 C51.44480432 56.28152534 51.52395498 58.25154475 51.60447693 60.22093201 C51.56443125 65.76366251 51.45527151 69.12077819 47.5556488 73.26335144 C44.60529515 75.63283453 41.42726018 77.56926916 38.16796875 79.48828125 C36.77714322 80.45285086 35.39282396 81.42710322 34.0234375 82.421875 C32.80295564 83.2596868 31.58029825 84.09433836 30.35546875 84.92578125 C29.67863037 85.38694336 29.00179199 85.84810547 28.30444336 86.32324219 C26.91911489 87.2656074 25.53282004 88.20655373 24.14550781 89.14599609 C22.32193882 90.38377169 20.50601144 91.63195298 18.69140625 92.8828125 C11.16134487 98.03214779 3.43383716 102.84954391 -4.36819458 107.5748291 C-6.06131949 108.60073153 -7.75126332 109.63187798 -9.44116211 110.66308594 C-11.00362671 111.6013623 -11.00362671 111.6013623 -12.59765625 112.55859375 C-14.00192871 113.40574951 -14.00192871 113.40574951 -15.43457031 114.27001953 C-17.83203125 115.48828125 -17.83203125 115.48828125 -20.83203125 115.48828125 C-20.87835189 101.88434956 -20.91389913 88.28043661 -20.93565559 74.67644215 C-20.94609707 68.3597059 -20.96026305 62.04302357 -20.98291016 55.72631836 C-21.00462535 49.63146623 -21.01659713 43.536666 -21.02178574 37.44177818 C-21.02548386 35.11534495 -21.03270525 32.7889146 -21.04349136 30.46250343 C-21.0579885 27.20646632 -21.06000991 23.95064423 -21.05908203 20.69458008 C-21.06627258 19.73072891 -21.07346313 18.76687775 -21.08087158 17.77381897 C-21.06228105 11.75334595 -20.33277549 7.8597943 -17.0715332 2.70629883 C-11.78106747 -0.9159697 -6.25206715 -0.12330473 0 0 Z " fill="#57B344" transform="translate(303.83203125,433.51171875)"/>
<path d="M0 0 C1.9216523 0.00022659 1.9216523 0.00022659 3.88212585 0.00045776 C5.28054967 0.01067105 6.67897191 0.02110304 8.07739258 0.03173828 C9.50799868 0.035469 10.93860734 0.0383157 12.36921692 0.04031372 C16.13234527 0.04794556 19.89531894 0.06759009 23.65838623 0.08972168 C27.4992056 0.11018984 31.34005 0.11931751 35.1809082 0.12939453 C42.71548388 0.15083649 50.24993217 0.18496691 57.78442383 0.22705078 C60.25721661 39.90586417 60.25721661 39.90586417 51.84692383 49.47705078 C50.11878649 51.30016935 48.35878245 53.01460719 46.4777832 54.67919922 C43.85120723 57.08007748 41.78909606 59.80094182 39.59692383 62.60205078 C38.90211914 63.43478516 38.20731445 64.26751953 37.49145508 65.12548828 C35.65585796 67.3180285 35.65585796 67.3180285 33.78442383 70.22705078 C33.12442383 70.22705078 32.46442383 70.22705078 31.78442383 70.22705078 C31.54981445 70.77876953 31.31520508 71.33048828 31.07348633 71.89892578 C26.35784552 80.41565888 17.42738623 87.67551953 10.59692383 94.53955078 C9.94449707 95.19665039 9.29207031 95.85375 8.61987305 96.53076172 C4.74127261 100.39667743 0.75394961 104.07389783 -3.41064453 107.63037109 C-5.22586594 109.23615333 -6.90769168 110.92151795 -8.59057617 112.66455078 C-11.21557617 115.22705078 -11.21557617 115.22705078 -13.21557617 115.22705078 C-13.30910231 101.37967489 -13.37932968 87.53234812 -13.42282486 73.68472099 C-13.44370029 67.25470908 -13.47201785 60.82490934 -13.51733398 54.39501953 C-13.56079222 48.18992146 -13.58471361 41.98502749 -13.59508514 35.77978897 C-13.60247646 33.41229158 -13.61690988 31.04480538 -13.6384964 28.67739487 C-13.66752911 25.36150717 -13.67153209 22.04646308 -13.66967773 18.73046875 C-13.68405884 17.75151138 -13.69843994 16.77255402 -13.71325684 15.76393127 C-13.67888047 10.08380303 -13.10962592 6.67914675 -9.21557617 2.22705078 C-5.66969677 -0.13686882 -4.20053935 -0.01650507 0 0 Z " fill="#FA7F19" transform="translate(377.215576171875,378.77294921875)"/>
<path d="M0 0 C27.72 0 55.44 0 84 0 C84 21.14426376 84 21.14426376 79.58081055 26.05419922 C78.95601807 26.65506348 78.33122559 27.25592773 77.6875 27.875 C77.05175049 28.56223145 76.41600098 29.24946289 75.76098633 29.95751953 C74.47672326 31.34492915 73.17507007 32.71647003 71.85546875 34.0703125 C69.15015777 36.88383592 66.67638597 39.87097042 64.1875 42.875 C63.2980169 43.92414628 62.40741916 44.97234871 61.515625 46.01953125 C58.3870086 49.72626155 55.31854272 53.47935429 52.2578125 57.2421875 C50.65904632 59.19500571 49.05225538 61.13752999 47.4296875 63.0703125 C46.99342041 63.59036865 46.55715332 64.1104248 46.10766602 64.64624023 C44.89243879 66.09237209 43.67481856 67.53649208 42.45703125 68.98046875 C39.5346181 72.57192402 36.77813928 76.29581429 34 80 C50.83 80.33 67.66 80.66 85 81 C85 88.26 85 95.52 85 103 C56.29 103 27.58 103 -2 103 C-2 80.74339042 -2 80.74339042 2.11425781 76.1628418 C2.69530273 75.614104 3.27634766 75.06536621 3.875 74.5 C4.46635742 73.86167236 5.05771484 73.22334473 5.66699219 72.56567383 C6.85628631 71.2825134 8.06369905 70.01586902 9.29003906 68.76806641 C11.77576822 66.19787073 13.99288053 63.46083764 16.25 60.6875 C17.05308594 59.7284375 17.85617187 58.769375 18.68359375 57.78125 C20.91588997 55.10098877 23.11654884 52.39756677 25.3125 49.6875 C29.56941218 44.46690181 33.9672693 39.3764326 38.39575195 34.30151367 C38.91999756 33.70056885 39.44424316 33.09962402 39.984375 32.48046875 C40.44553711 31.95348389 40.90669922 31.42649902 41.38183594 30.88354492 C43.61769215 28.28100559 45.8034804 25.63582352 48 23 C32.16 22.67 16.32 22.34 0 22 C0 14.74 0 7.48 0 0 Z " fill="#24314F" transform="translate(800,472)"/>
<path d="M0 0 C-0.33 6.93 -0.66 13.86 -1 21 C-1.66 21.33 -2.32 21.66 -3 22 C-4.84814489 21.15750698 -6.65492365 20.22357876 -8.4375 19.25 C-18.98849688 13.86172368 -29.14579095 11.6429525 -41 13 C-44.36690663 14.16105532 -44.36690663 14.16105532 -47 16 C-48.04788921 19.9121197 -48.28347705 22.14956886 -47 26 C-41.94481102 29.59472941 -35.947518 30.91557348 -30 32.25 C-16.48708418 35.56584123 -2.68823494 40.70921626 4.875 53.0625 C8.18516786 61.70571608 7.7476247 69.7712853 4.3828125 78.25390625 C0.11585658 86.72755034 -6.27345115 91.64645949 -15 95 C-15.9432312 95.38841064 -15.9432312 95.38841064 -16.90551758 95.78466797 C-23.23804956 98.18845413 -29.0841038 98.46781644 -35.8125 98.375 C-37.41134033 98.3586853 -37.41134033 98.3586853 -39.04248047 98.34204102 C-51.56121609 98.08798489 -66.68789883 95.31210117 -76 86 C-77.02139165 78.26660608 -73.99923155 72.02677105 -71 65 C-68.77815124 66.09520375 -66.58560135 67.22404987 -64.40625 68.40234375 C-52.71814392 74.57630301 -41.31973842 77.54037791 -28 76 C-23.77924064 74.26512703 -23.77924064 74.26512703 -20.5625 71.1875 C-19.745429 68.01000167 -19.9599331 66.12020071 -21 63 C-27.19789774 57.68751622 -35.38797973 56.32659106 -43.08398438 54.17578125 C-55.85347846 50.45535987 -65.90955768 45.6485838 -73 34 C-75.49492325 26.51523024 -75.27906043 16.49285918 -71.8125 9.375 C-68.02160068 2.70783103 -63.96108884 -1.5922527 -57 -4.8125 C-56.39671875 -5.11091797 -55.7934375 -5.40933594 -55.171875 -5.71679688 C-37.73753664 -14.1118098 -15.94189039 -9.10965165 0 0 Z " fill="#253250" transform="translate(974,479)"/>
<path d="M0 0 C1.86136345 0.00033989 1.86136345 0.00033989 3.7603302 0.00068665 C5.10413987 0.01600406 6.4479458 0.031652 7.79174805 0.04760742 C9.1746525 0.05320719 10.55756292 0.05747549 11.94047546 0.06047058 C15.56886411 0.07188954 19.19688879 0.10133068 22.82513428 0.13458252 C26.53205351 0.16534744 30.23903368 0.17915429 33.94604492 0.1940918 C41.21133964 0.2246097 48.47563672 0.28333546 55.7409668 0.34057617 C55.7409668 19.81057617 55.7409668 39.28057617 55.7409668 59.34057617 C33.1851538 68.83776059 33.1851538 68.83776059 26.6784668 71.09057617 C25.45232666 71.5152417 25.45232666 71.5152417 24.20141602 71.94848633 C18.65105144 73.81642833 13.07326378 75.40378104 7.3659668 76.71557617 C6.37004517 76.94905762 6.37004517 76.94905762 5.35400391 77.18725586 C0.73819201 78.16655422 -3.83968297 78.56721361 -8.54663086 78.88598633 C-9.80448395 78.97224274 -11.06233704 79.05849915 -12.35830688 79.14736938 C-13.79416641 79.24300674 -13.79416641 79.24300674 -15.2590332 79.34057617 C-15.35197247 70.61271493 -15.42291878 61.8850257 -15.46628189 53.15677643 C-15.48710074 49.10328106 -15.51531277 45.05012583 -15.56079102 40.99682617 C-15.60445418 37.08050727 -15.62821315 33.16451423 -15.63854218 29.24797058 C-15.64589706 27.75850805 -15.66025919 26.26906208 -15.68195343 24.77973938 C-15.8908416 9.83657378 -15.8908416 9.83657378 -11.2590332 3.34057617 C-7.43863532 0.49154179 -4.72170953 -0.02884955 0 0 Z " fill="#0395D6" transform="translate(217.259033203125,495.659423828125)"/>
<path d="M0 0 C0.02505615 0.55872803 0.0501123 1.11745605 0.07592773 1.69311523 C0.19343105 4.27472428 0.3154438 6.85610236 0.4375 9.4375 C0.47681641 10.31599609 0.51613281 11.19449219 0.55664062 12.09960938 C0.59853516 12.97294922 0.64042969 13.84628906 0.68359375 14.74609375 C0.72025146 15.53685303 0.75690918 16.3276123 0.79467773 17.14233398 C0.96468747 19.50852183 1.20888496 21.83714344 1.48852539 24.19165039 C2.05730262 29.18480322 2.29956009 34.167847 2.5 39.1875 C2.5609082 40.60131958 2.5609082 40.60131958 2.62304688 42.04370117 C2.79487814 46.03448241 2.95962131 50.02554858 3.125 54.01660156 C3.24752884 56.94867832 3.37369129 59.88058402 3.5 62.8125 C3.53544922 63.70026123 3.57089844 64.58802246 3.60742188 65.50268555 C3.81802718 70.38217031 4.18800119 75.19970367 4.78929138 80.04722595 C5.09606927 82.89033654 5.09533924 85.70548655 5.0625 88.5625 C5.05347656 89.59503906 5.04445313 90.62757813 5.03515625 91.69140625 C5.02355469 92.45324219 5.01195312 93.21507812 5 94 C-0.48915752 92.0372757 -5.35971689 89.01677612 -10.38085938 86.1015625 C-13.9587189 83.82043243 -13.9587189 83.82043243 -18 83 C-18.66 83.66 -19.32 84.32 -20 85 C-20 83.35 -20 81.7 -20 80 C-20.825 79.79375 -21.65 79.5875 -22.5 79.375 C-25.54771306 78.17768415 -27.14426049 77.23251568 -29.625 75.25 C-33.77795142 71.98470232 -38.20353668 69.80179332 -42.953125 67.5234375 C-46.79509532 65.60245234 -50.40878301 63.39251557 -54.0390625 61.1015625 C-55.91575808 59.83674453 -55.91575808 59.83674453 -58 60 C-58.29132813 60.648479 -58.58265625 61.29695801 -58.8828125 61.96508789 C-77.72633402 103.79637241 -77.72633402 103.79637241 -87 112 C-85.73802179 108.67246846 -84.31195365 105.64454649 -82.49609375 102.5859375 C-82.00681396 101.75143066 -81.51753418 100.91692383 -81.01342773 100.05712891 C-80.23334351 98.7294751 -80.23334351 98.7294751 -79.4375 97.375 C-73.70973488 87.50037791 -68.65699891 77.41810414 -64 67 C-63.54971436 66.01725098 -63.54971436 66.01725098 -63.09033203 65.01464844 C-61.80851485 62.15469207 -61 60.17281415 -61 57 C-63.91588402 55.37359266 -66.83284294 53.74912272 -69.75 52.125 C-70.575 51.66480469 -71.4 51.20460938 -72.25 50.73046875 C-73.44882812 50.06337891 -73.44882812 50.06337891 -74.671875 49.3828125 C-75.77160645 48.77010498 -75.77160645 48.77010498 -76.89355469 48.14501953 C-78.90821456 47.04989264 -80.94271369 46.01238002 -83 45 C-81.65669512 40.97008535 -80.08355165 40.72864377 -76.33203125 38.84765625 C-75.45878708 38.40382851 -75.45878708 38.40382851 -74.56790161 37.95103455 C-73.31105418 37.31333037 -72.05198515 36.67999004 -70.79098511 36.05053711 C-67.44165052 34.37791049 -64.10885313 32.67281906 -60.7734375 30.97265625 C-60.10350266 30.63231354 -59.43356781 30.29197083 -58.74333191 29.9413147 C-53.08526649 27.06152351 -47.49781 24.06439315 -41.9375 21 C-40.20060677 20.04671841 -38.46362556 19.0935971 -36.7265625 18.140625 C-35.8284082 17.64755859 -34.93025391 17.15449219 -34.00488281 16.64648438 C-28.58493822 13.67669998 -23.15819289 10.71986473 -17.7204895 7.78271484 C-16.45642428 7.09852926 -15.19360684 6.41203293 -13.93209839 5.72314453 C-12.17275021 4.76271708 -10.40873425 3.81085527 -8.64453125 2.859375 C-7.62721924 2.30733398 -6.60990723 1.75529297 -5.56176758 1.18652344 C-3 0 -3 0 0 0 Z " fill="#F82266" transform="translate(539,306)"/>
<path d="M0 0 C0 8.58 0 17.16 0 26 C-4.29 26 -8.58 26 -13 26 C-20.41297674 27.70413258 -26.27921887 29.53278501 -31.12597656 35.70922852 C-34.33262244 41.56707328 -33.60552761 48.40929912 -33.609375 54.90234375 C-33.6243723 56.34967383 -33.64110269 57.7969869 -33.65948486 59.24427795 C-33.70299761 63.03358793 -33.72312135 66.82266712 -33.73822021 70.61218262 C-33.75784977 74.48703569 -33.79981296 78.36164162 -33.83984375 82.23632812 C-33.91497163 89.8241833 -33.96330097 97.41184382 -34 105 C-42.91 105 -51.82 105 -61 105 C-61 71.01 -61 37.02 -61 2 C-52.42 2 -43.84 2 -35 2 C-35 6.62 -35 11.24 -35 16 C-34.34 16 -33.68 16 -33 16 C-32.814375 15.29875 -32.62875 14.5975 -32.4375 13.875 C-28.95162143 6.90324286 -22.40508103 3.96579317 -15.55078125 0.8828125 C-12 0 -12 0 0 0 Z " fill="#232F4D" transform="translate(1288,470)"/>
<path d="M0 0 C0 21.45 0 42.9 0 65 C-23.1 65 -46.2 65 -70 65 C-70 55.1 -70 45.2 -70 35 C-67.23625 33.783125 -64.4725 32.56625 -61.625 31.3125 C-43.44645067 23.17091499 -25.68075359 14.35337985 -8.67626953 3.96191406 C-7.82403809 3.44209961 -6.97180664 2.92228516 -6.09375 2.38671875 C-5.34802734 1.92483154 -4.60230469 1.46294434 -3.83398438 0.98706055 C-2 0 -2 0 0 0 Z " fill="#027DC0" transform="translate(353,589)"/>
<path d="M0 0 C8.91 0 17.82 0 27 0 C27 33.99 27 67.98 27 103 C18.09 103 9.18 103 0 103 C0 69.01 0 35.02 0 0 Z " fill="#263350" transform="translate(751,472)"/>
<path d="M0 0 C1.9216523 0.00022659 1.9216523 0.00022659 3.88212585 0.00045776 C5.28054967 0.01067105 6.67897191 0.02110304 8.07739258 0.03173828 C9.50799868 0.035469 10.93860734 0.0383157 12.36921692 0.04031372 C16.13234527 0.04794556 19.89531894 0.06759009 23.65838623 0.08972168 C28.17463739 0.11378929 32.69094029 0.12296324 37.20723724 0.1346283 C44.06640698 0.15401487 50.9252374 0.19234025 57.78442383 0.22705078 C57.78442383 12.76705078 57.78442383 25.30705078 57.78442383 38.22705078 C57.45442383 38.22705078 57.12442383 38.22705078 56.78442383 38.22705078 C56.28942383 25.35705078 56.28942383 25.35705078 55.78442383 12.22705078 C54.58817383 14.02142578 53.39192383 15.81580078 52.15942383 17.66455078 C46.9768256 24.87507959 40.47538134 29.01396599 32.78442383 33.22705078 C31.70032227 33.82646484 30.6162207 34.42587891 29.49926758 35.04345703 C15.97060742 42.14130022 4.01700105 42.61183053 -11.21557617 41.22705078 C-11.21557617 65.64705078 -11.21557617 90.06705078 -11.21557617 115.22705078 C-11.87557617 115.22705078 -12.53557617 115.22705078 -13.21557617 115.22705078 C-13.30910231 101.37967489 -13.37932968 87.53234812 -13.42282486 73.68472099 C-13.44370029 67.25470908 -13.47201785 60.82490934 -13.51733398 54.39501953 C-13.56079222 48.18992146 -13.58471361 41.98502749 -13.59508514 35.77978897 C-13.60247646 33.41229158 -13.61690988 31.04480538 -13.6384964 28.67739487 C-13.66752911 25.36150717 -13.67153209 22.04646308 -13.66967773 18.73046875 C-13.68405884 17.75151138 -13.69843994 16.77255402 -13.71325684 15.76393127 C-13.67888047 10.08380303 -13.10962592 6.67914675 -9.21557617 2.22705078 C-5.66969677 -0.13686882 -4.20053935 -0.01650507 0 0 Z " fill="#FDAF1A" transform="translate(377.215576171875,378.77294921875)"/>
<path d="M0 0 C1.36047565 0.00933313 2.72096817 0.01644689 4.08146667 0.0214386 C7.65097992 0.04046994 11.21946528 0.08953445 14.78857422 0.1449585 C18.43507992 0.19623621 22.0817528 0.21897063 25.72851562 0.24414062 C32.87541885 0.29765912 40.02162646 0.38292307 47.16796875 0.48828125 C49.29075064 5.58875198 49.95232438 9.15314759 48.16796875 14.48828125 C45.92576468 17.68357479 43.17686857 20.02430029 40.16796875 22.48828125 C39.29785156 23.22046875 38.42773438 23.95265625 37.53125 24.70703125 C26.11115404 33.80571616 13.28319717 39.2300853 -0.26953125 44.42578125 C-1.2759668 44.81572266 -2.28240234 45.20566406 -3.31933594 45.60742188 C-4.29161133 45.96900391 -5.26388672 46.33058594 -6.265625 46.703125 C-7.12212646 47.024021 -7.97862793 47.34491699 -8.86108398 47.67553711 C-12.81434666 48.75700736 -16.75757389 49.12981708 -20.83203125 49.48828125 C-20.88155648 44.02564814 -20.91781021 38.56314643 -20.94189453 33.1003418 C-20.9519374 31.24289676 -20.96557429 29.38546746 -20.98291016 27.52807617 C-21.00723386 24.85461534 -21.01853158 22.18136399 -21.02734375 19.5078125 C-21.03766632 18.68054153 -21.04798889 17.85327057 -21.05862427 17.00093079 C-21.05974701 11.20049933 -20.21017939 7.66606492 -17.0715332 2.70629883 C-11.78106747 -0.9159697 -6.25206715 -0.12330473 0 0 Z " fill="#91CA3D" transform="translate(303.83203125,433.51171875)"/>
<path d="M0 0 C0.66 0 1.32 0 2 0 C2.30581401 9.39528607 1.81770228 16.1230386 -4.1640625 23.63671875 C-6.379133 26.4880329 -8.40516255 29.45542408 -10.4375 32.4375 C-14.1147941 37.78147045 -17.92099794 42.95591058 -22 48 C-22.47002441 48.5873291 -22.94004883 49.1746582 -23.42431641 49.77978516 C-32.14519054 60.65752072 -41.31677916 70.97218056 -51 81 C-51.90234375 81.94359375 -52.8046875 82.8871875 -53.734375 83.859375 C-59.46973678 89.74870622 -59.46973678 89.74870622 -63.08612061 91.46252441 C-66.11063493 93.61291475 -66.11063493 93.61291475 -66.53981781 96.09190369 C-66.72723997 98.87705154 -66.71848422 101.60568706 -66.64941406 104.39648438 C-66.64707764 105.4537825 -66.64474121 106.51108063 -66.64233398 107.60041809 C-66.6279459 111.09898973 -66.57151469 114.59561623 -66.515625 118.09375 C-66.49935477 120.52223977 -66.48602746 122.9507509 -66.4755249 125.37927246 C-66.44125893 131.77651502 -66.37274118 138.1729131 -66.29541016 144.56976318 C-66.17710529 154.80901785 -66.10933254 165.04870182 -66.04387665 175.28840637 C-66.01591312 178.86935401 -65.97273205 182.44987583 -65.92730713 186.03063965 C-65.90726188 188.2215953 -65.88753048 190.41255386 -65.86816406 192.60351562 C-65.85154724 193.60208084 -65.83493042 194.60064606 -65.81781006 195.62947083 C-65.81188843 196.54633163 -65.8059668 197.46319244 -65.79986572 198.40783691 C-65.79022923 199.20275795 -65.78059273 199.99767899 -65.77066422 200.81668854 C-66.02771179 203.26382041 -66.7788745 204.88172829 -68 207 C-68.28099902 190.89235556 -68.49225571 174.7855124 -68.62174606 158.67600536 C-68.68348445 151.19503272 -68.76756345 143.71558747 -68.90527344 136.2355957 C-69.02532252 129.71175058 -69.10239949 123.18901187 -69.12906194 116.66409284 C-69.14463731 113.21217436 -69.18091012 109.76341931 -69.26876068 106.31252098 C-69.82396171 83.63696136 -69.82396171 83.63696136 -65.40905762 77.97305298 C-62.60497898 75.12150653 -59.38789694 73.11297316 -56 71 C-54.42540434 69.40552519 -52.89409316 67.76544972 -51.4375 66.0625 C-48.63793741 62.86299989 -45.811374 59.70130946 -42.91601562 56.58789062 C-29.82853785 42.48951801 -17.91983345 27.16371128 -7.41796875 11.046875 C-6.96679688 10.35835449 -6.515625 9.66983398 -6.05078125 8.96044922 C-5.15235205 7.58609711 -4.26025185 6.20758371 -3.375 4.82470703 C-2.30140149 3.18171183 -1.15651908 1.58572085 0 0 Z " fill="#D01954" transform="translate(514,434)"/>
<path d="M0 0 C0 8.58 0 17.16 0 26 C-23.43 26 -46.86 26 -71 26 C-71 24.02 -71 22.04 -71 20 C-70.30519531 19.84144531 -69.61039063 19.68289063 -68.89453125 19.51953125 C-66.64845372 19.00427139 -64.40385325 18.48256028 -62.16015625 17.95703125 C-59.32022993 17.29526776 -56.47453177 16.67484406 -53.62109375 16.07421875 C-37.39890781 12.55062923 -16.07475971 0 0 0 Z " fill="#0B67B2" transform="translate(274,628)"/>
<path d="M0 0 C0.76520985 14.13512634 0.76520985 14.13512634 -4 20 C-11.14064926 26.31152174 -17.90471077 27.56381671 -27.31640625 27.3125 C-31.96916639 26.91778016 -35.43753942 26.08363524 -39 23 C-41.79773898 19.1531089 -42.55294055 15.62501778 -42.34765625 10.95703125 C-41.74352396 7.55624161 -40.25726432 5.55427278 -38 3 C-27.10789262 -3.86676335 -12.18075531 -1.00905665 0 0 Z " fill="#FAFAFB" transform="translate(1180,530)"/>
<path d="M0 0 C7.44770837 -0.45455497 13.55655602 1.83321631 19.25390625 6.671875 C23.5665985 11.38484707 25.62109375 17.00482836 25.62109375 23.28515625 C9.45109375 23.28515625 -6.71890625 23.28515625 -23.37890625 23.28515625 C-22.1220215 14.48696297 -19.24208736 9.01500679 -12.25390625 3.47265625 C-8.35464705 1.00312542 -4.50436462 0.53993205 0 0 Z " fill="#FBFBFC" transform="translate(1348.37890625,490.71484375)"/>
<path d="M0 0 C0.67950839 4.82519593 0.89003581 9.19176059 0 14 C-3.04007936 17.88653283 -6.93881258 20.25687461 -11 23 C-13.17373363 24.75717378 -15.27029614 26.59863334 -17.375 28.4375 C-30.59427344 39.70693551 -44.69601303 49.59692559 -59.25 59.0625 C-60.0018457 59.55226318 -60.75369141 60.04202637 -61.52832031 60.54663086 C-66.87810542 64 -66.87810542 64 -68 64 C-68.33 60.04 -68.66 56.08 -69 52 C-67.47375 51.05125 -65.9475 50.1025 -64.375 49.125 C-49.18566715 39.44666869 -34.98436866 28.32490077 -21 17 C-19.64068359 15.90365234 -19.64068359 15.90365234 -18.25390625 14.78515625 C-12.9326967 10.46767 -7.74106896 6.05368039 -2.6796875 1.43359375 C-1 0 -1 0 0 0 Z " fill="#F1681A" transform="translate(434,528)"/>
<path d="M0 0 C0.7986017 3.88948604 0.93133403 7.12190537 0 11 C-3.40163192 15.13276592 -7.60409283 18.02345729 -12 21 C-12.59361328 21.4110498 -13.18722656 21.82209961 -13.79882812 22.24560547 C-17.52984453 24.82250218 -21.31302997 27.31005404 -25.12060547 29.77197266 C-26.89968884 30.93445504 -28.65780291 32.12192236 -30.41015625 33.32421875 C-38.53433779 38.88128832 -46.88499779 44.04299522 -55.3125 49.125 C-56.42931152 49.80135498 -57.54612305 50.47770996 -58.69677734 51.17456055 C-59.74172363 51.80015869 -60.78666992 52.42575684 -61.86328125 53.0703125 C-62.80469971 53.63508301 -63.74611816 54.19985352 -64.71606445 54.78173828 C-67 56 -67 56 -69 56 C-70.14404188 51.64815443 -70.39891669 48.31417739 -69 44 C-64.92758599 39.99030284 -59.34813243 37.65781378 -54.28222656 35.1484375 C-51.03503785 33.51442213 -47.92262283 31.69145999 -44.8125 29.8125 C-44.22146484 29.45961914 -43.63042969 29.10673828 -43.02148438 28.74316406 C-29.90190158 20.80164393 -17.3336042 11.82643544 -4.94702148 2.79321289 C-1.1005609 0 -1.1005609 0 0 0 Z " fill="#398C3C" transform="translate(353,493)"/>
<path d="M0 0 C3.67826551 3.16501916 6.28045632 5.76224671 7.0703125 10.7109375 C7.2595987 14.91309105 6.93629521 17.76307725 5.1875 21.625 C1.08685824 26.03318989 -3.21264981 29.55014999 -9.4375 29.8125 C-16.08503977 28.95475293 -19.93233342 26.31840466 -24.3125 21.3125 C-26.02902155 16.16293536 -26.4551389 10.28122538 -24.4765625 5.140625 C-21.94963442 1.17216077 -18.98045083 -0.95299041 -14.4921875 -2.31640625 C-9.13215396 -3.22895676 -4.81830895 -2.45461022 0 0 Z " fill="#273452" transform="translate(774.3125,429.6875)"/>
<path d="M0 0 C0 4.29 0 8.58 0 13 C-0.93328125 13.37382813 -1.8665625 13.74765625 -2.828125 14.1328125 C-7.99547178 16.34923702 -12.83834958 19.15016213 -17.75 21.875 C-61.72811478 46 -61.72811478 46 -69 46 C-69 42.37 -69 38.74 -69 35 C-68.01829834 34.52691406 -67.03659668 34.05382812 -66.02514648 33.56640625 C-62.30537638 31.77280773 -58.58760673 29.97509388 -54.87036133 28.17626953 C-53.27583341 27.40532769 -51.68079887 26.63543263 -50.08520508 25.86669922 C-35.5440806 18.85948018 -21.29283233 11.54352024 -7.48632812 3.1640625 C-2.20470206 0 -2.20470206 0 0 0 Z " fill="#0B70A7" transform="translate(353,589)"/>
<path d="M0 0 C0.33 0 0.66 0 1 0 C1 9.9 1 19.8 1 30 C24.21976408 25.46596323 45.77212201 19.55614654 67.32373047 9.71508789 C69 9 69 9 70 9 C70 12.63 70 16.26 70 20 C54.2340887 26.86637539 38.35023618 33.5010404 21.5625 37.4375 C20.55401001 37.6835498 20.55401001 37.6835498 19.52514648 37.93457031 C12.76790882 39.39391817 7.30650714 39 0 39 C0 26.13 0 13.26 0 0 Z " fill="#0769B1" transform="translate(203,535)"/>
<path d="M0 0 C0.66 0.33 1.32 0.66 2 1 C0.25 3.0625 0.25 3.0625 -2 5 C-4.25 4.75 -4.25 4.75 -6 4 C-4.02 2.68 -2.04 1.36 0 0 Z M-8 5 C-7.34 5.33 -6.68 5.66 -6 6 C-16.02872015 12.54963721 -26.01504107 18.22851837 -37 23 C-38.19753906 23.53496094 -39.39507812 24.06992187 -40.62890625 24.62109375 C-47.96356722 27.84963277 -55.34889519 30.61778788 -63 33 C-63 32.34 -63 31.68 -63 31 C-62.03513672 30.60844727 -62.03513672 30.60844727 -61.05078125 30.20898438 C-46.58871835 24.31894306 -32.46743475 18.17887476 -18.76171875 10.69140625 C-18.06828369 10.3145166 -17.37484863 9.93762695 -16.66040039 9.54931641 C-15.333302 8.82440264 -14.01060098 8.0913619 -12.69311523 7.34912109 C-11.1600961 6.50634977 -9.58294072 5.74478846 -8 5 Z " fill="#3AB892" transform="translate(315,547)"/>
<path d="M0 0 C0.33 0 0.66 0 1 0 C1 19.14 1 38.28 1 58 C1.66 58.33 2.32 58.66 3 59 C2.505 59.495 2.505 59.495 2 60 C1.76712992 61.68183948 1.58735834 63.3712416 1.4375 65.0625 C1.35371094 65.98160156 1.26992188 66.90070313 1.18359375 67.84765625 C1.12300781 68.55792969 1.06242187 69.26820313 1 70 C2.11375 69.319375 2.11375 69.319375 3.25 68.625 C5.47106199 67.31255428 7.68781872 66.13632841 10 65 C9.0919838 66.13199353 8.17316174 67.25532363 7.25 68.375 C6.73953125 69.00148438 6.2290625 69.62796875 5.703125 70.2734375 C4 72 4 72 0 74 C0 49.58 0 25.16 0 0 Z " fill="#FD7A11" transform="translate(365,419)"/>
<path d="M0 0 C0.66 0.99 1.32 1.98 2 3 C1.00104671 5.73333232 -0.0698061 8.16595661 -1.375 10.75 C-1.92776611 11.87921875 -1.92776611 11.87921875 -2.49169922 13.03125 C-3.6428458 15.36387512 -4.81700463 17.68338301 -6 20 C-6.35513672 20.69931641 -6.71027344 21.39863281 -7.07617188 22.11914062 C-17.25409516 42.0324688 -17.25409516 42.0324688 -24 48 C-22.73802179 44.67246846 -21.31195365 41.64454649 -19.49609375 38.5859375 C-19.00665283 37.7511084 -18.51721191 36.9162793 -18.01293945 36.05615234 C-17.49304443 35.17137207 -16.97314941 34.2865918 -16.4375 33.375 C-10.27628819 22.75775356 -3.89816624 11.69449872 0 0 Z " fill="#F53366" transform="translate(476,370)"/>
<path d="M0 0 C0.33 0.66 0.66 1.32 1 2 C0.10333658 4.24310013 -0.89146683 6.44754321 -1.9375 8.625 C-2.50339844 9.81351563 -3.06929687 11.00203125 -3.65234375 12.2265625 C-4.09707031 13.14179687 -4.54179687 14.05703125 -5 15 C-5.66 15 -6.32 15 -7 15 C-7.33 14.34 -7.66 13.68 -8 13 C-9.65 14.65 -11.3 16.3 -13 18 C-11.4805627 13.1396313 -8.67081346 9.93920644 -5.375 6.1875 C-4.859375 5.59001953 -4.34375 4.99253906 -3.8125 4.37695312 C-2.54753728 2.91287591 -1.27456166 1.45572845 0 0 Z " fill="#11A3E3" transform="translate(170,530)"/>
<path d="M0 0 C0.99 0.495 0.99 0.495 2 1 C1.67 4.3 1.34 7.6 1 11 C1.7425 10.54625 2.485 10.0925 3.25 9.625 C5.47106199 8.31255428 7.68781872 7.13632841 10 6 C9.0919838 7.13199353 8.17316174 8.25532363 7.25 9.375 C6.73953125 10.00148438 6.2290625 10.62796875 5.703125 11.2734375 C4 13 4 13 0 15 C0 10.05 0 5.1 0 0 Z " fill="#F56012" transform="translate(365,478)"/>
<path d="M0 0 C0.66 0.33 1.32 0.66 2 1 C0.28061972 2.49053106 -1.45092813 3.96703425 -3.1875 5.4375 C-4.63189453 6.67306641 -4.63189453 6.67306641 -6.10546875 7.93359375 C-8.92209238 9.94438174 -10.60635331 10.6587741 -14 11 C-9.85989729 6.45924219 -5.17609824 3.28157862 0 0 Z " fill="#A1B24E" transform="translate(342,529)"/>
<path d="M0 0 C0.33 0.99 0.66 1.98 1 3 C-0.21484375 4.82421875 -0.21484375 4.82421875 -1.9375 6.6875 C-2.50339844 7.31011719 -3.06929687 7.93273437 -3.65234375 8.57421875 C-4.09707031 9.04472656 -4.54179688 9.51523437 -5 10 C-5.99 9.67 -6.98 9.34 -8 9 C-5.36 6.03 -2.72 3.06 0 0 Z " fill="#33405C" transform="translate(827,520)"/>
<path d="M0 0 C0.33 0.66 0.66 1.32 1 2 C-0.24196122 3.15454162 -1.49392845 4.29832562 -2.75 5.4375 C-3.79414063 6.39462891 -3.79414063 6.39462891 -4.859375 7.37109375 C-6.98792725 8.99081325 -8.39023405 9.58267256 -11 10 C-7.50640535 6.40365256 -3.88901869 3.16548033 0 0 Z " fill="#D4A238" transform="translate(367,510)"/>
<path d="M0 0 C0.66 0.33 1.32 0.66 2 1 C0.25 3.0625 0.25 3.0625 -2 5 C-4.25 4.75 -4.25 4.75 -6 4 C-4.02 2.68 -2.04 1.36 0 0 Z M-8 5 C-7.34 5.33 -6.68 5.66 -6 6 C-6.99 6.66 -7.98 7.32 -9 8 C-9.99 7.67 -10.98 7.34 -12 7 C-10.125 5.9375 -10.125 5.9375 -8 5 Z " fill="#79BD64" transform="translate(315,547)"/>
<path d="M0 0 C0.33 0.66 0.66 1.32 1 2 C-0.125 5.0625 -0.125 5.0625 -2 8 C-4.6875 8.875 -4.6875 8.875 -7 9 C-6.02180976 7.68677212 -5.0424189 6.37443848 -4.0625 5.0625 C-3.51722656 4.33160156 -2.97195312 3.60070312 -2.41015625 2.84765625 C-1 1 -1 1 0 0 Z " fill="#2CACEB" transform="translate(170,530)"/>
<path d="M0 0 C0.66 0.33 1.32 0.66 2 1 C1.07456291 2.34173403 0.13422595 3.67320159 -0.8125 5 C-1.33457031 5.7425 -1.85664063 6.485 -2.39453125 7.25 C-2.92433594 7.8275 -3.45414062 8.405 -4 9 C-4.99 9 -5.98 9 -7 9 C-4.69 6.03 -2.38 3.06 0 0 Z " fill="#FD6142" transform="translate(424,453)"/>
<path d="M0 0 C0.66 0.33 1.32 0.66 2 1 C-1.96 4.465 -1.96 4.465 -6 8 C-6.66 7.67 -7.32 7.34 -8 7 C-5.36 4.69 -2.72 2.38 0 0 Z " fill="#E7A03A" transform="translate(376,502)"/>
<path d="M0 0 C0.33 0.66 0.66 1.32 1 2 C-0.61594832 4.04119788 -2.2856382 6.04072937 -4 8 C-4.66 8 -5.32 8 -6 8 C-4.55746343 4.63408134 -2.66735273 2.48952921 0 0 Z " fill="#CB2E5F" transform="translate(466,496)"/>
<path d="M0 0 C0.33 0.99 0.66 1.98 1 3 C-0.28965176 4.37562854 -1.62689293 5.70766393 -3 7 C-3.66 7 -4.32 7 -5 7 C-3.70700306 4.11562221 -2.34058637 2.12780579 0 0 Z " fill="#9AD246" transform="translate(289,435)"/>
<path d="M0 0 C0.66 0.66 1.32 1.32 2 2 C-0.31 4.64 -2.62 7.28 -5 10 C-5 6.60406522 -4.47834052 5.93380119 -2.5 3.3125 C-2.0359375 2.68988281 -1.571875 2.06726563 -1.09375 1.42578125 C-0.7328125 0.95527344 -0.371875 0.48476563 0 0 Z " fill="#F93A4E" transform="translate(449,421)"/>
</svg>
