<?xml version="1.0" encoding="UTF-8"?>
<svg version="1.1" xmlns="http://www.w3.org/2000/svg" width="1024" height="1024">
<path d="M0 0 C337.92 0 675.84 0 1024 0 C1024 337.92 1024 675.84 1024 1024 C686.08 1024 348.16 1024 0 1024 C0 686.08 0 348.16 0 0 Z " fill="#FCFCFC" transform="translate(0,0)"/>
<path d="M0 0 C0.16923553 2.70776842 0.3384683 5.41553702 0.50769043 8.12330627 C0.66202585 10.59249637 0.81640585 13.06168368 0.9708252 15.53086853 C1.36543195 21.84169779 1.75967911 28.15254842 2.15226364 34.46350384 C2.38250839 38.16448694 2.61305519 41.86545118 2.84375 45.56640625 C2.89067238 46.31922945 2.93759476 47.07205265 2.98593903 47.84768867 C3.64840933 58.46745389 4.32571745 69.0861785 5.01406097 79.70429611 C5.29391078 84.03039096 5.57087855 88.35667136 5.84773636 92.6829586 C6.06836946 96.12632152 6.2910214 99.56952877 6.51843262 103.01245117 C7.4406857 117.02295888 8.32040947 130.95411339 8 145 C3.81238337 143.71939982 0.17943621 142.13653086 -3.6171875 139.9609375 C-4.63554688 139.38085938 -5.65390625 138.80078125 -6.703125 138.203125 C-7.74984375 137.59984375 -8.7965625 136.9965625 -9.875 136.375 C-11.47988281 135.45847656 -11.47988281 135.45847656 -13.1171875 134.5234375 C-15.74755755 133.0203689 -18.37500926 131.51243714 -21 130 C-22.99683849 133.22182899 -24.72068098 136.42429216 -26.2421875 139.89453125 C-35.21524669 160.07185386 -45.16890441 179.59757167 -57.57568359 197.89746094 C-59.09082484 200.13407328 -60.58641695 202.38310304 -62.08203125 204.6328125 C-69.07392816 215.07380385 -76.52280623 225.07010778 -84.34277344 234.90356445 C-86.09221357 237.11665262 -87.81601262 239.34835181 -89.5390625 241.58203125 C-92.5864635 245.50603553 -95.74607112 249.30892029 -99 253.0625 C-99.52053955 253.66610352 -100.0410791 254.26970703 -100.57739258 254.89160156 C-102.04914951 256.59653762 -103.52396774 258.29876526 -105 260 C-105.66386719 260.76699219 -106.32773437 261.53398437 -107.01171875 262.32421875 C-111.60945385 267.60786304 -116.30061976 272.80682793 -121 278 C-122.15640991 279.28668579 -122.15640991 279.28668579 -123.33618164 280.59936523 C-130.40716073 288.40308115 -137.75002244 295.90445374 -145.20776367 303.33813477 C-147.19892777 305.32389676 -149.18463221 307.3150074 -151.16992188 309.30664062 C-162.41933366 320.56202297 -162.41933366 320.56202297 -168.33325195 325.58276367 C-171.13660064 327.96645184 -173.80853032 330.49167152 -176.5 333 C-181.2653564 337.41617373 -186.07031588 341.76709102 -191 346 C-192.07035558 346.92442929 -193.14066365 347.84891358 -194.2109375 348.7734375 C-200.42873328 354.13419733 -206.68106401 359.44256208 -213.05859375 364.61328125 C-215.22602195 366.37197797 -217.38361579 368.14005942 -219.53515625 369.91796875 C-250.04151788 395.04360112 -282.94643505 417.92777676 -317 438 C-317.99386719 438.59103516 -318.98773438 439.18207031 -320.01171875 439.79101562 C-323.2953494 441.74275547 -326.58413454 443.68548681 -329.875 445.625 C-331.43806885 446.55094971 -331.43806885 446.55094971 -333.03271484 447.49560547 C-334.49765381 448.3524292 -334.49765381 448.3524292 -335.9921875 449.2265625 C-336.86214355 449.73783691 -337.73209961 450.24911133 -338.62841797 450.77587891 C-340.78427445 451.88865061 -342.62993959 452.54107948 -345 453 C-345 453.66 -345 454.32 -345 455 C-346.60149886 455.67305018 -348.20631029 456.33822227 -349.8125 457 C-350.70582031 457.37125 -351.59914063 457.7425 -352.51953125 458.125 C-355 459 -355 459 -358 459 C-358 459.66 -358 460.32 -358 461 C-363.75 464 -363.75 464 -366 464 C-366 464.66 -366 465.32 -366 466 C-367.02738281 466.44730469 -368.05476562 466.89460938 -369.11328125 467.35546875 C-370.51304005 467.96610178 -371.91277852 468.57678142 -373.3125 469.1875 C-373.98345703 469.47947266 -374.65441406 469.77144531 -375.34570312 470.07226562 C-379.323526 471.80906153 -383.27768208 473.58748855 -387.21875 475.40625 C-427.10740221 493.57011025 -481.7486472 515.86278479 -526.20703125 502 C-540.38501076 496.46712995 -550.71455376 488.57257865 -557.7109375 474.97265625 C-566.15676078 455.49607589 -562.27014245 431.19759008 -554.77294922 411.93066406 C-546.95761495 392.40960803 -536.99776181 374.25705465 -525 357 C-524.34 356.01 -523.68 355.02 -523 354 C-522.34 354 -521.68 354 -521 354 C-522.32885962 358.71141139 -524.37714843 362.58925896 -526.87890625 366.75390625 C-528.08504 369.17037631 -528.58421759 371.3417956 -529 374 C-529.66 374 -530.32 374 -531 374 C-530.67 374.99 -530.34 375.98 -530 377 C-530.2507236 379.11241835 -530.57431761 381.2164866 -530.9375 383.3125 C-532.75341773 395.38959669 -534.07514904 409.86738811 -526.875 420.5625 C-526.25625 421.366875 -525.6375 422.17125 -525 423 C-524.505 424.485 -524.505 424.485 -524 426 C-522.13462032 427.08396362 -522.13462032 427.08396362 -520 428 C-518.82907056 428.80634459 -517.66255254 429.6191242 -516.5 430.4375 C-501.93574194 439.35546961 -480.47370069 437.67239207 -464.33984375 434.1171875 C-462.89147463 433.75167512 -461.44506937 433.37834764 -460 433 C-458.54231201 432.62149902 -458.54231201 432.62149902 -457.05517578 432.23535156 C-446.12871308 429.35918635 -435.42423042 426.38897705 -425 422 C-423.58239476 421.42618447 -422.16443576 420.85324198 -420.74609375 420.28125 C-375.51919628 401.70058966 -334.67919673 375.92475033 -295.85498047 346.40966797 C-294.09521122 345.07235451 -292.33109636 343.74096488 -290.56640625 342.41015625 C-283.89795467 337.35682859 -277.46616872 332.08589247 -271.11328125 326.64453125 C-268.30821314 324.24672003 -265.44296865 321.93190535 -262.5625 319.625 C-256.86998065 314.99774743 -251.55046791 310.00809614 -246.20703125 304.98828125 C-243.85453369 302.78234829 -241.46276156 300.64556385 -239 298.5625 C-233.81845134 294.10029866 -229.07962337 289.15864269 -224.26953125 284.3046875 C-223.71475098 283.74620117 -223.1599707 283.18771484 -222.58837891 282.61230469 C-221.56102135 281.56947202 -220.54183041 280.51850264 -219.53271484 279.45800781 C-218.39096188 278.26984893 -217.19981972 277.12949281 -216 276 C-215.34 276 -214.68 276 -214 276 C-213.7321167 275.40541992 -213.4642334 274.81083984 -213.18823242 274.19824219 C-211.98789327 271.97760243 -210.79297002 270.5756393 -208.98828125 268.828125 C-208.39901855 268.250625 -207.80975586 267.673125 -207.20263672 267.078125 C-206.5788916 266.47484375 -205.95514648 265.8715625 -205.3125 265.25 C-200.31333978 260.33023154 -195.51413836 255.37211714 -191 250 C-189.65298668 248.44169047 -188.30592245 246.88342481 -186.95825195 245.32568359 C-170.91237887 226.72184744 -155.28597808 207.70371657 -142 187 C-141.46020508 186.16194824 -140.92041016 185.32389648 -140.36425781 184.46044922 C-123.03623595 157.40897241 -109.01550708 129.38497248 -97.5 99.4375 C-97.1491333 98.52605225 -96.7982666 97.61460449 -96.43676758 96.67553711 C-95.95759888 95.41108765 -95.95759888 95.41108765 -95.46875 94.12109375 C-95.18451172 93.3727124 -94.90027344 92.62433105 -94.60742188 91.85327148 C-93.8961819 90.00829229 -93.8961819 90.00829229 -94 88 C-94.71542969 87.60208252 -95.43085937 87.20416504 -96.16796875 86.79418945 C-98.86013733 85.29551702 -101.55125139 83.79497195 -104.24169922 82.29321289 C-105.96372892 81.33273062 -107.68693044 80.37435026 -109.41015625 79.41601562 C-115.37378915 76.08544871 -121.24888695 72.68606878 -127 69 C-124.45883111 66.10133447 -121.60809447 64.56402409 -118.21484375 62.77734375 C-116.47340088 61.85393188 -116.47340088 61.85393188 -114.69677734 60.91186523 C-114.08356628 60.58983124 -113.47035522 60.26779724 -112.83856201 59.93600464 C-109.62750523 58.24944467 -106.42577955 56.5453139 -103.22265625 54.84375 C-102.58960571 54.50810532 -101.95655518 54.17246063 -101.30432129 53.8266449 C-96.46075331 51.25552891 -91.65618919 48.62239613 -86.875 45.9375 C-72.60229465 37.94970262 -58.16510211 30.25891411 -43.7109375 22.60546875 C-43.00738129 22.23270309 -42.30382507 21.85993744 -41.57894897 21.47587585 C-38.15051355 19.65964682 -34.72083029 17.84586394 -31.28857422 16.03686523 C-23.7459319 12.05156841 -16.29929819 7.93526242 -8.91699219 3.65966797 C-2.48484848 0 -2.48484848 0 0 0 Z " fill="#A47B76" transform="translate(763,208)"/>
<path d="M0 0 C0.66 0 1.32 0 2 0 C2.04582043 32.91819666 2.08104101 65.83638502 2.10213066 98.75460632 C2.10463194 102.6446725 2.1072206 106.53473861 2.10986328 110.42480469 C2.1103879 111.1992168 2.11091252 111.97362892 2.11145304 112.77150807 C2.12014552 125.29553934 2.1359091 137.81955218 2.15430559 150.34357253 C2.17303687 163.20317044 2.18412354 176.06275872 2.18817699 188.92236972 C2.19091536 196.85154155 2.19955095 204.78066125 2.21583293 212.70981702 C2.22769713 218.79933271 2.22890321 224.88880396 2.22621536 230.97833252 C2.22676418 233.469534 2.23072361 235.96073751 2.23841095 238.45192719 C2.24841921 241.86346965 2.24594742 245.27479236 2.24050903 248.68634033 C2.24633472 249.66303279 2.2521604 250.63972525 2.25816262 251.64601445 C2.16071764 274.39344128 -5.54532228 296.25514492 -21 313 C-21.61230469 313.70382812 -22.22460938 314.40765625 -22.85546875 315.1328125 C-36.46886702 329.93629463 -57.24546563 338.52228068 -77 340 C-81.68846534 340.11555582 -86.37298834 340.09491023 -91.0625 340.0625 C-92.30966797 340.05798828 -93.55683594 340.05347656 -94.84179688 340.04882812 C-97.89458221 340.03713163 -100.94726498 340.02074086 -104 340 C-104.18684676 312.21889571 -104.3279385 284.43788553 -104.41449738 256.65627956 C-104.45575575 243.75688618 -104.51200965 230.8578831 -104.60351562 217.95874023 C-104.68323046 206.71638148 -104.73486047 195.47430538 -104.75270796 184.23167187 C-104.76314153 178.27810464 -104.78767643 172.32534604 -104.84584045 166.37203789 C-104.90014576 160.76827834 -104.91689167 155.16566037 -104.90486145 149.56166267 C-104.90706218 147.50530416 -104.92297449 145.44890746 -104.9536438 143.39277649 C-105.1742469 127.84009639 -105.1742469 127.84009639 -102.28442383 123.3116169 C-100.26700025 121.52661645 -98.344658 120.30414961 -96 119 C-94.76908326 117.87889596 -93.56497079 116.72693167 -92.40234375 115.53515625 C-91.83233643 114.96716309 -91.2623291 114.39916992 -90.67504883 113.81396484 C-90.10165771 113.23598145 -89.5282666 112.65799805 -88.9375 112.0625 C-88.32608154 111.44842285 -87.71466309 110.8343457 -87.0847168 110.20166016 C-83.51301296 106.5922489 -80.05402674 102.92956066 -76.76953125 99.0546875 C-74.40817258 96.31280084 -71.95285129 93.65968365 -69.5 91 C-47.43299857 67.00023106 -27.64683146 40.82146985 -9.49755859 13.75976562 C-8.4752879 12.23683697 -7.45043415 10.71563863 -6.42285156 9.19628906 C-5.45124887 7.75964576 -4.48549693 6.31902375 -3.52636719 4.87402344 C-2.40187862 3.21366541 -1.20726947 1.60117574 0 0 Z " fill="#E12D5F" transform="translate(731,403)"/>
<path d="M0 0 C0 64.68 0 129.36 0 196 C-33.99 196 -67.98 196 -103 196 C-103.36097928 168.03970336 -103.36097928 168.03970336 -103.43945312 156.125 C-103.49326479 147.99327282 -103.55558662 139.86245042 -103.67895508 131.73144531 C-103.77836645 125.17627625 -103.83055276 118.6217176 -103.85389519 112.06583023 C-103.87053043 109.56423679 -103.90301639 107.06269714 -103.95157051 104.56151962 C-104.01688199 101.05790238 -104.02590362 97.55832684 -104.02172852 94.05419922 C-104.054086 93.01913742 -104.08644348 91.98407562 -104.11978149 90.91764832 C-104.03072604 84.01427406 -104.03072604 84.01427406 -101.02412605 81.05566406 C-98.74135726 79.52335473 -96.4486818 78.24433735 -94 77 C-92.31316448 75.77555799 -90.63822659 74.53426492 -88.984375 73.265625 C-88.13206299 72.61400391 -87.27975098 71.96238281 -86.40161133 71.29101562 C-85.52657959 70.61748047 -84.65154785 69.94394531 -83.75 69.25 C-82.83049561 68.54552734 -81.91099121 67.84105469 -80.96362305 67.11523438 C-79.13738568 65.71544516 -77.31207913 64.31444056 -75.48779297 62.91210938 C-73.36013007 61.27679477 -71.22985002 59.64502327 -69.09765625 58.015625 C-59.8412225 50.93474627 -50.75432014 43.69119061 -41.88452148 36.13256836 C-38.48647051 33.24051471 -35.04470608 30.41588576 -31.5625 27.625 C-25.88576719 23.01057976 -20.58033412 18.03529767 -15.25 13.03125 C-12.08431911 10.06342417 -8.84755059 7.1888127 -5.55078125 4.3671875 C-3.94717158 2.98711697 -3.94717158 2.98711697 -2.35546875 1.3203125 C-1 0 -1 0 0 0 Z " fill="#F77C10" transform="translate(609,547)"/>
<path d="M0 0 C0.84940659 -0.01343445 1.69881317 -0.0268689 2.57395935 -0.04071045 C5.37514792 -0.07863268 8.17537755 -0.0865158 10.97680664 -0.09082031 C12.92827242 -0.10367737 14.87973432 -0.11713418 16.83119202 -0.13116455 C20.9191278 -0.15509926 25.00672567 -0.16252725 29.09472656 -0.16015625 C34.32884827 -0.15974952 39.56080215 -0.21438635 44.79440975 -0.28324509 C48.82399922 -0.32775457 52.85306532 -0.33583241 56.88287544 -0.33371735 C58.81221565 -0.33843242 60.74156993 -0.35609775 62.67066765 -0.38704681 C65.37182734 -0.4263306 68.0682931 -0.41472337 70.76953125 -0.390625 C71.56296936 -0.41310303 72.35640747 -0.43558105 73.17388916 -0.45874023 C76.54830715 -0.3823838 78.62944821 -0.08693713 81.28771114 2.07850933 C85.66000632 7.23285795 86.34541592 11.91081098 86.33691406 18.49438477 C86.35867203 19.45324081 86.38042999 20.41209686 86.40284729 21.40000916 C86.46462949 24.5506495 86.48150076 27.69938491 86.49243164 30.85058594 C86.51427371 33.05483214 86.53685322 35.25907115 86.56013489 37.46330261 C86.60049955 42.07734522 86.61568487 46.69072178 86.61621094 51.30493164 C86.62118868 57.19766446 86.71346916 63.08548084 86.82804394 68.976964 C86.90252663 73.5284212 86.91760848 78.07870364 86.91649818 82.63071251 C86.92538298 84.80165266 86.95532655 86.97261884 87.0073452 89.14295387 C87.39679159 106.95754048 87.39679159 106.95754048 82.58552551 112.32301331 C79.46471623 115.20653615 76.08121811 117.39119586 72.44946289 119.58105469 C71.19814629 120.55413143 69.96012631 121.54519888 68.75024414 122.56933594 C67.76411133 123.33632813 66.77797852 124.10332031 65.76196289 124.89355469 C65.20001221 125.33103027 64.63806152 125.76850586 64.05908203 126.21923828 C62.84327299 127.16550708 61.62670436 128.11080065 60.40942383 129.05517578 C58.27304035 130.71840407 56.14610805 132.3932801 54.01977539 134.06933594 C46.00896807 140.3694269 37.97091355 146.54761072 29.49291992 152.21386719 C26.97148061 153.90085168 24.4591889 155.60121018 21.94555664 157.29980469 C12.41904232 163.71546462 2.85997212 170.06554588 -6.92553711 176.08105469 C-8.04835083 176.77497314 -8.04835083 176.77497314 -9.19384766 177.48291016 C-14.30054015 180.58105469 -14.30054015 180.58105469 -16.55053711 180.58105469 C-16.62063356 158.66710959 -16.67352844 136.753183 -16.70597363 114.83914852 C-16.72143924 104.66396778 -16.74252296 94.48885672 -16.77685547 84.3137207 C-16.80676713 75.44456118 -16.82611434 66.57545213 -16.83280259 57.70624357 C-16.83671184 53.01052418 -16.84589284 48.31494915 -16.86772728 43.61927605 C-16.88812031 39.19768116 -16.89436521 34.77628986 -16.88986015 30.3546524 C-16.89068409 28.73373622 -16.89663299 27.11281309 -16.90815353 25.49193764 C-16.92314212 23.27395377 -16.91946808 21.05673242 -16.91130066 18.83872986 C-16.91406604 17.59891829 -16.91683142 16.35910673 -16.9196806 15.08172512 C-16.38020057 9.96571508 -14.88611536 6.07052662 -11.39744568 2.17987061 C-7.61014872 0.05293519 -4.23349288 -0.00964752 0 0 Z " fill="#5BC14C" transform="translate(403.550537109375,403.4189453125)"/>
<path d="M0 0 C0.91756577 -0.00058411 1.83513153 -0.00116821 2.78050232 -0.00177002 C5.80547254 0.00101089 8.82945051 0.03210357 11.85424805 0.06347656 C13.95459963 0.07093892 16.05495818 0.07663187 18.15531921 0.08062744 C23.67761531 0.09588412 29.19948914 0.1351666 34.72161865 0.17944336 C40.3588693 0.2203951 45.99618833 0.23863828 51.63354492 0.25878906 C62.69037085 0.30166051 73.74688368 0.36991256 84.8034668 0.45410156 C85.01341782 8.57384778 85.17261269 16.69243218 85.26977634 24.81423473 C85.3164481 28.58702166 85.3795768 32.35793181 85.48242188 36.12963867 C85.58132562 39.78029161 85.63424914 43.42915823 85.65736198 47.08104897 C85.67379758 48.46334232 85.7058883 49.84555469 85.75503731 51.22707176 C86.15423584 62.92997419 82.99362188 68.68434609 75.8034668 77.45410156 C74.40013004 79.34438743 73.00317795 81.23945016 71.6159668 83.14160156 C70.01716124 85.25013084 68.41332347 87.35406043 66.8034668 89.45410156 C66.28623047 90.13134277 65.76899414 90.80858398 65.23608398 91.50634766 C55.32909182 104.45526145 45.01373747 116.9238643 34.03393555 128.97753906 C32.17249242 131.04436033 30.34221695 133.13169487 28.51831055 135.23144531 C24.82872374 139.45514842 21.02687925 143.56262594 17.1784668 147.64160156 C16.48624023 148.37556152 15.79401367 149.10952148 15.08081055 149.86572266 C-1.47576715 167.3526585 -1.47576715 167.3526585 -10.61450195 175.08691406 C-12.38249017 176.57537816 -12.38249017 176.57537816 -14.5715332 178.89160156 C-16.1965332 180.45410156 -16.1965332 180.45410156 -18.1965332 180.45410156 C-18.28996819 158.39252 -18.36050835 136.33097106 -18.40378189 114.2692318 C-18.42440847 104.02561199 -18.45253096 93.78211512 -18.49829102 83.53857422 C-18.53815578 74.61046028 -18.56396532 65.68243537 -18.57288718 56.75423491 C-18.57810253 52.02664077 -18.59036254 47.29930132 -18.61945343 42.57178879 C-18.64661681 38.12142873 -18.65497634 33.67142813 -18.64896393 29.22099304 C-18.65006375 27.5883603 -18.65801227 25.95571546 -18.6733551 24.32315445 C-18.69329834 22.0914918 -18.68845779 19.86118092 -18.67755127 17.62948608 C-18.68123844 16.38137838 -18.68492561 15.13327068 -18.68872452 13.84734154 C-17.95550287 8.79240268 -15.42410102 5.77839884 -12.02131653 2.10748291 C-7.98913776 -0.25260223 -4.59269971 -0.07671153 0 0 Z " fill="#F38616" transform="translate(524.196533203125,315.5458984375)"/>
<path d="M0 0 C0.81316681 -0.00978378 1.62633362 -0.01956757 2.46414185 -0.02964783 C5.16113642 -0.05961796 7.85808146 -0.08098945 10.55517578 -0.09985352 C11.47508427 -0.10642534 12.39499275 -0.11299717 13.34277725 -0.11976814 C18.21027336 -0.15236596 23.0777475 -0.17681796 27.9453125 -0.19628906 C31.97883815 -0.21412067 36.01166711 -0.24896937 40.04492188 -0.29882812 C44.91023518 -0.35890688 49.77490117 -0.38974741 54.64056778 -0.39946175 C56.49620212 -0.40803729 58.35181821 -0.42690691 60.20724106 -0.45620537 C62.8029958 -0.49499317 65.39621327 -0.49617228 67.9921875 -0.48828125 C69.14409576 -0.51828217 69.14409576 -0.51828217 70.3192749 -0.54888916 C74.24918866 -0.49519114 75.81662427 -0.10570905 78.60543823 2.73353577 C80.3758487 6.78112511 80.6622156 10.17387165 80.57958984 14.5090332 C80.58017395 15.31945572 80.58075806 16.12987823 80.58135986 16.96485901 C80.57858667 19.62732692 80.54753196 22.28865689 80.51611328 24.95092773 C80.50864815 26.80322661 80.5029565 28.65553341 80.4989624 30.50784302 C80.48372752 35.37091066 80.44446426 40.23349654 80.40014648 45.09637451 C80.35914743 50.06345097 80.3409415 55.03060566 80.32080078 59.99780273 C80.27796788 69.73499297 80.2097426 79.47182646 80.12548828 89.20874023 C75.68651984 91.25825988 71.24418138 93.30023949 66.79884338 95.33590698 C65.29348696 96.02645141 63.78899919 96.71889326 62.28547668 97.41342163 C40.30413266 107.5630328 14.88864882 118.48875484 -9.71044922 118.25732422 C-11.169104 118.24680275 -11.169104 118.24680275 -12.65722656 118.23606873 C-13.75478271 118.22254112 -13.75478271 118.22254112 -14.87451172 118.20874023 C-14.99140798 103.83986316 -15.07919785 89.47106 -15.13357258 75.10180473 C-15.15966948 68.42957915 -15.19507026 61.75773501 -15.25170898 55.08569336 C-15.30602356 48.64716578 -15.33593161 42.20894545 -15.34889793 35.77020645 C-15.35813863 33.31337776 -15.37618352 30.85656595 -15.403162 28.39986801 C-15.43944309 24.95932384 -15.4444572 21.5200503 -15.44213867 18.0793457 C-15.46011505 17.06298538 -15.47809143 16.04662506 -15.49661255 14.99946594 C-15.46338874 10.4450295 -15.3930782 7.22460015 -12.46403503 3.59182739 C-8.36886589 -0.17687588 -5.34129103 0.04034397 0 0 Z " fill="#1E9ED4" transform="translate(289.87451171875,505.791259765625)"/>
<path d="M0 0 C0 33 0 66 0 100 C-33.66 100 -67.32 100 -102 100 C-102 85.81 -102 71.62 -102 57 C-83 47 -83 47 -75.5 43.3125 C-52.24260508 31.8417066 -29.94311749 18.41780417 -8.36938477 4.06201172 C-7.16560181 3.26754639 -7.16560181 3.26754639 -5.9375 2.45703125 C-5.22464844 1.98241455 -4.51179688 1.50779785 -3.77734375 1.01879883 C-2 0 -2 0 0 0 Z " fill="#1578C8" transform="translate(489,643)"/>
<path d="M0 0 C0.84940659 -0.01343445 1.69881317 -0.0268689 2.57395935 -0.04071045 C5.37514792 -0.07863268 8.17537755 -0.0865158 10.97680664 -0.09082031 C12.92827242 -0.10367737 14.87973432 -0.11713418 16.83119202 -0.13116455 C20.9191278 -0.15509926 25.00672567 -0.16252725 29.09472656 -0.16015625 C34.32884827 -0.15974952 39.56080215 -0.21438635 44.79440975 -0.28324509 C48.82399922 -0.32775457 52.85306532 -0.33583241 56.88287544 -0.33371735 C58.81221565 -0.33843242 60.74156993 -0.35609775 62.67066765 -0.38704681 C65.37182734 -0.4263306 68.0682931 -0.41472337 70.76953125 -0.390625 C71.56296936 -0.41310303 72.35640747 -0.43558105 73.17388916 -0.45874023 C76.54694852 -0.38241455 78.63020282 -0.08097536 81.29496384 2.07237244 C85.75401104 7.29820217 86.28944041 11.99606335 86.13061523 18.66894531 C86.13192947 20.13373322 86.13192947 20.13373322 86.13327026 21.62811279 C86.12911483 24.83201168 86.08255831 28.03377497 86.03540039 31.23730469 C86.02420102 33.46788388 86.01566434 35.69847789 86.00967407 37.92907715 C85.98683448 43.78199462 85.92795205 49.63400975 85.8614502 55.48657227 C85.7999232 61.46585892 85.77263676 67.44529228 85.74243164 73.42480469 C85.67820504 85.14394977 85.57588372 96.86242701 85.44946289 108.58105469 C85.11946289 108.58105469 84.78946289 108.58105469 84.44946289 108.58105469 C84.43400169 106.90308807 84.43400169 106.90308807 84.41822815 105.19122314 C84.32052625 94.65565487 84.21779514 84.12014608 84.11012363 73.58467484 C84.0549291 68.16812418 84.00151457 62.75156809 83.95214844 57.33496094 C83.90445382 52.10890749 83.85210904 46.88291953 83.79652214 41.65694427 C83.77612172 39.66184873 83.75740482 37.66673525 83.74038887 35.67160797 C83.71629375 32.87996429 83.68624604 30.08844402 83.65478516 27.296875 C83.64902969 26.46968964 83.64327423 25.64250427 83.63734436 24.79025269 C83.59159785 21.22555487 83.40696307 18.01240426 82.44946289 14.58105469 C81.63155273 15.70640625 81.63155273 15.70640625 80.79711914 16.85449219 C68.42732146 33.64358511 55.35312063 44.08415194 36.94946289 53.70605469 C35.98862793 54.20878906 35.02779297 54.71152344 34.0378418 55.22949219 C25.11111629 59.84702589 16.02991636 64.03437106 6.69946289 67.76855469 C4.88188477 68.50138672 4.88188477 68.50138672 3.02758789 69.24902344 C-3.74644786 71.77079876 -8.0934067 72.58105469 -15.55053711 72.58105469 C-15.55053711 108.22105469 -15.55053711 143.86105469 -15.55053711 180.58105469 C-15.88053711 180.58105469 -16.21053711 180.58105469 -16.55053711 180.58105469 C-16.62063356 158.66710959 -16.67352844 136.753183 -16.70597363 114.83914852 C-16.72143924 104.66396778 -16.74252296 94.48885672 -16.77685547 84.3137207 C-16.80676713 75.44456118 -16.82611434 66.57545213 -16.83280259 57.70624357 C-16.83671184 53.01052418 -16.84589284 48.31494915 -16.86772728 43.61927605 C-16.88812031 39.19768116 -16.89436521 34.77628986 -16.88986015 30.3546524 C-16.89068409 28.73373622 -16.89663299 27.11281309 -16.90815353 25.49193764 C-16.92314212 23.27395377 -16.91946808 21.05673242 -16.91130066 18.83872986 C-16.91406604 17.59891829 -16.91683142 16.35910673 -16.9196806 15.08172512 C-16.38020057 9.96571508 -14.88611536 6.07052662 -11.39744568 2.17987061 C-7.61014872 0.05293519 -4.23349288 -0.00964752 0 0 Z " fill="#9ECF42" transform="translate(403.550537109375,403.4189453125)"/>
<path d="M0 0 C0.91756577 -0.00058411 1.83513153 -0.00116821 2.78050232 -0.00177002 C5.80547254 0.00101089 8.82945051 0.03210357 11.85424805 0.06347656 C13.95459963 0.07093892 16.05495818 0.07663187 18.15531921 0.08062744 C23.67761531 0.09588412 29.19948914 0.1351666 34.72161865 0.17944336 C40.3588693 0.2203951 45.99618833 0.23863828 51.63354492 0.25878906 C62.69037085 0.30166051 73.74688368 0.36991256 84.8034668 0.45410156 C84.20074666 3.01090183 83.58880223 5.56489695 82.97143555 8.11816406 C82.80317261 8.83625244 82.63490967 9.55434082 82.46154785 10.29418945 C78.51287758 26.48697798 65.31998122 38.52061581 51.8034668 47.45410156 C46.65961808 50.51712171 41.28258552 53.05478575 35.8034668 55.45410156 C34.67811523 55.9478125 33.55276367 56.44152344 32.39331055 56.95019531 C16.12284817 63.61258391 1.98375098 63.7268902 -16.1965332 64.45410156 C-16.5265332 102.73410156 -16.8565332 141.01410156 -17.1965332 180.45410156 C-17.5265332 180.45410156 -17.8565332 180.45410156 -18.1965332 180.45410156 C-18.28996819 158.39252 -18.36050835 136.33097106 -18.40378189 114.2692318 C-18.42440847 104.02561199 -18.45253096 93.78211512 -18.49829102 83.53857422 C-18.53815578 74.61046028 -18.56396532 65.68243537 -18.57288718 56.75423491 C-18.57810253 52.02664077 -18.59036254 47.29930132 -18.61945343 42.57178879 C-18.64661681 38.12142873 -18.65497634 33.67142813 -18.64896393 29.22099304 C-18.65006375 27.5883603 -18.65801227 25.95571546 -18.6733551 24.32315445 C-18.69329834 22.0914918 -18.68845779 19.86118092 -18.67755127 17.62948608 C-18.68123844 16.38137838 -18.68492561 15.13327068 -18.68872452 13.84734154 C-17.95550287 8.79240268 -15.42410102 5.77839884 -12.02131653 2.10748291 C-7.98913776 -0.25260223 -4.59269971 -0.07671153 0 0 Z " fill="#F8AC28" transform="translate(524.196533203125,315.5458984375)"/>
<path d="M0 0 C0.33 0 0.66 0 1 0 C2.29767914 20.66589676 2.29767914 20.66589676 -1.8125 26.3125 C-3.19963022 27.88273141 -4.59650521 29.44437815 -6 31 C-7.75404154 33.43456343 -9.39931759 35.94031335 -11.0625 38.4375 C-22.66437246 55.43251 -35.17868495 71.62892606 -48.53369141 87.27490234 C-50.01384099 89.01628378 -51.48235723 90.76694893 -52.94921875 92.51953125 C-58.33595775 98.92361834 -63.8781848 105.02907646 -69.85571289 110.88745117 C-72.48154274 113.46403861 -75.0001328 116.06563329 -77.375 118.875 C-80.76284422 122.84003249 -84.3956144 126.5450663 -88.0625 130.25 C-88.65272949 130.85312012 -89.24295898 131.45624023 -89.85107422 132.07763672 C-93.34033728 135.57470355 -96.78974415 138.41104511 -101 141 C-102.33069806 134.87878895 -103.06411934 129.03290289 -101 123 C-96.24655631 116.09753308 -89.69662893 110.71052128 -83.43115234 105.22167969 C-79.97427897 102.06265702 -77.0078942 98.57848058 -74 95 C-72.18617476 92.98139295 -70.34173946 90.99341212 -68.5 89 C-48.09430942 66.81341128 -29.50620164 42.72422016 -12.58203125 17.7890625 C-9.89205062 13.82672412 -7.14675083 9.9054902 -4.375 6 C-3.94856201 5.39365723 -3.52212402 4.78731445 -3.08276367 4.16259766 C-2.08100929 2.75630053 -1.04419821 1.37507583 0 0 Z " fill="#DA3557" transform="translate(730,405)"/>
<path d="M0 0 C0.66 0 1.32 0 2 0 C2 11.88 2 23.76 2 36 C-29.35 36 -60.7 36 -93 36 C-93 32.7 -93 29.4 -93 26 C-91.65035156 25.87044922 -91.65035156 25.87044922 -90.2734375 25.73828125 C-79.14755248 24.52312948 -68.42141647 22.23622458 -57.54931641 19.60839844 C-55.34316832 19.08189767 -53.13407819 18.58388237 -50.91796875 18.1015625 C-38.2353009 15.20646136 -26.16298941 10.55503847 -14 6 C-13.2167334 5.70851074 -12.4334668 5.41702148 -11.62646484 5.11669922 C-5.38819963 3.28023839 -5.38819963 3.28023839 0 0 Z " fill="#125BB3" transform="translate(368,707)"/>
<path d="M0 0 C2.06236339 15.50046131 2.06236339 15.50046131 -1.19677734 21.03076172 C-4.37822785 24.78347555 -8.19182088 27.74753429 -12.14892578 30.64355469 C-14.77540925 32.56821074 -17.25123223 34.66351099 -19.75 36.75 C-20.63558594 37.45898438 -21.52117187 38.16796875 -22.43359375 38.8984375 C-24.97559363 40.98001427 -27.39529335 43.1503838 -29.8125 45.375 C-34.77717558 49.89332462 -40.00087397 54.00561936 -45.30078125 58.1171875 C-48.40068281 60.5226652 -51.46237139 62.97187947 -54.51513672 65.43676758 C-66.40236889 75.02863108 -78.64287203 84.11838161 -91.109375 92.94140625 C-92.84072299 94.17440678 -94.54881989 95.44275363 -96.203125 96.77734375 C-98 98 -98 98 -101 98 C-102.20094664 92.59222859 -103.03844632 87.29570875 -101 82 C-96.53330151 76.68212534 -90.23516048 73.16765132 -84.40136719 69.52832031 C-81.25026357 67.52283957 -78.3698102 65.31418826 -75.4375 63 C-74.42429687 62.21367188 -73.41109375 61.42734375 -72.3671875 60.6171875 C-71.83706055 60.20436523 -71.30693359 59.79154297 -70.76074219 59.36621094 C-68.74458585 57.80181676 -66.72002007 56.24862207 -64.6953125 54.6953125 C-56.31926645 48.25076166 -48.13074419 41.66614067 -40.16015625 34.7265625 C-37.32951323 32.26610022 -34.42804662 29.90664212 -31.5 27.5625 C-25.84043091 22.97298238 -20.55913488 18.01535088 -15.25 13.03125 C-12.08431911 10.06342417 -8.84755059 7.1888127 -5.55078125 4.3671875 C-3.94717158 2.98711697 -3.94717158 2.98711697 -2.35546875 1.3203125 C-1 0 -1 0 0 0 Z " fill="#E77114" transform="translate(609,547)"/>
<path d="M0 0 C0.33 0 0.66 0 1 0 C2.67157915 15.65205934 2.67157915 15.65205934 -1.02734375 20.84765625 C-3.90811334 23.12499347 -6.88543267 25.05675577 -10 27 C-11.83555978 28.51413759 -13.64755509 30.05720232 -15.4375 31.625 C-24.00948328 38.78132414 -33.01231008 45.37898042 -42 52 C-42.62100586 52.45874512 -43.24201172 52.91749023 -43.88183594 53.39013672 C-92.27508925 89 -92.27508925 89 -99 89 C-99 67.55 -99 46.1 -99 24 C-98.67 24 -98.34 24 -98 24 C-98 39.51 -98 55.02 -98 71 C-89.38431732 66.36385748 -89.38431732 66.36385748 -81.16796875 61.265625 C-80.19174561 60.61400391 -79.21552246 59.96238281 -78.2097168 59.29101562 C-77.21238525 58.61748047 -76.21505371 57.94394531 -75.1875 57.25 C-74.13796143 56.54552734 -73.08842285 55.84105469 -72.00708008 55.11523438 C-64.23465912 49.87963276 -56.57044328 44.52302788 -49 39 C-48.04351562 38.31808594 -47.08703125 37.63617187 -46.1015625 36.93359375 C-39.50755882 32.21435583 -33.23636494 27.17935393 -27 22 C-25.08427079 20.43635075 -23.1676146 18.87383648 -21.25 17.3125 C-18.09499051 14.73974548 -14.99048133 12.1301916 -11.9375 9.4375 C-9 7 -9 7 -7 7 C-7 6.34 -7 5.68 -7 5 C-4.4385343 2.70351351 -3.52032428 2 0 2 C0 1.34 0 0.68 0 0 Z " fill="#41A352" transform="translate(487,495)"/>
<path d="M0 0 C1.15250088 5.6883669 2.14414531 11.44538504 0 17 C-4.46837587 21.95193275 -10.79393405 24.81782161 -16.66699219 27.79101562 C-19.5637609 29.29214567 -22.23929395 31.04435873 -24.9375 32.875 C-29.33551904 35.68109804 -33.87662453 37.99946748 -38.5703125 40.26879883 C-42.22012712 42.11111343 -45.75180782 44.10336357 -49.296875 46.13671875 C-57.19241526 50.61791212 -65.22488261 54.78245745 -73.34887695 58.83227539 C-75.59637356 59.95441249 -77.83824941 61.08729238 -80.08007812 62.22070312 C-81.53353046 62.94856343 -82.98729492 63.67580087 -84.44140625 64.40234375 C-85.09879288 64.73564194 -85.7561795 65.06894012 -86.43348694 65.41233826 C-90.5538581 67.45210733 -94.54378784 68.85908607 -99 70 C-99.33 65.38 -99.66 60.76 -100 56 C-98.10894531 55.12601563 -98.10894531 55.12601563 -96.1796875 54.234375 C-83.8452727 48.47958618 -71.8412479 42.27942673 -59.95654297 35.64892578 C-56.78888744 33.88225812 -53.61526164 32.12659618 -50.44140625 30.37109375 C-48.23140468 29.14388832 -46.02176199 27.91603635 -43.8125 26.6875 C-42.79768555 26.12514648 -41.78287109 25.56279297 -40.73730469 24.98339844 C-34.00081705 21.21726073 -27.46631853 17.21178059 -21 13 C-20.10224854 12.41581299 -19.20449707 11.83162598 -18.27954102 11.22973633 C-14.73617768 8.91834451 -11.19619032 6.60188616 -7.66015625 4.27929688 C-6.81066406 3.72435547 -5.96117187 3.16941406 -5.0859375 2.59765625 C-4.3232959 2.09758057 -3.5606543 1.59750488 -2.77490234 1.08227539 C-1 0 -1 0 0 0 Z " fill="#167DB5" transform="translate(488,643)"/>
<path d="M0 0 C0 4.95 0 9.9 0 15 C-24.71441255 27.51412318 -49.61976333 37.87623178 -77 43 C-78.06734375 43.20367188 -79.1346875 43.40734375 -80.234375 43.6171875 C-84.83089452 44.2534289 -89.36466219 44.05652851 -94 44 C-94 39.38 -94 34.76 -94 30 C-92.6903125 29.86464844 -91.380625 29.72929688 -90.03125 29.58984375 C-61.81073529 26.37951818 -36.41331362 16.40911425 -11.13500977 3.8605957 C-10.11979248 3.36003662 -9.1045752 2.85947754 -8.05859375 2.34375 C-7.15423584 1.89193359 -6.24987793 1.44011719 -5.31811523 0.97460938 C-3 0 -3 0 0 0 Z " fill="#1269B6" transform="translate(369,580)"/>
<path d="M0 0 C0 6.27 0 12.54 0 19 C-17.82 19 -35.64 19 -54 19 C-53 17 -53 17 -50.87719727 16.24145508 C-49.48585571 15.88410278 -49.48585571 15.88410278 -48.06640625 15.51953125 C-47.03322266 15.24592773 -46.00003906 14.97232422 -44.93554688 14.69042969 C-43.82244141 14.40071289 -42.70933594 14.11099609 -41.5625 13.8125 C-32.08871266 11.26435925 -23.00194915 8.31775334 -13.9375 4.578125 C-2.80459057 0 -2.80459057 0 0 0 Z " fill="#0A5DC0" transform="translate(368,722)"/>
<path d="M0 0 C0 0.66 0 1.32 0 2 C-1.56958008 3.14160156 -1.56958008 3.14160156 -3.76953125 4.390625 C-4.97029297 5.07910522 -4.97029297 5.07910522 -6.1953125 5.78149414 C-7.05898438 6.26610107 -7.92265625 6.75070801 -8.8125 7.25 C-9.69035156 7.74943115 -10.56820312 8.2488623 -11.47265625 8.76342773 C-13.97696442 10.18437256 -16.48698523 11.59452387 -19 13 C-20.00417969 13.56332031 -21.00835937 14.12664063 -22.04296875 14.70703125 C-24.68242939 16.1631407 -27.33978334 17.58215365 -30 19 C-31.3828953 19.75505671 -32.76569944 20.51028038 -34.1484375 21.265625 C-44.97360808 27.12859225 -55.97226555 32.28650427 -67.37353516 36.9296875 C-69.09255984 37.63020844 -70.80853901 38.33826152 -72.52099609 39.0546875 C-89.87873502 46.29586931 -110.85169744 54.35073186 -129.875 54.0625 C-130.65617187 54.05347656 -131.43734375 54.04445313 -132.2421875 54.03515625 C-132.82226562 54.02355469 -133.40234375 54.01195312 -134 54 C-134 53.67 -134 53.34 -134 53 C-132.70191406 52.79246094 -131.40382813 52.58492187 -130.06640625 52.37109375 C-119.46877555 50.60153037 -109.09964461 48.39939334 -98.75 45.5 C-97.72849854 45.21568115 -96.70699707 44.9313623 -95.65454102 44.63842773 C-89.25678712 42.79980009 -83.13518419 40.57434632 -77 38 C-75.58231507 37.42638139 -74.1643544 36.85344368 -72.74609375 36.28125 C-49.02701626 26.53669207 -26.02646072 15.2113499 -4.40625 1.3984375 C-2 0 -2 0 0 0 Z " fill="#29B8D7" transform="translate(415,592)"/>
<path d="M0 0 C3.21714551 0.65830289 5.75484433 1.81552795 8.625 3.3984375 C9.49640625 3.87796875 10.3678125 4.3575 11.265625 4.8515625 C12.61914062 5.60566406 12.61914062 5.60566406 14 6.375 C14.90234375 6.87 15.8046875 7.365 16.734375 7.875 C20.68572741 10.06110326 24.43164587 12.21884271 28 15 C27.43944054 21.71721249 25.10740771 27.55945848 22.6875 33.8125 C22.29626953 34.84181641 21.90503906 35.87113281 21.50195312 36.93164062 C19.33470963 42.61391586 17.10323303 48.26520283 14.78344727 53.88696289 C13.79487881 56.55323276 13.2972096 59.17650883 13 62 C11.515 62.495 11.515 62.495 10 63 C8.78804174 64.81198201 8.78804174 64.81198201 7.79296875 67.1015625 C7.37764893 67.97409668 6.9623291 68.84663086 6.53442383 69.74560547 C6.08993896 70.69580566 5.6454541 71.64600586 5.1875 72.625 C-0.73728904 84.92427744 -7.7270831 96.45990017 -15 108 C-15.33 107.34 -15.66 106.68 -16 106 C-14.91113281 103.73535156 -14.91113281 103.73535156 -13.203125 100.890625 C-12.57929932 99.83689697 -11.95547363 98.78316895 -11.31274414 97.69750977 C-10.9763089 97.13589142 -10.63987366 96.57427307 -10.29324341 95.99563599 C2.83121042 74.03477936 13.32792347 51.29059719 22.5 27.4375 C23.02630005 26.07032837 23.02630005 26.07032837 23.56323242 24.67553711 C23.88267822 23.8325708 24.20212402 22.98960449 24.53125 22.12109375 C24.81548828 21.3727124 25.09972656 20.62433105 25.39257812 19.85327148 C26.1038181 18.00829229 26.1038181 18.00829229 26 16 C25.2479126 15.58637207 24.4958252 15.17274414 23.72094727 14.74658203 C20.93610222 13.21158734 18.15403931 11.6716995 15.3737793 10.12841797 C14.16914591 9.46107153 12.96341872 8.79569562 11.7565918 8.13232422 C10.02367496 7.1793268 8.29497299 6.21867768 6.56640625 5.2578125 C5.52427979 4.6817627 4.48215332 4.10571289 3.40844727 3.51220703 C1 2 1 2 0 0 Z " fill="#EA4F70" transform="translate(643,280)"/>
<path d="M0 0 C0.66 0 1.32 0 2 0 C0.05554344 6.28209042 -1.58078338 11.10493806 -7 15 C-8.60907108 17.37612865 -8.60907108 17.37612865 -10 20 C-11.55768452 22.61548175 -13.13391406 25.21814054 -14.7265625 27.8125 C-18.95885533 34.91857192 -22.54453613 42.14945723 -25.8125 49.75 C-26.1852002 50.61238281 -26.55790039 51.47476563 -26.94189453 52.36328125 C-30.04551905 59.7321043 -32.48144333 67.1452906 -34 75 C-34.16935059 75.75394043 -34.33870117 76.50788086 -34.51318359 77.28466797 C-35.88992532 83.57815622 -36.40826831 89.69529309 -36.625 96.125 C-36.66367188 97.08148437 -36.70234375 98.03796875 -36.7421875 99.0234375 C-36.83520128 101.34878199 -36.92103771 103.67414335 -37 106 C-37.66 105.67 -38.32 105.34 -39 105 C-40.52734334 67.15582605 -23.11682809 33.37351986 -2 3 C-1.34 2.01 -0.68 1.02 0 0 Z " fill="#2DA7DC" transform="translate(240,562)"/>
<path d="M0 0 C1 2 1 2 -0.1796875 5.66796875 C-0.73747691 7.17720277 -1.30293977 8.68361721 -1.875 10.1875 C-3.89251872 15.49845681 -5.32873693 20.31568724 -6 26 C-6.65257873 27.672233 -7.31867549 29.33927151 -8 31 C-9.18933601 36.57666439 -9.32781544 42.19640321 -9.5625 47.875 C-9.60568359 48.84953125 -9.64886719 49.8240625 -9.69335938 50.828125 C-9.79882274 53.21862802 -9.90094175 55.60922444 -10 58 C-10.66 57.67 -11.32 57.34 -12 57 C-12.79879391 37.20766189 -9.65221766 17.5169876 0 0 Z " fill="#2587CF" transform="translate(213,610)"/>
<path d="M0 0 C0 0.66 0 1.32 0 2 C-1.56958008 3.14160156 -1.56958008 3.14160156 -3.76953125 4.390625 C-4.57028076 4.84977295 -5.37103027 5.3089209 -6.19604492 5.78198242 C-7.0594751 6.26642822 -7.92290527 6.75087402 -8.8125 7.25 C-9.68817627 7.74798096 -10.56385254 8.24596191 -11.46606445 8.7590332 C-13.9728544 10.18090211 -16.48535838 11.59207645 -19 13 C-20.03898437 13.58652344 -21.07796875 14.17304687 -22.1484375 14.77734375 C-24.74818965 16.2212061 -27.36605805 17.61945112 -30 19 C-30.96993896 19.51336914 -30.96993896 19.51336914 -31.95947266 20.03710938 C-34.1336155 21.1825884 -36.31554753 22.31182213 -38.5 23.4375 C-39.19569092 23.80447998 -39.89138184 24.17145996 -40.6081543 24.54956055 C-42.3681252 25.44393651 -44.18189793 26.23064259 -46 27 C-46.99 26.67 -47.98 26.34 -49 26 C-47.8346875 25.44054687 -46.669375 24.88109375 -45.46875 24.3046875 C-33.75695509 18.60424564 -12.2612703 0 0 0 Z " fill="#41C7BF" transform="translate(415,592)"/>
<path d="M0 0 C0.66 0 1.32 0 2 0 C2.28894778 3.9649629 2.57359369 7.93021047 2.85449219 11.89575195 C2.99714624 13.89745637 3.14307106 15.89892684 3.2890625 17.90039062 C3.76295127 24.61945636 4.11829991 31.26429877 4 38 C3.34 38 2.68 38 2 38 C1.54763855 32.74949789 1.10221726 27.4984718 0.66333008 22.24682617 C0.51291359 20.45890257 0.36057317 18.67113977 0.20629883 16.88354492 C-0.01461988 14.31989343 -0.22870182 11.75575065 -0.44140625 9.19140625 C-0.51218887 8.3872377 -0.5829715 7.58306915 -0.65589905 6.75453186 C-0.81140488 4.83923079 -0.91147871 2.91956356 -1 1 C-0.67 0.67 -0.34 0.34 0 0 Z " fill="#F03E80" transform="translate(761,208)"/>
<path d="M0 0 C0.66 0.33 1.32 0.66 2 1 C0.81189395 4.56431814 0.05967325 4.81848033 -3.0625 6.6875 C-7.37697919 9.43307766 -10.77551657 12.55178302 -14.2734375 16.265625 C-16 18 -16 18 -19 20 C-19.99 19.67 -20.98 19.34 -22 19 C-16.23667995 13.7774359 -10.33689321 8.76846231 -4.28515625 3.8828125 C-1.98512569 2.04918282 -1.98512569 2.04918282 0 0 Z " fill="#C2D04A" transform="translate(502,526)"/>
<path d="M0 0 C7.55473184 0.88138538 7.55473184 0.88138538 9.87695312 1.5 C11.99304228 1.99836138 13.9409992 2.20141662 16.109375 2.31640625 C17.24052734 2.37924805 17.24052734 2.37924805 18.39453125 2.44335938 C19.56048828 2.50233398 19.56048828 2.50233398 20.75 2.5625 C21.93916016 2.62727539 21.93916016 2.62727539 23.15234375 2.69335938 C25.10137815 2.79902991 27.05066748 2.89997966 29 3 C28.67 3.66 28.34 4.32 28 5 C6.72306385 5.55185137 6.72306385 5.55185137 0 0 Z " fill="#27A1D6" transform="translate(251,642)"/>
<path d="M0 0 C0.66 0.33 1.32 0.66 2 1 C1.15179687 1.4846875 0.30359375 1.969375 -0.5703125 2.46875 C-1.13049072 2.78900146 -1.69066895 3.10925293 -2.26782227 3.43920898 C-3.51779146 4.15317193 -4.76829013 4.8662086 -6.01928711 5.57836914 C-9.31608307 7.45689592 -12.60289633 9.34943234 -15.87109375 11.27734375 C-16.49032715 11.63957031 -17.10956055 12.00179687 -17.74755859 12.375 C-19.48146581 13.3900611 -21.21153497 14.41166979 -22.94140625 15.43359375 C-25.72953925 16.86148817 -27.91746308 17.59243925 -31 18 C-28.59262167 15.29431826 -26.06463001 13.82879254 -22.8515625 12.1875 C-21.34335937 11.41019531 -21.34335937 11.41019531 -19.8046875 10.6171875 C-18.75539063 10.08351562 -17.70609375 9.54984375 -16.625 9 C-14.55398858 7.93886296 -12.4836524 6.87640683 -10.4140625 5.8125 C-9.4957666 5.34457031 -8.5774707 4.87664062 -7.63134766 4.39453125 C-4.94338444 3.01624602 -4.94338444 3.01624602 -2.28662109 1.26171875 C-1.53203613 0.84535156 -0.77745117 0.42898437 0 0 Z " fill="#EB3679" transform="translate(698,242)"/>
<path d="M0 0 C0.66 0.33 1.32 0.66 2 1 C-12.3877551 13.93367347 -12.3877551 13.93367347 -19 16 C-15.16771102 11.99185072 -11.07477678 8.57171247 -6.6875 5.1875 C-6.04232422 4.68541016 -5.39714844 4.18332031 -4.73242188 3.66601562 C-3.15732875 2.44094319 -1.57899684 1.2200368 0 0 Z " fill="#B5D45B" transform="translate(478,546)"/>
<path d="M0 0 C1.24153433 3.724603 0.47452539 4.47752269 -1 8 C-1.37593066 9.9924325 -1.71979545 11.9918674 -2 14 C-2.99 14.33 -3.98 14.66 -5 15 C-5.66 15.66 -6.32 16.32 -7 17 C-6.37954537 12.76677156 -4.89476441 9.47709705 -2.9375 5.6875 C-2.38964844 4.61886719 -1.84179688 3.55023438 -1.27734375 2.44921875 C-0.64505859 1.23685547 -0.64505859 1.23685547 0 0 Z " fill="#EC4764" transform="translate(658,328)"/>
<path d="M0 0 C0 0.66 0 1.32 0 2 C-2.38785796 3.67209457 -4.75373728 5.19481795 -7.25 6.6875 C-7.93191406 7.11611328 -8.61382812 7.54472656 -9.31640625 7.98632812 C-9.98027344 8.38658203 -10.64414062 8.78683594 -11.328125 9.19921875 C-12.23933105 9.75355591 -12.23933105 9.75355591 -13.16894531 10.3190918 C-15.47381856 11.17619733 -16.7150952 10.79051657 -19 10 C-16.21251481 8.32626249 -13.41935573 6.66223733 -10.625 5 C-9.8309375 4.52304687 -9.036875 4.04609375 -8.21875 3.5546875 C-7.45820313 3.10351562 -6.69765625 2.65234375 -5.9140625 2.1875 C-4.8614624 1.55908203 -4.8614624 1.55908203 -3.78759766 0.91796875 C-2 0 -2 0 0 0 Z " fill="#59CAA6" transform="translate(415,592)"/>
<path d="M0 0 C0.66 0.33 1.32 0.66 2 1 C0.42040347 2.29623379 -1.16383413 3.58681327 -2.75 4.875 C-3.63171875 5.59429688 -4.5134375 6.31359375 -5.421875 7.0546875 C-7.60702448 8.70348211 -9.43631859 10.06285595 -12 11 C-12.99 10.67 -13.98 10.34 -15 10 C-10.05 6.7 -5.1 3.4 0 0 Z " fill="#67CA8E" transform="translate(430,581)"/>
<path d="M0 0 C0.33 0.66 0.66 1.32 1 2 C-3.32893185 7.18419194 -7.76564995 11.72706118 -13 16 C-11.3383196 11.87582937 -8.37661982 8.93445961 -5.375 5.75 C-4.859375 5.19570313 -4.34375 4.64140625 -3.8125 4.0703125 C-2.54574965 2.7097288 -1.27342185 1.35434163 0 0 Z " fill="#F4A355" transform="translate(579,450)"/>
<path d="M0 0 C1.32 0.33 2.64 0.66 4 1 C-2.93 6.94 -2.93 6.94 -10 13 C-10.66 12.67 -11.32 12.34 -12 12 C-9.53067374 9.46012156 -7.09363826 7.07403955 -4.3125 4.875 C-1.80846331 3.03438927 -1.80846331 3.03438927 0 0 Z " fill="#E4BD39" transform="translate(568,553)"/>
<path d="M0 0 C0.66 0.33 1.32 0.66 2 1 C0.79459348 4.61621957 -0.2255028 5.06985695 -3.375 7.0625 C-4.16648437 7.56910156 -4.95796875 8.07570313 -5.7734375 8.59765625 C-6.50820313 9.06042969 -7.24296875 9.52320313 -8 10 C-8.99 10.66 -9.98 11.32 -11 12 C-9.49650623 8.33213607 -7.36271208 6.31089607 -4.375 3.75 C-3.14910156 2.69039062 -3.14910156 2.69039062 -1.8984375 1.609375 C-1.27195312 1.07828125 -0.64546875 0.5471875 0 0 Z " fill="#D3CA43" transform="translate(502,526)"/>
<path d="M0 0 C0.66 0 1.32 0 2 0 C0.84414715 3.91211733 -0.35534962 6.8745041 -3 10 C-3.99 9.67 -4.98 9.34 -6 9 C-5.05016642 7.49460339 -4.08988109 5.99579653 -3.125 4.5 C-2.59132812 3.6646875 -2.05765625 2.829375 -1.5078125 1.96875 C-0.76144531 0.99421875 -0.76144531 0.99421875 0 0 Z " fill="#45B6E4" transform="translate(240,562)"/>
<path d="M0 0 C0.66 0.33 1.32 0.66 2 1 C0.06730041 2.17460192 -1.87133313 3.33944472 -3.8125 4.5 C-4.89144531 5.1496875 -5.97039063 5.799375 -7.08203125 6.46875 C-10 8 -10 8 -13 8 C-10.61664713 5.32561064 -8.12963852 3.84841988 -4.9375 2.25 C-4.05964844 1.80140625 -3.18179688 1.3528125 -2.27734375 0.890625 C-1.52582031 0.59671875 -0.77429688 0.3028125 0 0 Z " fill="#EE357B" transform="translate(713,234)"/>
<path d="M0 0 C0.66 0.33 1.32 0.66 2 1 C0.35 2.32 -1.3 3.64 -3 5 C-2.01 5.99 -1.02 6.98 0 8 C-1.98 7.34 -3.96 6.68 -6 6 C-6 5.01 -6 4.02 -6 3 C-4.03533587 1.93224776 -2.03144641 0.93446535 0 0 Z " fill="#E83971" transform="translate(643,272)"/>
<path d="M0 0 C0.33 0 0.66 0 1 0 C1 3.3 1 6.6 1 10 C0.34 8.68 -0.32 7.36 -1 6 C-1.99 6.66 -2.98 7.32 -4 8 C-2.87548273 5.0280615 -1.77706209 2.66559313 0 0 Z " fill="#83C33E" transform="translate(487,412)"/>
<path d="M0 0 C0.33 0.99 0.66 1.98 1 3 C-0.65 4.32 -2.3 5.64 -4 7 C-4.66 6.67 -5.32 6.34 -6 6 C-3.375 1.125 -3.375 1.125 0 0 Z " fill="#2BB0E0" transform="translate(236,571)"/>
<path d="M0 0 C0.99 0.33 1.98 0.66 3 1 C0.69 2.65 -1.62 4.3 -4 6 C-4.66 5.67 -5.32 5.34 -6 5 C-1.60546875 0.99609375 -1.60546875 0.99609375 0 0 Z " fill="#A4D562" transform="translate(465,556)"/>
<path d="M0 0 C0.33 0 0.66 0 1 0 C1 2.97 1 5.94 1 9 C0.01 9.33 -0.98 9.66 -2 10 C-1.34 6.7 -0.68 3.4 0 0 Z " fill="#F79314" transform="translate(608,318)"/>
</svg>
